<svg width="1440" height="3078" viewBox="0 0 1440 3078" fill="none" xmlns="http://www.w3.org/2000/svg">
<path d="M1246.47 322.493L1130.61 593.032L1453.92 768.337L1510.94 523.881L1246.47 322.493Z" fill="#347A3B" fill-opacity="0.3"/>
<path d="M1246.47 322.493L1246.77 322.095L1246.26 321.707L1246.01 322.296L1246.47 322.493ZM1130.61 593.032L1130.15 592.835L1129.97 593.255L1130.37 593.472L1130.61 593.032ZM1453.92 768.337L1453.69 768.776L1454.26 769.089L1454.41 768.45L1453.92 768.337ZM1510.94 523.881L1511.43 523.995L1511.5 523.679L1511.25 523.483L1510.94 523.881ZM1246.01 322.296L1130.15 592.835L1131.07 593.229L1246.93 322.69L1246.01 322.296ZM1130.37 593.472L1453.69 768.776L1454.16 767.897L1130.85 592.593L1130.37 593.472ZM1454.41 768.45L1511.43 523.995L1510.46 523.767L1453.44 768.223L1454.41 768.45ZM1511.25 523.483L1246.77 322.095L1246.17 322.891L1510.64 524.279L1511.25 523.483Z" fill="#347A3B" fill-opacity="0.3"/>
<path d="M688.717 793.694C739.22 699.092 899.427 662.652 971.366 742.165C1019.86 795.769 1059.32 779.78 1108.61 832.654C1142.66 869.186 1118.16 933.526 1140.01 978.442C1165.78 1031.4 1107.16 1062.7 1129.96 1117C1159.79 1188.05 1195.08 1098.82 1251.82 1150.94C1317.78 1211.53 1307.04 1327.52 1234.23 1379.67C1184.64 1415.2 1122.69 1348.97 1078.46 1390.98C1054.28 1413.96 1061.31 1441.36 1040.77 1467.65C950.861 1582.71 850.581 1501.63 755.296 1390.98C711.013 1339.56 655.168 1312.97 674.898 1248.02C687.233 1207.43 734.893 1154.2 755.296 1117C791.895 1050.28 693.002 1033.16 694.998 957.077C696.672 893.246 658.649 850.016 688.717 793.694Z" fill="#4A5AEC" fill-opacity="0.3" stroke="#4A5AEC" stroke-opacity="0.3"/>
<circle opacity="0.3" cx="170.985" cy="812.618" r="26.69" fill="#347A3B"/>
<circle opacity="0.3" cx="170.985" cy="882.982" r="26.69" fill="#FFE4B0"/>
<circle opacity="0.3" cx="170.985" cy="963.052" r="26.69" fill="#347A3B"/>
<circle opacity="0.3" cx="1322.29" cy="2252.66" r="26.69" fill="#EC4F4F"/>
<circle opacity="0.3" cx="1322.29" cy="2323.03" r="26.69" fill="#A2B1F5"/>
<circle opacity="0.3" cx="1322.29" cy="2403.1" r="26.69" fill="#EC4F4F"/>
<path d="M244.626 99.2676C297.97 31.2416 350.779 1 442.981 1C535.183 1 479.984 95.0215 611.614 85.3161C743.244 75.6106 612.22 291.557 676.519 332.805C740.817 374.053 669.846 487.486 589.776 520.848C509.707 554.21 442.981 489.912 350.779 520.848C258.577 551.784 301.645 613.05 299.826 654.298C298.006 695.546 34.7451 780.469 -75.0472 676.135C-184.839 571.802 -158.756 511.749 -149.657 474.747C-140.559 437.745 -75.0472 374.053 25.0403 348.576C125.128 323.1 154.85 431.073 190.033 374.053C225.216 317.034 182.777 298.086 190.033 250.309C199.45 188.3 205.923 148.622 244.626 99.2676Z" fill="#EC4F4F" fill-opacity="0.3"/>
<path d="M244.626 99.2676L245.019 99.5762L245.019 99.5762L244.626 99.2676ZM190.033 250.309L189.538 250.234L190.033 250.309ZM245.019 99.5762C271.665 65.5971 298.15 41.0887 329.46 25.0692C360.767 9.05078 396.936 1.5 442.981 1.5V0.5C396.824 0.5 360.488 8.07002 329.004 24.1789C297.522 40.2867 270.931 64.9121 244.232 98.9591L245.019 99.5762ZM442.981 1.5C465.936 1.5 479.648 7.34804 489.387 15.9146C499.164 24.5158 504.966 35.866 512.09 47.0659C519.197 58.2404 527.579 69.1729 542.474 76.6826C557.36 84.1878 578.692 88.2448 611.65 85.8147L611.577 84.8174C578.721 87.24 557.591 83.1839 542.924 75.7897C528.267 68.4001 520.005 57.647 512.934 46.5292C505.878 35.4369 499.965 23.8884 490.047 15.1638C480.09 6.40465 466.126 0.5 442.981 0.5V1.5ZM611.65 85.8147C628.044 84.606 640.288 86.9152 649.316 91.9095C658.333 96.8982 664.194 104.594 667.776 114.265C674.957 133.654 672.955 160.903 668.821 189.882C664.695 218.801 658.449 249.421 657.262 275.346C656.078 301.241 659.919 322.75 676.249 333.226L676.789 332.384C660.97 322.236 657.077 301.284 658.261 275.391C659.445 249.529 665.672 219.035 669.811 190.024C673.941 161.073 675.995 133.578 668.713 113.918C665.064 104.064 659.062 96.1588 649.8 91.0345C640.547 85.9158 628.091 83.5998 611.577 84.8174L611.65 85.8147ZM676.249 333.226C692.181 343.446 699.725 358.121 700.852 374.93C701.981 391.764 696.674 410.759 686.843 429.552C667.178 467.143 629.502 503.754 589.584 520.387L589.969 521.31C630.121 504.58 667.966 467.794 687.729 430.016C697.612 411.125 702.996 391.942 701.85 374.863C700.703 357.761 693.006 342.788 676.789 332.384L676.249 333.226ZM589.584 520.387C549.712 537 513.162 529.309 474.93 521.269C436.721 513.233 396.865 504.858 350.62 520.374L350.938 521.322C396.896 505.902 436.502 514.209 474.724 522.247C512.923 530.281 549.771 538.059 589.969 521.31L589.584 520.387ZM350.62 520.374C327.516 528.126 312.827 537.797 303.792 548.63C294.75 559.471 291.406 571.432 290.91 583.686C290.414 595.923 292.759 608.471 295.098 620.491C297.443 632.539 299.778 644.036 299.326 654.276L300.325 654.32C300.783 643.936 298.417 632.306 296.08 620.3C293.737 608.265 291.419 595.829 291.909 583.726C292.398 571.64 295.689 559.906 304.56 549.271C313.438 538.626 327.942 529.038 350.938 521.322L350.62 520.374ZM299.326 654.276C299.218 656.724 298.137 659.38 296.116 662.195C294.096 665.009 291.158 667.953 287.386 670.968C279.843 676.998 269.022 683.272 255.716 689.329C229.109 701.44 192.643 712.65 152.796 719.317C112.95 725.983 69.7474 728.101 29.6641 722.045C-10.4209 715.989 -47.3524 701.763 -74.7027 675.773L-75.3916 676.498C-47.8458 702.674 -10.6977 716.958 29.5147 723.034C69.7287 729.11 113.041 726.982 152.961 720.303C192.882 713.624 229.434 702.391 256.131 690.239C269.477 684.163 280.379 677.85 288.011 671.749C291.826 668.698 294.838 665.69 296.928 662.779C299.017 659.869 300.206 657.028 300.325 654.32L299.326 654.276ZM-74.7027 675.773C-129.552 623.65 -150.405 582.643 -156.445 550.101C-162.486 517.551 -153.732 493.411 -149.172 474.866L-150.143 474.628C-154.682 493.085 -163.518 517.472 -157.428 550.283C-151.337 583.101 -130.334 624.287 -75.3916 676.498L-74.7027 675.773ZM-149.172 474.866C-144.662 456.526 -126.113 431.44 -96.1192 407.732C-66.1467 384.042 -24.8103 361.782 25.1636 349.061L24.917 348.092C-25.1966 360.848 -66.6596 383.172 -96.7393 406.948C-126.797 430.706 -145.554 455.966 -150.143 474.628L-149.172 474.866ZM25.1636 349.061C74.9853 336.379 107.277 356.89 131.593 373.556C137.669 377.72 143.265 381.657 148.502 384.762C153.738 387.867 158.659 390.168 163.394 391.037C168.149 391.909 172.71 391.337 177.199 388.716C181.672 386.105 186.037 381.481 190.458 374.316L189.607 373.791C185.232 380.881 180.973 385.355 176.695 387.853C172.433 390.341 168.119 390.887 163.575 390.053C159.013 389.216 154.213 386.986 149.012 383.902C143.811 380.818 138.252 376.908 132.158 372.731C107.796 356.034 75.1827 335.297 24.917 348.092L25.1636 349.061ZM190.458 374.316C199.285 360.011 203.261 348.064 204.353 337.433C205.444 326.801 203.647 317.524 200.985 308.573C195.651 290.64 186.921 274.127 190.527 250.384L189.538 250.234C185.888 274.267 194.75 291.118 200.026 308.858C202.669 317.743 204.431 326.879 203.358 337.331C202.285 347.782 198.372 359.586 189.607 373.791L190.458 374.316ZM190.527 250.384C199.943 188.381 206.404 148.82 245.019 99.5762L244.232 98.9591C205.443 148.425 198.956 188.218 189.538 250.234L190.527 250.384Z" fill="#EC4F4F" fill-opacity="0.3"/>
<path d="M155.564 1535.16L42.3882 1893L248.897 2264.8L577.401 2209.69V1872.42H434.829L394.409 1200.84L155.564 1535.16Z" fill="#FFE4B0" fill-opacity="0.5" stroke="#FFE4B0" stroke-opacity="0.5"/>
<path d="M918.304 1834.12L1379.31 1546.59V1809.25L1208.86 2105.26L1133.64 1834.12H918.304Z" fill="#EC4F4F" fill-opacity="0.3"/>
<path d="M918.304 1834.12L918.04 1833.69L916.558 1834.62H918.304V1834.12ZM1379.31 1546.59H1379.81V1545.69L1379.05 1546.17L1379.31 1546.59ZM1379.31 1809.25L1379.75 1809.5L1379.81 1809.38V1809.25H1379.31ZM1208.86 2105.26L1208.38 2105.4L1208.7 2106.55L1209.29 2105.51L1208.86 2105.26ZM1133.64 1834.12L1134.13 1833.98L1134.02 1833.62H1133.64V1834.12ZM918.569 1834.54L1379.58 1547.02L1379.05 1546.17L918.04 1833.69L918.569 1834.54ZM1378.81 1546.59V1809.25H1379.81V1546.59H1378.81ZM1378.88 1809L1208.43 2105.01L1209.29 2105.51L1379.75 1809.5L1378.88 1809ZM1209.34 2105.13L1134.13 1833.98L1133.16 1834.25L1208.38 2105.4L1209.34 2105.13ZM1133.64 1833.62H918.304V1834.62H1133.64V1833.62Z" fill="#EC4F4F" fill-opacity="0.3"/>
<path d="M1216.47 2473.74C1306.1 2550.72 1302.96 2713.72 1197.02 2757.39C1125.6 2786.83 1132.47 2829.14 1061.64 2859.55C1012.69 2880.57 949.1 2837.54 894.281 2844.41C829.646 2852.52 811.207 2787.35 745.899 2792.22C660.459 2798.61 748.297 2859.52 676.297 2897.22C592.584 2941.06 468.995 2895.16 431.615 2810.12C406.155 2752.2 494.941 2713.9 460.963 2659.06C442.385 2629.08 410.624 2627.3 387.461 2599.75C286.07 2479.14 401.301 2409.1 547.435 2352.9C615.349 2326.78 659.289 2282.06 724.815 2320.75C765.777 2344.94 811.054 2406.48 846.152 2437.26C909.111 2492.49 954.23 2404.06 1036.65 2429.38C1105.8 2450.63 1163.1 2427.91 1216.47 2473.74Z" fill="#347A3B" fill-opacity="0.3" stroke="#347A3B" stroke-opacity="0.3"/>
</svg>
