<svg width="842" height="595" viewBox="0 0 842 595" fill="none" xmlns="http://www.w3.org/2000/svg">
<rect width="842" height="595" fill="#EFEFEF"/>
<path d="M617.859 177.566H267.264C261.761 177.566 257.3 182.026 257.3 187.527V416.62C257.3 422.121 261.761 426.58 267.264 426.58H617.859C623.362 426.58 627.823 422.121 627.823 416.62V187.527C627.823 182.026 623.362 177.566 617.859 177.566Z" fill="#EC4F4F"/>
<path d="M600.758 165.115H244.845C240.374 165.115 236.75 168.739 236.75 173.208V393.743C236.75 398.212 240.374 401.836 244.845 401.836H600.758C605.229 401.836 608.854 398.212 608.854 393.743V173.208C608.854 168.739 605.229 165.115 600.758 165.115Z" fill="#FFE4B0"/>
<path d="M236.75 175.838C236.75 169.916 241.552 165.115 247.476 165.115H598.128C604.052 165.115 608.854 169.916 608.854 175.838C608.854 181.76 604.052 186.561 598.128 186.561H247.476C241.552 186.561 236.75 181.76 236.75 175.838Z" fill="white"/>
<path d="M237.575 176.663H608.854V186.561H237.575V176.663Z" fill="white"/>
<path d="M600.758 165.427H244.845C240.546 165.427 237.061 168.911 237.061 173.208V393.743C237.061 398.041 240.546 401.524 244.845 401.524H600.758C605.057 401.524 608.542 398.041 608.542 393.743V173.208C608.542 168.911 605.057 165.427 600.758 165.427Z" stroke="black"/>
<path d="M237.162 186.561H608.442" stroke="black"/>
<path d="M602.666 170.065L590.703 182.024M590.703 170.065L602.666 182.024L590.703 170.065Z" stroke="black"/>
<path d="M177.215 264.796C177.215 261.839 176.735 259.005 175.775 256.294C174.814 253.583 173.432 251.201 171.626 249.148C169.821 247.054 167.612 245.39 165 244.158C162.426 242.926 159.507 242.31 156.241 242.31C153.476 242.31 150.825 242.762 148.29 243.665C145.793 244.568 143.527 245.945 141.491 247.792C136.497 252.351 134 258.101 134 265.042C134 267.958 134.442 270.648 135.325 273.112C136.247 275.576 137.476 277.774 139.013 279.704C140.588 281.593 142.413 283.195 144.487 284.509C146.561 285.783 148.77 286.686 151.113 287.22C151.305 288.863 151.728 290.28 152.381 291.471C153.034 292.703 153.86 293.688 154.859 294.428C155.896 295.167 157.067 295.701 158.373 296.03C159.68 296.399 161.082 296.584 162.58 296.584C164.424 296.584 166.075 296.276 167.535 295.66C168.995 295.085 170.282 294.387 171.396 293.565L171.108 293.073C170.339 293.401 169.629 293.606 168.976 293.688C168.323 293.812 167.65 293.873 166.959 293.873C165.998 293.873 165.057 293.729 164.135 293.442C163.214 293.155 162.388 292.723 161.658 292.148C160.928 291.615 160.352 290.916 159.929 290.054C159.507 289.191 159.295 288.226 159.295 287.158C161.831 286.665 164.193 285.783 166.383 284.509C168.572 283.195 170.455 281.572 172.029 279.643C173.643 277.671 174.911 275.433 175.832 272.927C176.754 270.422 177.215 267.712 177.215 264.796ZM170.07 264.857C170.07 267.321 169.801 269.868 169.264 272.497C168.764 275.084 167.938 277.445 166.786 279.581C165.672 281.716 164.193 283.482 162.349 284.879C160.544 286.234 158.335 286.912 155.723 286.912C153.495 286.912 151.478 286.316 149.673 285.125C147.867 283.893 146.331 282.271 145.063 280.258C143.795 278.246 142.816 275.946 142.124 273.359C141.471 270.73 141.145 268.02 141.145 265.227C141.145 262.557 141.414 259.929 141.952 257.342C142.528 254.713 143.392 252.372 144.545 250.319C145.735 248.265 147.234 246.602 149.039 245.328C150.883 244.014 153.053 243.357 155.55 243.357C158.009 243.357 160.14 244.014 161.946 245.328C163.751 246.602 165.249 248.286 166.44 250.38C167.669 252.433 168.572 254.734 169.148 257.28C169.763 259.826 170.07 262.352 170.07 264.857ZM189.063 247.792C189.063 246.848 188.756 246.067 188.141 245.452C187.565 244.835 186.835 244.528 185.952 244.528C185.068 244.528 184.319 244.835 183.704 245.452C183.128 246.067 182.84 246.848 182.84 247.792C182.84 248.696 183.147 249.476 183.762 250.134C184.377 250.791 185.106 251.119 185.952 251.119C186.835 251.119 187.565 250.811 188.141 250.195C188.756 249.538 189.063 248.737 189.063 247.792ZM192.29 287.282V286.665C191.906 286.583 191.502 286.542 191.08 286.542C190.696 286.501 190.331 286.439 189.985 286.357C189.639 286.275 189.332 286.152 189.063 285.987C188.833 285.783 188.679 285.475 188.602 285.064V257.526H188.256L180.478 260.237V260.607C181.015 260.812 181.515 261.038 181.976 261.284C182.475 261.531 182.898 261.777 183.243 262.024C183.512 262.228 183.666 262.454 183.704 262.701C183.781 262.947 183.82 263.235 183.82 263.564V284.694C183.82 285.064 183.685 285.372 183.416 285.618C183.186 285.865 182.878 286.07 182.494 286.234C182.149 286.357 181.745 286.46 181.284 286.542C180.823 286.583 180.362 286.624 179.901 286.665V287.282H192.29ZM224.782 301.451V300.773C224.322 300.732 223.841 300.65 223.342 300.527C222.881 300.445 222.439 300.321 222.016 300.157C221.632 299.993 221.306 299.787 221.037 299.541C220.768 299.294 220.634 299.007 220.634 298.678V257.526H220.23L218.444 260.914H218.271C217.272 259.97 215.889 259.169 214.123 258.512C212.394 257.855 210.415 257.526 208.187 257.526C206.19 257.526 204.346 257.937 202.656 258.758C201.004 259.58 199.583 260.689 198.392 262.085C197.201 263.441 196.26 265.042 195.569 266.89C194.916 268.697 194.589 270.607 194.589 272.619C194.589 274.55 194.858 276.419 195.396 278.226C195.934 279.992 196.682 281.552 197.643 282.908C198.642 284.263 199.833 285.331 201.215 286.111C202.598 286.891 204.154 287.282 205.883 287.282C207.151 287.282 208.322 287.097 209.397 286.727C210.473 286.316 211.434 285.783 212.279 285.125C213.124 284.468 213.854 283.729 214.468 282.908C215.083 282.086 215.544 281.265 215.851 280.443L215.966 280.505C215.966 280.916 215.947 281.614 215.909 282.6C215.909 283.544 215.889 284.612 215.851 285.803C215.851 286.953 215.851 288.206 215.851 289.561C215.851 290.916 215.832 292.21 215.793 293.442C215.793 294.715 215.793 295.845 215.793 296.83C215.793 297.857 215.793 298.617 215.793 299.11C215.717 299.438 215.486 299.705 215.102 299.91C214.757 300.116 214.334 300.26 213.834 300.342C213.373 300.465 212.874 300.547 212.336 300.588C211.799 300.67 211.338 300.732 210.954 300.773V301.451H224.782ZM215.851 278.78C215.851 279.026 215.697 279.417 215.39 279.951C215.121 280.484 214.718 281.018 214.18 281.552C213.642 282.086 212.932 282.559 212.048 282.969C211.203 283.38 210.204 283.585 209.052 283.585C207.515 283.585 206.171 283.256 205.018 282.6C203.866 281.942 202.905 281.08 202.138 280.012C201.369 278.903 200.793 277.63 200.409 276.193C200.025 274.755 199.833 273.277 199.833 271.757C199.833 269.826 200.025 268.061 200.409 266.459C200.831 264.857 201.388 263.461 202.08 262.27C202.809 261.079 203.674 260.155 204.673 259.497C205.71 258.841 206.824 258.512 208.015 258.512C209.475 258.512 210.685 258.841 211.645 259.497C212.644 260.114 213.431 260.955 214.007 262.024C214.622 263.05 215.064 264.241 215.333 265.596C215.64 266.911 215.813 268.245 215.851 269.601C215.889 270.299 215.909 271.018 215.909 271.757C215.909 272.455 215.909 273.153 215.909 273.852C215.909 274.796 215.909 275.699 215.909 276.562C215.909 277.425 215.889 278.164 215.851 278.78ZM235.26 247.792C235.26 246.848 234.953 246.067 234.339 245.452C233.763 244.835 233.032 244.528 232.149 244.528C231.266 244.528 230.517 244.835 229.902 245.452C229.326 246.067 229.038 246.848 229.038 247.792C229.038 248.696 229.345 249.476 229.96 250.134C230.574 250.791 231.304 251.119 232.149 251.119C233.032 251.119 233.763 250.811 234.339 250.195C234.953 249.538 235.26 248.737 235.26 247.792ZM238.487 287.282V286.665C238.103 286.583 237.7 286.542 237.277 286.542C236.893 286.501 236.528 286.439 236.183 286.357C235.837 286.275 235.53 286.152 235.26 285.987C235.03 285.783 234.876 285.475 234.8 285.064V257.526H234.454L226.675 260.237V260.607C227.213 260.812 227.712 261.038 228.173 261.284C228.673 261.531 229.095 261.777 229.441 262.024C229.71 262.228 229.863 262.454 229.902 262.701C229.978 262.947 230.017 263.235 230.017 263.564V284.694C230.017 285.064 229.883 285.372 229.614 285.618C229.383 285.865 229.076 286.07 228.692 286.234C228.346 286.357 227.943 286.46 227.482 286.542C227.021 286.583 226.56 286.624 226.099 286.665V287.282H238.487ZM291.836 273.42L291.203 273.174C289.281 276.706 287.073 279.622 284.577 281.922C282.118 284.222 279.333 285.557 276.222 285.926C275.107 286.049 274.032 286.131 272.995 286.172C271.996 286.213 271.17 286.234 270.517 286.234C268.98 286.234 267.424 286.234 265.85 286.234C264.313 286.234 262.584 286.213 260.664 286.172L289.762 243.419L289.59 243.049C288.168 243.049 286.439 243.049 284.404 243.049C282.406 243.049 280.274 243.049 278.008 243.049C275.741 243.049 273.456 243.049 271.151 243.049C268.884 243.049 266.772 243.049 264.813 243.049C262.853 243.008 261.163 242.988 259.742 242.988C258.321 242.947 257.341 242.906 256.804 242.864L252.597 255.986L253.231 256.233C253.653 255.493 254.172 254.693 254.787 253.83C255.439 252.927 256.112 252.043 256.804 251.181C257.495 250.319 258.167 249.538 258.82 248.84C259.512 248.101 260.088 247.525 260.549 247.115C261.508 246.293 262.566 245.616 263.718 245.082C264.908 244.548 266.234 244.24 267.694 244.158C268.423 244.117 269.403 244.096 270.633 244.096C271.9 244.055 273.225 244.035 274.608 244.035C275.991 244.035 277.335 244.035 278.641 244.035C279.986 244.035 281.061 244.035 281.868 244.035L252.712 286.85L252.943 287.282H287.688L291.836 273.42ZM321.415 287.282V286.727C321.069 286.686 320.704 286.645 320.32 286.604C319.936 286.522 319.571 286.439 319.225 286.357C318.88 286.234 318.591 286.07 318.361 285.865C318.13 285.659 318.015 285.413 318.015 285.125V266.952C318.015 265.596 317.9 264.344 317.67 263.194C317.478 262.044 317.112 261.058 316.575 260.237C316.075 259.374 315.384 258.717 314.501 258.265C313.655 257.773 312.599 257.526 311.332 257.526C310.025 257.526 308.815 257.773 307.701 258.265C306.626 258.717 305.665 259.271 304.82 259.929C303.975 260.586 303.264 261.284 302.688 262.024C302.151 262.763 301.747 263.42 301.478 263.995L301.363 263.933L301.536 242.556H301.075L293.353 246.314V246.684C293.853 247.012 294.352 247.321 294.852 247.608C295.389 247.854 295.813 248.121 296.12 248.409C296.389 248.614 296.542 248.799 296.58 248.963C296.657 249.127 296.696 249.374 296.696 249.702V284.694C296.696 285.475 296.331 285.987 295.601 286.234C294.91 286.439 294.122 286.583 293.238 286.665V287.282H304.705V286.665C304.32 286.583 303.937 286.522 303.552 286.481C303.168 286.439 302.823 286.378 302.516 286.296C302.209 286.172 301.958 286.008 301.766 285.803C301.575 285.598 301.478 285.31 301.478 284.94V266.028C301.478 265.699 301.536 265.35 301.651 264.981C301.805 264.57 301.92 264.303 301.997 264.179C302.573 263.276 303.341 262.557 304.302 262.024C305.262 261.489 306.434 261.222 307.816 261.222C308.892 261.222 309.775 261.428 310.467 261.839C311.158 262.25 311.696 262.824 312.08 263.564C312.502 264.303 312.791 265.185 312.944 266.213C313.099 267.239 313.175 268.348 313.175 269.539V284.94C313.175 285.598 312.829 286.029 312.138 286.234C311.447 286.398 310.582 286.522 309.545 286.604V287.282H321.415ZM350.365 272.188C350.365 269.724 349.941 267.588 349.097 265.781C348.29 263.933 347.233 262.413 345.928 261.222C344.66 259.99 343.239 259.067 341.664 258.45C340.088 257.835 338.532 257.526 336.997 257.526C334.922 257.526 333.021 257.937 331.292 258.758C329.601 259.58 328.142 260.668 326.913 262.024C325.722 263.379 324.781 264.94 324.089 266.706C323.436 268.471 323.11 270.299 323.11 272.188C323.11 274.817 323.533 277.116 324.378 279.088C325.261 281.018 326.375 282.62 327.72 283.893C329.103 285.125 330.601 286.029 332.214 286.604C333.828 287.179 335.383 287.466 336.881 287.466C338.687 287.466 340.396 287.076 342.01 286.296C343.661 285.516 345.101 284.427 346.331 283.03C347.56 281.634 348.54 280.012 349.27 278.164C349.999 276.275 350.365 274.283 350.365 272.188ZM345.006 272.127C345.006 273.564 344.852 275.125 344.545 276.809C344.276 278.492 343.815 280.073 343.162 281.552C342.547 282.989 341.721 284.201 340.684 285.187C339.685 286.131 338.437 286.604 336.939 286.604C335.441 286.604 334.153 286.234 333.078 285.495C332.002 284.714 331.119 283.688 330.428 282.415C329.736 281.101 329.237 279.602 328.93 277.918C328.622 276.234 328.469 274.447 328.469 272.558C328.469 270.833 328.642 269.149 328.987 267.506C329.371 265.822 329.909 264.323 330.601 263.009C331.33 261.654 332.194 260.566 333.194 259.744C334.192 258.923 335.326 258.512 336.593 258.512C338.168 258.512 339.493 258.964 340.569 259.867C341.644 260.73 342.508 261.839 343.162 263.194C343.815 264.549 344.276 266.028 344.545 267.63C344.852 269.231 345.006 270.73 345.006 272.127ZM380.6 285.742V285.372C380.139 285.166 379.563 284.899 378.871 284.571C378.219 284.243 377.719 283.975 377.373 283.77C377.104 283.565 376.931 283.38 376.855 283.215C376.816 283.051 376.797 282.805 376.797 282.476V258.142H367.117V258.82C367.962 258.902 368.769 259.005 369.537 259.128C370.344 259.251 370.978 259.415 371.438 259.621C371.669 259.949 371.823 260.442 371.899 261.099C371.976 261.715 372.014 262.228 372.014 262.639V280.197C371.669 280.69 371.285 281.162 370.862 281.614C370.478 282.066 370.037 282.476 369.537 282.846C369.076 283.174 368.538 283.462 367.924 283.708C367.347 283.914 366.656 284.017 365.849 284.017C363.736 284.017 362.296 283.38 361.528 282.107C360.76 280.792 360.375 278.78 360.375 276.069V258.142H351.444V258.82C351.79 258.861 352.154 258.902 352.539 258.943C352.924 258.943 353.288 258.984 353.633 259.067C353.98 259.149 354.287 259.271 354.556 259.436C354.863 259.6 355.093 259.867 355.247 260.237C355.323 260.36 355.362 260.566 355.362 260.853C355.401 261.099 355.439 261.387 355.477 261.715C355.516 262.003 355.535 262.29 355.535 262.578C355.535 262.865 355.535 263.091 355.535 263.256V278.287C355.535 281.285 356.111 283.565 357.264 285.125C358.455 286.686 360.279 287.466 362.738 287.466C363.814 287.466 364.812 287.282 365.734 286.912C366.695 286.542 367.559 286.049 368.327 285.433C369.095 284.776 369.786 284.058 370.401 283.277C371.016 282.497 371.535 281.757 371.957 281.06L372.014 281.121V287.343H372.418L380.6 285.742Z" fill="#EC4F4F"/>
<path d="M451.641 139.193C446.468 137.973 441.353 136.84 436.297 135.794C436.471 133.993 436.558 132.279 436.558 130.652C436.558 129.315 436.413 127.311 436.122 124.638C435.832 121.907 435.686 119.874 435.686 118.537C435.686 113.192 437.459 104.622 441.004 92.8266L464.718 89.3404C468.205 88.8756 470.937 88.6432 472.913 88.6432C481.399 88.6432 485.642 92.5942 485.642 100.496C485.642 104.796 484.276 109.357 481.544 114.18C479.161 118.363 476.139 122.111 472.477 125.423C469.396 128.153 466.84 129.519 464.805 129.519C464.398 129.519 463.091 129.257 460.882 128.734C460.301 128.618 459.4 128.473 458.179 128.299C456.436 127.892 454.024 127.34 450.943 126.643L451.641 139.193ZM466.462 108.427C466.462 106.394 465.212 105.377 462.713 105.377C461.899 105.377 459.109 105.755 454.343 106.51C453.414 109.415 452.193 113.773 450.682 119.583C451.147 119.757 451.641 119.845 452.164 119.845C452.629 119.845 453.529 119.728 454.866 119.496C457.947 118.915 460.272 118.102 461.841 117.056C463.817 115.719 465.212 113.715 466.026 111.042C466.316 110.054 466.462 109.183 466.462 108.427ZM535.754 120.368C535.754 125.074 533.545 128.618 529.128 131C525.582 132.918 521.223 133.877 516.051 133.877C510.297 133.877 504.92 133.005 499.922 131.262C495.97 129.926 492.686 128.095 490.07 125.771C486.873 122.924 485.275 119.699 485.275 116.097C485.275 115.283 485.363 114.47 485.537 113.657C486.758 108.427 490.506 104.651 496.783 102.326C500.445 100.932 505.995 99.8571 513.435 99.1018C514.307 99.0437 515.12 99.0146 515.876 99.0146C524.827 99.0146 531.017 104.331 534.446 114.964C535.318 117.695 535.754 119.496 535.754 120.368ZM503.148 117.579C503.148 122.924 506.112 125.597 512.04 125.597C516.806 125.597 519.189 122.517 519.189 116.358C519.189 110.432 516.399 107.469 510.82 107.469C508.204 107.469 506.228 108.544 504.891 110.693C503.729 112.495 503.148 114.79 503.148 117.579ZM571.746 137.101C570.874 128.967 569.973 121.471 569.043 114.615C567.067 114.732 565.091 114.877 563.115 115.051C560.209 125.219 557.884 133.063 556.141 138.583C549.515 139.28 542.772 140.065 535.914 140.936C542.83 119.961 548.817 99.218 553.874 78.7075C562.65 78.3589 570.554 78.1846 577.587 78.1846C582.585 78.1846 585.957 78.2717 587.7 78.446C591.594 78.969 594.704 80.1311 597.029 81.9322C600.225 84.3726 601.824 87.8007 601.824 92.2165C601.824 100.467 597.348 106.539 588.398 110.432C589.444 116.068 591.013 124.493 593.106 135.707C586.131 136.055 579.011 136.52 571.746 137.101ZM583.429 94.5697C583.429 91.7807 581.568 90.3863 577.849 90.3863C576.57 90.3863 573.722 90.4734 569.305 90.6477C568.723 93.1461 567.794 96.9229 566.515 101.978C568.142 101.92 570.409 101.833 573.315 101.716C580.057 101.368 583.429 98.9855 583.429 94.5697ZM626.475 136.927C622.232 136.288 617.931 135.736 613.572 135.271C614.444 122.546 614.88 109.938 614.88 97.4458V96.9229C611.916 96.3419 608.98 95.7899 606.075 95.2669C606.133 91.8388 606.133 87.9459 606.075 83.5882C614.56 85.3894 623.743 87.6554 633.624 90.3863L634.234 101.455C631.619 100.758 629.061 100.09 626.562 99.4504C626.795 106.481 626.911 112.582 626.911 117.753C626.911 123.447 626.765 129.838 626.475 136.927Z" fill="#4A5AEC"/>
<path d="M663.88 131.959C655.337 131.843 646.822 131.611 638.336 131.262C639.034 127.66 639.877 123.04 640.864 117.404C649.525 117.695 658.214 117.869 666.932 117.927C666.06 121.762 665.043 126.439 663.88 131.959Z" fill="#EC4F4F"/>
<path d="M201.952 490.191L196.46 509.016C195.878 509.539 194.716 509.801 192.972 509.801C193.03 509.801 188.671 509.423 179.895 508.668C181.348 496.466 183.237 478.251 185.562 454.022C188.817 454.312 194.832 455.097 203.608 456.375C210.292 457.363 215.116 457.857 218.081 457.857C222.265 457.857 224.968 457.043 226.189 455.416C225.259 457.973 223.922 461.836 222.178 467.008C221.132 467.24 219.01 467.85 215.814 468.838C213.489 469.652 211.223 470.058 209.014 470.058C207.91 470.058 206.689 470 205.352 469.884C205.178 473.37 204.945 476.333 204.655 478.774C206.282 478.599 208.229 478.222 210.496 477.641C212.356 477.118 214.245 476.595 216.163 476.072C214.826 480.488 213.634 484.235 212.588 487.315L201.952 490.191ZM274.923 478.948C274.923 483.654 272.714 487.199 268.297 489.581C264.752 491.498 260.393 492.457 255.22 492.457C249.466 492.457 244.09 491.586 239.091 489.842C235.139 488.506 231.855 486.676 229.24 484.352C226.043 481.505 224.445 478.28 224.445 474.677C224.445 473.864 224.532 473.051 224.706 472.237C225.927 467.008 229.676 463.231 235.953 460.907C239.615 459.513 245.165 458.437 252.605 457.682C253.476 457.624 254.29 457.595 255.046 457.595C263.996 457.595 270.186 462.912 273.615 473.544C274.487 476.276 274.923 478.076 274.923 478.948ZM242.317 476.159C242.317 481.505 245.281 484.177 251.21 484.177C255.975 484.177 258.359 481.098 258.359 474.939C258.359 469.012 255.569 466.049 249.989 466.049C247.374 466.049 245.398 467.124 244.061 469.274C242.898 471.075 242.317 473.37 242.317 476.159ZM307.783 500.562C298.833 502.712 288.371 505.472 276.398 508.842C278.781 504.078 280.234 497.628 280.757 489.494C280.873 487.46 280.931 480.691 280.931 469.187C280.931 460.994 281.251 454.196 281.89 448.792L300.111 451.407C299.705 454.661 299.501 458.612 299.501 463.26C299.501 464.713 299.53 466.891 299.588 469.797C299.646 472.702 299.675 474.881 299.675 476.333C299.675 486.269 297.99 492.602 294.619 495.333C301.07 493.706 307.115 492.253 312.753 490.975C312.404 491.673 310.747 494.868 307.783 500.562ZM334.97 499.691C328.635 499.342 322.416 499.11 316.313 498.994C320.44 476.217 324.218 457.363 327.647 442.43C333.285 442.198 339.01 442.052 344.822 441.994C342.148 455.474 338.864 474.707 334.97 499.691ZM395.479 478.948C395.479 483.654 393.271 487.199 388.854 489.581C385.308 491.498 380.949 492.457 375.776 492.457C370.022 492.457 364.646 491.586 359.648 489.842C355.695 488.506 352.412 486.676 349.796 484.352C346.599 481.505 345.001 478.28 345.001 474.677C345.001 473.864 345.088 473.051 345.263 472.237C346.483 467.008 350.232 463.231 356.509 460.907C360.171 459.513 365.721 458.437 373.161 457.682C374.033 457.624 374.846 457.595 375.602 457.595C384.552 457.595 390.742 462.912 394.172 473.544C395.044 476.276 395.479 478.076 395.479 478.948ZM362.873 476.159C362.873 481.505 365.838 484.177 371.766 484.177C376.532 484.177 378.915 481.098 378.915 474.939C378.915 469.012 376.125 466.049 370.545 466.049C367.93 466.049 365.953 467.124 364.617 469.274C363.454 471.075 362.873 473.37 362.873 476.159Z" fill="#4A5AEC"/>
<path d="M491.134 352.187H372.816V376.466H491.134V352.187Z" fill="white" stroke="black"/>
<path d="M417.195 367.881C416.747 368.946 415.775 369.506 414.337 369.506C412.301 369.506 411.142 368.498 410.862 366.481H419.25C419.213 365.211 419.138 364.725 418.839 363.978C418.111 362.148 416.411 361.065 414.262 361.065C411.31 361.065 409.181 363.194 409.181 366.126C409.181 368.965 411.198 370.87 414.225 370.87C416.504 370.87 418.241 369.768 418.951 367.881H417.195ZM410.862 365.229C411.105 364.464 411.31 363.997 411.591 363.623C412.151 362.876 413.141 362.428 414.225 362.428C415.981 362.428 417.251 363.511 417.531 365.229H410.862ZM421.287 370.552H422.912V365.995C422.912 364.893 423.006 364.333 423.23 363.866C423.716 362.951 424.687 362.484 426.126 362.484C427.433 362.484 428.199 362.858 428.498 363.661C428.666 364.071 428.704 364.426 428.704 365.453V370.552H430.31V365.267C430.31 363.81 430.254 363.287 430.03 362.783C429.563 361.718 428.368 361.121 426.667 361.121C424.93 361.121 423.959 361.625 422.912 363.044V361.382H421.287V370.552ZM437.021 369.338C436.629 369.431 436.386 369.45 435.919 369.45C435.003 369.45 434.798 369.263 434.798 368.348V362.633H437.077V361.382H434.798V358.898H433.191V361.382H431.641V362.633H433.191V368.386C433.21 369.562 433.21 369.674 433.359 369.954C433.64 370.552 434.331 370.814 435.601 370.814C436.143 370.814 436.479 370.776 437.021 370.683V369.338ZM446.057 367.881C445.609 368.946 444.638 369.506 443.199 369.506C441.163 369.506 440.004 368.498 439.724 366.481H448.112C448.075 365.211 448 364.725 447.701 363.978C446.973 362.148 445.273 361.065 443.124 361.065C440.173 361.065 438.043 363.194 438.043 366.126C438.043 368.965 440.06 370.87 443.087 370.87C445.366 370.87 447.104 369.768 447.813 367.881H446.057ZM439.724 365.229C439.967 364.464 440.173 363.997 440.453 363.623C441.013 362.876 442.003 362.428 443.087 362.428C444.843 362.428 446.113 363.511 446.394 365.229H439.724ZM450.149 370.552H451.775V365.976C451.775 364.912 451.961 364.277 452.428 363.754C453.045 363.082 453.867 362.727 454.82 362.727C455.175 362.727 455.436 362.764 455.903 362.858V361.214C455.548 361.139 455.362 361.121 455.063 361.121C454.222 361.121 453.456 361.382 452.914 361.886C452.503 362.241 452.204 362.671 451.775 363.53V361.382H450.149V370.552Z" fill="black"/>
<path d="M653.977 292.735H563.682V383.003H653.977V292.735Z" fill="#347A3B"/>
<path d="M605.476 334.445V327.821H589.235C589.932 326.576 590.729 325.929 594.117 323.887L596.11 322.692C601.042 319.753 602.088 318.956 603.831 316.914C605.177 315.371 605.924 313.329 605.924 311.287C605.924 305.36 600.842 301.476 593.17 301.476C588.238 301.476 584.353 302.97 581.961 305.759C580.218 307.751 579.57 309.693 579.221 313.528H587.591C587.641 311.785 587.79 310.988 588.288 310.141C589.085 308.697 590.829 307.85 592.822 307.85C595.362 307.85 597.206 309.344 597.206 311.486C597.206 312.93 596.558 314.026 595.113 315.022C594.117 315.769 594.117 315.769 590.63 317.761L587.84 319.405C581.065 323.239 579.52 325.979 579.221 334.445H605.476ZM625.07 301.476C621.384 301.476 617.996 302.721 615.505 305.012C612.317 307.9 610.673 312.482 610.673 318.359C610.673 328.768 616.203 335.192 625.12 335.192C633.938 335.192 639.567 328.718 639.567 318.608C639.567 312.432 637.973 308 634.735 305.012C632.194 302.671 628.906 301.476 625.07 301.476ZM625.12 307.85C629.006 307.85 631.497 311.984 631.497 318.409C631.497 320.799 630.999 323.439 630.152 325.331C629.205 327.423 627.212 328.817 625.12 328.817C623.028 328.817 621.035 327.423 620.088 325.331C619.242 323.389 618.743 320.799 618.743 318.309C618.743 312.034 621.284 307.85 625.12 307.85ZM605.476 374.91V368.286H589.235C589.932 367.041 590.729 366.394 594.117 364.352L596.11 363.156C601.042 360.218 602.088 359.421 603.831 357.379C605.177 355.835 605.924 353.793 605.924 351.752C605.924 345.825 600.842 341.94 593.17 341.94C588.238 341.94 584.353 343.434 581.961 346.223C580.218 348.216 579.57 350.158 579.221 353.993H587.591C587.641 352.25 587.79 351.453 588.288 350.606C589.085 349.162 590.829 348.315 592.822 348.315C595.362 348.315 597.206 349.809 597.206 351.951C597.206 353.395 596.558 354.491 595.113 355.487C594.117 356.234 594.117 356.234 590.63 358.226L587.84 359.869C581.065 363.704 579.52 366.443 579.221 374.91H605.476ZM638.023 374.91V368.286H621.782C622.48 367.041 623.277 366.394 626.664 364.352L628.657 363.156C633.589 360.218 634.635 359.421 636.379 357.379C637.724 355.835 638.471 353.793 638.471 351.752C638.471 345.825 633.39 341.94 625.718 341.94C620.786 341.94 616.9 343.434 614.509 346.223C612.765 348.216 612.117 350.158 611.769 353.993H620.138C620.188 352.25 620.338 351.453 620.836 350.606C621.633 349.162 623.376 348.315 625.369 348.315C627.91 348.315 629.753 349.809 629.753 351.951C629.753 353.395 629.105 354.491 627.661 355.487C626.664 356.234 626.664 356.234 623.177 358.226L620.387 359.869C613.612 363.704 612.068 366.443 611.769 374.91H638.023Z" fill="white"/>
</svg>
