<svg width="1152" height="700" viewBox="0 0 1152 700" fill="none" xmlns="http://www.w3.org/2000/svg">
<path d="M887.088 193.073H391.013C380.501 193.073 371.979 201.589 371.979 212.094V533.082C371.979 543.587 380.501 552.103 391.013 552.103H887.088C897.6 552.103 906.122 543.587 906.122 533.082V212.094C906.122 201.589 897.6 193.073 887.088 193.073Z" fill="#EC4F4F"/>
<path d="M863.295 175.24H357.703C349.162 175.24 342.238 182.16 342.238 190.695V500.983C342.238 509.518 349.162 516.438 357.703 516.438H863.295C871.836 516.438 878.76 509.518 878.76 500.983V190.695C878.76 182.16 871.836 175.24 863.295 175.24Z" fill="#FFE4B0"/>
<path d="M342.238 190.695C342.238 182.16 349.162 175.24 357.703 175.24H863.295C871.837 175.24 878.76 182.16 878.76 190.695C878.76 199.231 871.837 206.15 863.295 206.15H357.703C349.162 206.15 342.238 199.231 342.238 190.695Z" fill="white"/>
<path d="M343.428 191.884H878.76V206.15H343.428V191.884Z" fill="white"/>
<path d="M863.295 175.835H357.703C349.491 175.835 342.833 182.488 342.833 190.695V500.983C342.833 509.19 349.491 515.843 357.703 515.843H863.295C871.508 515.843 878.165 509.19 878.165 500.983V190.695C878.165 182.488 871.508 175.835 863.295 175.835Z" stroke="black"/>
<path d="M342.833 206.15H878.165" stroke="black"/>
<path d="M869.838 182.373L852.588 199.612M852.588 182.373L869.838 199.612L852.588 182.373Z" stroke="black"/>
<path d="M267.12 337.684C267.12 334.031 266.486 330.532 265.217 327.184C263.948 323.836 262.121 320.894 259.735 318.358C257.35 315.771 254.431 313.717 250.98 312.195C247.579 310.673 243.721 309.912 239.407 309.912C235.752 309.912 232.25 310.47 228.9 311.586C225.601 312.702 222.606 314.401 219.916 316.684C213.318 322.314 210.018 329.415 210.018 337.988C210.018 341.589 210.602 344.912 211.769 347.955C212.988 350.999 214.612 353.713 216.642 356.096C218.723 358.43 221.134 360.408 223.875 362.031C226.616 363.604 229.535 364.719 232.631 365.379C232.885 367.408 233.443 369.158 234.306 370.629C235.169 372.151 236.26 373.368 237.58 374.281C238.95 375.194 240.498 375.854 242.224 376.259C243.95 376.716 245.802 376.944 247.782 376.944C250.218 376.944 252.401 376.563 254.33 375.803C256.258 375.093 257.959 374.23 259.431 373.216L259.05 372.607C258.035 373.012 257.096 373.267 256.233 373.368C255.37 373.52 254.482 373.596 253.568 373.596C252.299 373.596 251.056 373.419 249.838 373.064C248.619 372.708 247.528 372.175 246.564 371.466C245.599 370.806 244.838 369.944 244.28 368.879C243.721 367.814 243.442 366.621 243.442 365.303C246.792 364.694 249.914 363.604 252.807 362.031C255.7 360.408 258.187 358.404 260.268 356.02C262.4 353.586 264.075 350.821 265.293 347.727C266.511 344.632 267.12 341.285 267.12 337.684ZM257.68 337.76C257.68 340.803 257.324 343.948 256.614 347.194C255.954 350.39 254.863 353.306 253.34 355.944C251.868 358.582 249.914 360.763 247.477 362.488C245.092 364.161 242.173 364.998 238.722 364.998C235.778 364.998 233.113 364.263 230.727 362.792C228.342 361.27 226.311 359.267 224.637 356.781C222.962 354.295 221.667 351.455 220.754 348.26C219.891 345.013 219.459 341.665 219.459 338.216C219.459 334.92 219.815 331.673 220.525 328.477C221.287 325.23 222.429 322.339 223.951 319.803C225.525 317.268 227.504 315.213 229.89 313.64C232.326 312.018 235.194 311.206 238.493 311.206C241.742 311.206 244.559 312.018 246.944 313.64C249.33 315.213 251.309 317.293 252.883 319.88C254.507 322.415 255.7 325.257 256.461 328.401C257.274 331.546 257.68 334.665 257.68 337.76ZM282.775 316.684C282.775 315.518 282.369 314.554 281.557 313.793C280.796 313.032 279.831 312.651 278.664 312.651C277.497 312.651 276.507 313.032 275.695 313.793C274.933 314.554 274.553 315.518 274.553 316.684C274.553 317.8 274.959 318.763 275.771 319.575C276.583 320.387 277.547 320.793 278.664 320.793C279.831 320.793 280.796 320.412 281.557 319.651C282.369 318.839 282.775 317.85 282.775 316.684ZM287.039 365.455V364.694C286.531 364.593 285.998 364.542 285.44 364.542C284.933 364.491 284.45 364.415 283.994 364.314C283.537 364.213 283.131 364.06 282.775 363.857C282.471 363.604 282.268 363.223 282.166 362.716V328.705H281.709L271.431 332.053V332.51C272.142 332.763 272.802 333.042 273.411 333.347C274.071 333.651 274.629 333.955 275.086 334.26C275.441 334.513 275.644 334.792 275.695 335.097C275.796 335.401 275.847 335.756 275.847 336.162V362.259C275.847 362.716 275.669 363.096 275.314 363.401C275.009 363.705 274.603 363.958 274.096 364.161C273.639 364.314 273.106 364.441 272.497 364.542C271.888 364.593 271.279 364.643 270.67 364.694V365.455H287.039ZM329.973 382.955V382.118C329.364 382.067 328.729 381.966 328.07 381.813C327.46 381.712 326.876 381.56 326.318 381.357C325.81 381.154 325.379 380.9 325.024 380.596C324.668 380.292 324.491 379.936 324.491 379.531V328.705H323.958L321.598 332.89H321.369C320.05 331.724 318.222 330.735 315.887 329.923C313.603 329.111 310.989 328.705 308.045 328.705C305.406 328.705 302.97 329.213 300.736 330.227C298.554 331.241 296.676 332.611 295.102 334.336C293.529 336.01 292.285 337.988 291.372 340.271C290.509 342.502 290.077 344.861 290.077 347.347C290.077 349.73 290.433 352.039 291.143 354.27C291.854 356.452 292.844 358.379 294.113 360.053C295.432 361.727 297.006 363.045 298.833 364.009C300.66 364.973 302.716 365.455 305 365.455C306.675 365.455 308.223 365.227 309.644 364.77C311.066 364.263 312.334 363.604 313.451 362.792C314.568 361.98 315.532 361.067 316.344 360.053C317.156 359.039 317.766 358.023 318.172 357.009L318.324 357.086C318.324 357.593 318.298 358.455 318.248 359.672C318.248 360.839 318.222 362.158 318.172 363.629C318.172 365.05 318.172 366.596 318.172 368.27C318.172 369.944 318.146 371.542 318.095 373.064C318.095 374.636 318.095 376.031 318.095 377.248C318.095 378.517 318.095 379.455 318.095 380.063C317.994 380.469 317.689 380.799 317.182 381.053C316.725 381.306 316.167 381.484 315.507 381.585C314.898 381.737 314.238 381.838 313.527 381.889C312.817 381.991 312.208 382.067 311.7 382.118V382.955H329.973ZM318.172 354.955C318.172 355.259 317.968 355.741 317.562 356.401C317.207 357.061 316.674 357.719 315.964 358.379C315.253 359.039 314.314 359.621 313.147 360.129C312.03 360.637 310.71 360.89 309.187 360.89C307.157 360.89 305.381 360.484 303.858 359.672C302.335 358.86 301.066 357.795 300.051 356.477C299.036 355.107 298.275 353.534 297.767 351.759C297.259 349.985 297.006 348.158 297.006 346.281C297.006 343.898 297.259 341.716 297.767 339.738C298.325 337.76 299.061 336.035 299.975 334.564C300.939 333.094 302.081 331.952 303.401 331.14C304.772 330.328 306.244 329.923 307.817 329.923C309.746 329.923 311.345 330.328 312.614 331.14C313.933 331.901 314.974 332.941 315.735 334.26C316.547 335.528 317.131 336.999 317.486 338.673C317.892 340.295 318.121 341.944 318.172 343.618C318.222 344.48 318.248 345.368 318.248 346.281C318.248 347.143 318.248 348.006 318.248 348.868C318.248 350.034 318.248 351.151 318.248 352.216C318.248 353.281 318.222 354.194 318.172 354.955ZM343.818 316.684C343.818 315.518 343.412 314.554 342.6 313.793C341.839 313.032 340.874 312.651 339.707 312.651C338.54 312.651 337.55 313.032 336.737 313.793C335.976 314.554 335.595 315.518 335.595 316.684C335.595 317.8 336.001 318.763 336.814 319.575C337.626 320.387 338.59 320.793 339.707 320.793C340.874 320.793 341.839 320.412 342.6 319.651C343.412 318.839 343.818 317.85 343.818 316.684ZM348.082 365.455V364.694C347.574 364.593 347.041 364.542 346.483 364.542C345.975 364.491 345.493 364.415 345.036 364.314C344.579 364.213 344.174 364.06 343.818 363.857C343.514 363.604 343.31 363.223 343.209 362.716V328.705H342.752L332.474 332.053V332.51C333.184 332.763 333.844 333.042 334.453 333.347C335.114 333.651 335.672 333.955 336.128 334.26C336.484 334.513 336.686 334.792 336.737 335.097C336.839 335.401 336.89 335.756 336.89 336.162V362.259C336.89 362.716 336.712 363.096 336.357 363.401C336.052 363.705 335.647 363.958 335.139 364.161C334.682 364.314 334.149 364.441 333.54 364.542C332.931 364.593 332.322 364.643 331.712 364.694V365.455H348.082ZM418.574 348.336L417.737 348.031C415.198 352.393 412.28 355.995 408.981 358.835C405.732 361.676 402.053 363.325 397.941 363.781C396.469 363.933 395.048 364.034 393.678 364.085C392.357 364.137 391.266 364.161 390.404 364.161C388.373 364.161 386.318 364.161 384.237 364.161C382.206 364.161 379.922 364.137 377.385 364.085L415.833 311.282L415.605 310.825C413.727 310.825 411.442 310.825 408.753 310.825C406.113 310.825 403.296 310.825 400.302 310.825C397.306 310.825 394.287 310.825 391.241 310.825C388.246 310.825 385.455 310.825 382.866 310.825C380.278 310.774 378.044 310.749 376.166 310.749C374.288 310.698 372.994 310.648 372.284 310.597L366.726 326.803L367.563 327.108C368.121 326.195 368.806 325.206 369.619 324.14C370.481 323.024 371.37 321.934 372.284 320.869C373.197 319.803 374.085 318.839 374.948 317.977C375.862 317.064 376.623 316.355 377.232 315.847C378.501 314.833 379.897 313.996 381.42 313.336C382.993 312.676 384.744 312.296 386.673 312.195C387.637 312.144 388.931 312.119 390.556 312.119C392.231 312.068 393.982 312.043 395.81 312.043C397.637 312.043 399.413 312.043 401.139 312.043C402.915 312.043 404.337 312.043 405.403 312.043L366.878 364.922L367.182 365.455H413.092L418.574 348.336ZM457.657 365.455V364.77C457.2 364.719 456.719 364.669 456.211 364.618C455.703 364.517 455.221 364.415 454.764 364.314C454.307 364.161 453.926 363.958 453.622 363.705C453.317 363.452 453.165 363.147 453.165 362.792V340.347C453.165 338.673 453.013 337.126 452.708 335.705C452.455 334.285 451.972 333.067 451.262 332.053C450.601 330.988 449.688 330.176 448.521 329.619C447.404 329.01 446.008 328.705 444.333 328.705C442.607 328.705 441.008 329.01 439.537 329.619C438.115 330.176 436.847 330.861 435.73 331.673C434.613 332.485 433.674 333.347 432.913 334.26C432.203 335.173 431.67 335.985 431.314 336.694L431.162 336.618L431.39 310.217H430.781L420.579 314.858V315.314C421.239 315.72 421.898 316.1 422.558 316.456C423.269 316.76 423.828 317.089 424.233 317.445C424.589 317.698 424.791 317.926 424.842 318.13C424.944 318.333 424.995 318.637 424.995 319.043V362.259C424.995 363.223 424.513 363.857 423.548 364.161C422.634 364.415 421.594 364.593 420.427 364.694V365.455H435.578V364.694C435.07 364.593 434.563 364.517 434.055 364.466C433.547 364.415 433.09 364.339 432.684 364.238C432.279 364.085 431.948 363.882 431.695 363.629C431.441 363.376 431.314 363.02 431.314 362.564V339.205C431.314 338.8 431.39 338.368 431.542 337.912C431.746 337.404 431.898 337.075 431.999 336.923C432.761 335.806 433.775 334.92 435.045 334.26C436.314 333.6 437.862 333.271 439.689 333.271C441.111 333.271 442.278 333.524 443.191 334.031C444.105 334.539 444.815 335.249 445.323 336.162C445.881 337.075 446.262 338.165 446.465 339.434C446.669 340.702 446.77 342.072 446.77 343.542V362.564C446.77 363.376 446.313 363.908 445.399 364.161C444.486 364.365 443.344 364.517 441.973 364.618V365.455H457.657ZM495.91 346.814C495.91 343.77 495.35 341.132 494.235 338.901C493.169 336.618 491.772 334.741 490.047 333.271C488.372 331.749 486.494 330.608 484.413 329.847C482.331 329.086 480.276 328.705 478.246 328.705C475.505 328.705 472.993 329.213 470.709 330.227C468.474 331.241 466.546 332.586 464.922 334.26C463.348 335.934 462.105 337.861 461.192 340.042C460.328 342.224 459.897 344.48 459.897 346.814C459.897 350.061 460.455 352.901 461.572 355.336C462.739 357.719 464.211 359.697 465.988 361.27C467.815 362.792 469.795 363.908 471.927 364.618C474.059 365.328 476.114 365.683 478.094 365.683C480.479 365.683 482.738 365.202 484.87 364.238C487.052 363.273 488.955 361.93 490.58 360.205C492.204 358.48 493.498 356.477 494.463 354.194C495.427 351.861 495.91 349.401 495.91 346.814ZM488.829 346.738C488.829 348.513 488.626 350.441 488.22 352.52C487.864 354.6 487.255 356.553 486.393 358.379C485.58 360.154 484.489 361.651 483.119 362.868C481.798 364.034 480.149 364.618 478.17 364.618C476.19 364.618 474.489 364.161 473.069 363.248C471.647 362.284 470.48 361.017 469.566 359.444C468.653 357.821 467.993 355.969 467.587 353.89C467.18 351.811 466.978 349.604 466.978 347.27C466.978 345.14 467.206 343.061 467.663 341.031C468.17 338.952 468.881 337.1 469.795 335.477C470.758 333.803 471.901 332.459 473.221 331.445C474.54 330.43 476.038 329.923 477.713 329.923C479.794 329.923 481.545 330.48 482.966 331.597C484.387 332.662 485.529 334.031 486.393 335.705C487.255 337.379 487.864 339.205 488.22 341.184C488.626 343.162 488.829 345.013 488.829 346.738ZM535.861 363.553V363.096C535.252 362.843 534.49 362.513 533.577 362.107C532.714 361.702 532.054 361.371 531.597 361.118C531.242 360.865 531.013 360.637 530.912 360.433C530.861 360.23 530.836 359.926 530.836 359.52V329.466H518.045V330.303C519.162 330.404 520.228 330.532 521.243 330.684C522.309 330.836 523.146 331.039 523.755 331.292C524.06 331.698 524.263 332.306 524.364 333.118C524.465 333.879 524.517 334.513 524.517 335.021V356.705C524.06 357.314 523.552 357.897 522.994 358.455C522.486 359.013 521.903 359.52 521.243 359.977C520.634 360.382 519.923 360.738 519.111 361.042C518.35 361.295 517.436 361.422 516.37 361.422C513.578 361.422 511.675 360.637 510.66 359.064C509.645 357.441 509.137 354.955 509.137 351.607V329.466H497.336V330.303C497.793 330.354 498.275 330.404 498.783 330.455C499.291 330.455 499.772 330.507 500.229 330.608C500.686 330.709 501.092 330.861 501.447 331.064C501.853 331.267 502.158 331.597 502.361 332.053C502.462 332.205 502.513 332.459 502.513 332.814C502.564 333.118 502.614 333.474 502.665 333.879C502.717 334.235 502.742 334.589 502.742 334.945C502.742 335.3 502.742 335.578 502.742 335.781V354.346C502.742 358.05 503.503 360.865 505.026 362.792C506.6 364.719 509.01 365.683 512.259 365.683C513.68 365.683 515 365.455 516.218 364.998C517.487 364.542 518.629 363.933 519.644 363.172C520.659 362.36 521.572 361.474 522.385 360.509C523.197 359.545 523.882 358.632 524.44 357.77L524.517 357.846V365.531H525.05L535.861 363.553Z" fill="#EC4F4F"/>
<path d="M640.549 150.18C634.902 148.848 629.319 147.612 623.799 146.47C623.99 144.505 624.085 142.634 624.085 140.859C624.085 139.401 623.927 137.213 623.609 134.297C623.291 131.317 623.133 129.097 623.133 127.639C623.133 121.806 625.069 112.454 628.938 99.5825L654.825 95.7782C658.632 95.2709 661.614 95.0173 663.771 95.0173C673.034 95.0173 677.666 99.3289 677.666 107.952C677.666 112.644 676.175 117.621 673.193 122.884C670.591 127.449 667.292 131.539 663.295 135.153C659.932 138.133 657.141 139.623 654.92 139.623C654.476 139.623 653.049 139.337 650.637 138.767C650.003 138.64 649.019 138.481 647.687 138.291C645.784 137.847 643.151 137.245 639.788 136.484L640.549 150.18ZM656.728 116.607C656.728 114.387 655.364 113.278 652.636 113.278C651.747 113.278 648.702 113.69 643.499 114.514C642.485 117.685 641.152 122.44 639.502 128.78C640.01 128.971 640.549 129.066 641.12 129.066C641.628 129.066 642.611 128.939 644.071 128.685C647.434 128.051 649.971 127.164 651.684 126.022C653.841 124.564 655.364 122.377 656.252 119.46C656.57 118.382 656.728 117.431 656.728 116.607ZM732.369 129.636C732.369 134.772 729.958 138.64 725.136 141.239C721.265 143.332 716.507 144.378 710.861 144.378C704.58 144.378 698.71 143.427 693.254 141.525C688.94 140.066 685.355 138.069 682.5 135.533C679.01 132.426 677.266 128.907 677.266 124.976C677.266 124.088 677.361 123.201 677.551 122.313C678.884 116.607 682.976 112.485 689.828 109.949C693.825 108.427 699.884 107.254 708.006 106.43C708.958 106.367 709.845 106.335 710.671 106.335C720.441 106.335 727.198 112.137 730.942 123.74C731.894 126.72 732.369 128.685 732.369 129.636ZM696.776 126.593C696.776 132.426 700.012 135.343 706.483 135.343C711.685 135.343 714.287 131.982 714.287 125.261C714.287 118.794 711.242 115.561 705.151 115.561C702.296 115.561 700.138 116.734 698.679 119.079C697.41 121.045 696.776 123.55 696.776 126.593ZM771.659 147.897C770.708 139.02 769.725 130.841 768.709 123.359C766.552 123.486 764.395 123.645 762.237 123.835C759.066 134.931 756.527 143.49 754.624 149.514C747.391 150.275 740.032 151.131 732.544 152.082C740.095 129.193 746.629 106.557 752.149 84.1751C761.731 83.7947 770.359 83.6045 778.036 83.6045C783.492 83.6045 787.172 83.6996 789.075 83.8898C793.327 84.4604 796.721 85.7286 799.259 87.6941C802.749 90.3571 804.493 94.098 804.493 98.9167C804.493 107.92 799.608 114.546 789.837 118.794C790.979 124.944 792.692 134.138 794.976 146.375C787.362 146.756 779.59 147.263 771.659 147.897ZM784.412 101.485C784.412 98.4412 782.383 96.9195 778.321 96.9195C776.926 96.9195 773.817 97.0146 768.994 97.2048C768.36 99.9312 767.346 104.053 765.949 109.569C767.726 109.505 770.201 109.41 773.372 109.283C780.733 108.903 784.412 106.303 784.412 101.485ZM831.403 147.707C826.772 147.009 822.077 146.407 817.318 145.9C818.27 132.014 818.746 118.255 818.746 104.623V104.053C815.51 103.419 812.306 102.816 809.134 102.245C809.197 98.5046 809.197 94.2565 809.134 89.5011C818.397 91.4666 828.421 93.9394 839.207 96.9195L839.874 108.998C837.019 108.237 834.226 107.508 831.499 106.811C831.752 114.483 831.879 121.14 831.879 126.783C831.879 132.997 831.721 139.971 831.403 147.707Z" fill="#4A5AEC"/>
<path d="M872.236 142.286C862.91 142.159 853.615 141.905 844.351 141.525C845.113 137.594 846.034 132.553 847.111 126.403C856.565 126.72 866.05 126.91 875.567 126.973C874.615 131.158 873.506 136.262 872.236 142.286Z" fill="#EC4F4F"/>
<path d="M366.792 605.553L360.796 626.096C360.162 626.667 358.893 626.952 356.99 626.952C357.053 626.952 352.294 626.54 342.714 625.716C344.3 612.401 346.363 592.524 348.9 566.084C352.454 566.401 359.02 567.257 368.6 568.652C375.896 569.73 381.163 570.269 384.399 570.269C388.967 570.269 391.917 569.38 393.249 567.606C392.235 570.396 390.775 574.611 388.872 580.255C387.73 580.508 385.413 581.174 381.924 582.252C379.387 583.14 376.912 583.584 374.501 583.584C373.296 583.584 371.963 583.521 370.504 583.393C370.313 587.198 370.06 590.431 369.742 593.094C371.519 592.904 373.644 592.492 376.119 591.858C378.15 591.287 380.211 590.717 382.305 590.146C380.845 594.964 379.545 599.054 378.403 602.415L366.792 605.553ZM446.45 593.284C446.45 598.42 444.038 602.288 439.217 604.888C435.347 606.98 430.588 608.026 424.941 608.026C418.66 608.026 412.791 607.075 407.335 605.173C403.02 603.714 399.436 601.717 396.58 599.181C393.091 596.075 391.346 592.556 391.346 588.624C391.346 587.736 391.441 586.849 391.632 585.961C392.964 580.255 397.056 576.133 403.909 573.597C407.906 572.076 413.964 570.902 422.086 570.078C423.038 570.015 423.926 569.983 424.751 569.983C434.521 569.983 441.278 575.785 445.022 587.388C445.974 590.368 446.45 592.333 446.45 593.284ZM410.856 590.241C410.856 596.075 414.092 598.991 420.563 598.991C425.766 598.991 428.367 595.63 428.367 588.91C428.367 582.442 425.322 579.209 419.231 579.209C416.376 579.209 414.219 580.382 412.759 582.728C411.49 584.693 410.856 587.198 410.856 590.241ZM482.32 616.871C472.55 619.217 461.13 622.229 448.059 625.906C450.661 620.707 452.247 613.67 452.818 604.792C452.945 602.573 453.008 595.187 453.008 582.632C453.008 573.692 453.357 566.274 454.055 560.377L473.945 563.231C473.502 566.782 473.279 571.092 473.279 576.165C473.279 577.75 473.311 580.128 473.374 583.298C473.437 586.469 473.47 588.847 473.47 590.431C473.47 601.273 471.629 608.184 467.95 611.165C474.992 609.39 481.591 607.804 487.745 606.409C487.364 607.17 485.556 610.657 482.32 616.871ZM511.999 615.92C505.083 615.54 498.295 615.286 491.633 615.159C496.137 590.304 500.261 569.73 504.005 553.435C510.159 553.181 516.408 553.022 522.753 552.959C519.834 567.669 516.25 588.656 511.999 615.92ZM578.052 593.284C578.052 598.42 575.641 602.288 570.819 604.888C566.949 606.98 562.191 608.026 556.544 608.026C550.262 608.026 544.394 607.075 538.937 605.173C534.622 603.714 531.038 601.717 528.183 599.181C524.694 596.075 522.949 592.556 522.949 588.624C522.949 587.736 523.044 586.849 523.234 585.961C524.566 580.255 528.659 576.133 535.511 573.597C539.508 572.076 545.567 570.902 553.689 570.078C554.64 570.015 555.529 569.983 556.353 569.983C566.124 569.983 572.881 575.785 576.625 587.388C577.576 590.368 578.052 592.333 578.052 593.284ZM542.458 590.241C542.458 596.075 545.694 598.991 552.166 598.991C557.368 598.991 559.97 595.63 559.97 588.91C559.97 582.442 556.924 579.209 550.833 579.209C547.978 579.209 545.822 580.382 544.362 582.728C543.093 584.693 542.458 587.198 542.458 590.241Z" fill="#4A5AEC"/>
<path d="M943 359.511H833.554V468.884H943V359.511Z" fill="#347A3B"/>
<path d="M884.273 410.631V402.725H864.882C865.715 401.239 866.666 400.466 870.711 398.029L873.09 396.603C878.979 393.096 880.228 392.144 882.31 389.707C883.916 387.865 884.808 385.427 884.808 382.99C884.808 375.917 878.741 371.28 869.581 371.28C863.692 371.28 859.053 373.064 856.198 376.392C854.116 378.77 853.343 381.088 852.926 385.665H862.919C862.979 383.585 863.157 382.634 863.752 381.623C864.703 379.899 866.785 378.889 869.165 378.889C872.198 378.889 874.399 380.672 874.399 383.228C874.399 384.952 873.626 386.26 871.901 387.448C870.711 388.34 870.711 388.34 866.547 390.718L863.217 392.679C855.127 397.256 853.283 400.526 852.926 410.631H884.273ZM907.668 371.28C903.266 371.28 899.222 372.766 896.248 375.501C892.441 378.948 890.478 384.417 890.478 391.431C890.478 403.855 897.08 411.523 907.728 411.523C918.256 411.523 924.977 403.795 924.977 391.728C924.977 384.358 923.074 379.067 919.207 375.501C916.174 372.707 912.248 371.28 907.668 371.28ZM907.728 378.889C912.367 378.889 915.341 383.823 915.341 391.491C915.341 394.344 914.746 397.494 913.735 399.753C912.605 402.25 910.226 403.914 907.728 403.914C905.229 403.914 902.85 402.25 901.72 399.753C900.709 397.435 900.114 394.344 900.114 391.372C900.114 383.882 903.147 378.889 907.728 378.889ZM884.273 458.185V450.279H864.882C865.715 448.793 866.666 448.02 870.711 445.583L873.09 444.156C878.979 440.649 880.228 439.698 882.31 437.261C883.916 435.418 884.808 432.981 884.808 430.544C884.808 423.47 878.741 418.834 869.581 418.834C863.692 418.834 859.053 420.617 856.198 423.946C854.116 426.324 853.343 428.642 852.926 433.219H862.919C862.979 431.138 863.157 430.187 863.752 429.177C864.703 427.453 866.785 426.442 869.165 426.442C872.198 426.442 874.399 428.226 874.399 430.782C874.399 432.506 873.626 433.813 871.901 435.002C870.711 435.894 870.711 435.894 866.547 438.271L863.217 440.233C855.127 444.81 853.283 448.079 852.926 458.185H884.273ZM923.133 458.185V450.279H903.742C904.575 448.793 905.527 448.02 909.572 445.583L911.951 444.156C917.839 440.649 919.089 439.698 921.17 437.261C922.776 435.418 923.669 432.981 923.669 430.544C923.669 423.47 917.601 418.834 908.441 418.834C902.553 418.834 897.913 420.617 895.058 423.946C892.976 426.324 892.203 428.642 891.787 433.219H901.779C901.839 431.138 902.017 430.187 902.612 429.177C903.564 427.453 905.646 426.442 908.025 426.442C911.058 426.442 913.259 428.226 913.259 430.782C913.259 432.506 912.486 433.813 910.761 435.002C909.572 435.894 909.572 435.894 905.408 438.271L902.077 440.233C893.987 444.81 892.143 448.079 891.787 458.185H923.133Z" fill="white"/>
</svg>
