<svg width="385" height="512" viewBox="0 0 385 512" fill="none" xmlns="http://www.w3.org/2000/svg">
<rect x="0.719727" y="0.306152" width="383.599" height="510.85" rx="47" fill="#CED7FF"/>
<path d="M121.76 67.3264H130.3L131.875 72.2964H136.67L128.76 48.9514H123.615L115.39 72.2964H120.185L121.76 67.3264ZM122.81 63.9314L126.03 53.4664L129.285 63.9314H122.81ZM138.889 55.2514V72.2964H143.159V63.6514C143.159 60.5364 144.909 58.6114 147.779 58.6114C147.919 58.6114 148.234 58.6114 148.514 58.6464V54.9714C147.954 54.9014 147.709 54.9014 147.394 54.9014C145.714 54.9014 144.314 55.7764 143.159 57.5964V55.2514H138.889ZM156.805 55.2514V49.5814H152.535V55.2514H150.155V57.9464H152.535V66.5914C152.535 68.1314 152.57 68.8314 152.71 69.4964C152.955 70.7564 153.585 71.5614 154.74 72.0164C155.335 72.2614 155.65 72.2964 157.225 72.2964H160.27V69.1464L159.92 69.1814L158.73 69.2164C158.03 69.2164 157.435 69.0064 157.155 68.6214C156.875 68.2714 156.805 67.8864 156.805 66.5914V57.9464H160.025V55.2514H156.805ZM163.191 48.8464V52.7314H167.461V48.8464H163.191ZM163.191 55.2514V72.2964H167.461V55.2514H163.191ZM185.103 60.3264C184.753 56.8964 181.988 54.7964 177.823 54.7964C173.833 54.7964 170.998 57.0714 170.998 60.2914C170.998 61.7614 171.698 63.0214 173.063 63.8964C174.148 64.5964 176.003 65.1564 178.698 65.6464C180.973 66.0314 181.603 66.4164 181.603 67.4664C181.603 68.7614 180.308 69.6014 178.348 69.6014C176.108 69.6014 174.883 68.7264 174.533 66.8364H170.613C170.998 70.6164 173.798 72.7514 178.383 72.7514C182.723 72.7514 185.628 70.5114 185.628 67.1864C185.628 65.6464 185.033 64.3514 184.018 63.5114C183.073 62.7764 182.023 62.4264 179.573 62.0064C177.193 61.5864 176.423 61.4114 175.793 61.1314C175.233 60.8864 174.883 60.4314 174.883 59.9064C174.883 58.7514 176.143 57.9464 177.963 57.9464C179.853 57.9464 180.938 58.7164 181.358 60.3264H185.103ZM193.616 55.2514V49.5814H189.346V55.2514H186.966V57.9464H189.346V66.5914C189.346 68.1314 189.381 68.8314 189.521 69.4964C189.766 70.7564 190.396 71.5614 191.551 72.0164C192.146 72.2614 192.461 72.2964 194.036 72.2964H197.081V69.1464L196.731 69.1814L195.541 69.2164C194.841 69.2164 194.246 69.0064 193.966 68.6214C193.686 68.2714 193.616 67.8864 193.616 66.5914V57.9464H196.836V55.2514H193.616ZM209.032 72.2964H213.652V62.3214H224.012V58.6464H213.652V52.6264H225.727V48.9514H209.032V72.2964ZM228.816 48.8464V52.7314H233.086V48.8464H228.816ZM228.816 55.2514V72.2964H233.086V55.2514H228.816ZM237.463 55.2514V72.2964H241.733V63.6514C241.733 60.5364 243.483 58.6114 246.353 58.6114C246.493 58.6114 246.808 58.6114 247.088 58.6464V54.9714C246.528 54.9014 246.283 54.9014 245.968 54.9014C244.288 54.9014 242.888 55.7764 241.733 57.5964V55.2514H237.463ZM263.306 60.3264C262.956 56.8964 260.191 54.7964 256.026 54.7964C252.036 54.7964 249.201 57.0714 249.201 60.2914C249.201 61.7614 249.901 63.0214 251.266 63.8964C252.351 64.5964 254.206 65.1564 256.901 65.6464C259.176 66.0314 259.806 66.4164 259.806 67.4664C259.806 68.7614 258.511 69.6014 256.551 69.6014C254.311 69.6014 253.086 68.7264 252.736 66.8364H248.816C249.201 70.6164 252.001 72.7514 256.586 72.7514C260.926 72.7514 263.831 70.5114 263.831 67.1864C263.831 65.6464 263.236 64.3514 262.221 63.5114C261.276 62.7764 260.226 62.4264 257.776 62.0064C255.396 61.5864 254.626 61.4114 253.996 61.1314C253.436 60.8864 253.086 60.4314 253.086 59.9064C253.086 58.7514 254.346 57.9464 256.166 57.9464C258.056 57.9464 259.141 58.7164 259.561 60.3264H263.306ZM271.819 55.2514V49.5814H267.549V55.2514H265.169V57.9464H267.549V66.5914C267.549 68.1314 267.584 68.8314 267.724 69.4964C267.969 70.7564 268.599 71.5614 269.754 72.0164C270.349 72.2614 270.664 72.2964 272.239 72.2964H275.284V69.1464L274.934 69.1814L273.744 69.2164C273.044 69.2164 272.449 69.0064 272.169 68.6214C271.889 68.2714 271.819 67.8864 271.819 66.5914V57.9464H275.039V55.2514H271.819Z" fill="black"/>
<path d="M37.9853 177.441C35.6453 177.441 33.7853 179.271 33.7853 181.611C33.7853 183.891 35.6453 185.751 37.9553 185.751C40.2353 185.751 42.0953 183.891 42.0953 181.611C42.0953 179.331 40.2353 177.441 37.9853 177.441ZM60.6202 191.781H63.5602L66.0502 186.081H76.1902L78.8302 191.781H81.8602L72.6502 171.771H69.3802L60.6202 191.781ZM67.1302 183.621L71.0002 174.501L75.1702 183.621H67.1302ZM84.0413 191.781H86.6513V184.431C86.6513 182.721 86.9513 181.701 87.7013 180.861C88.6913 179.781 90.0113 179.211 91.5413 179.211C92.1113 179.211 92.5313 179.271 93.2813 179.421V176.781C92.7113 176.661 92.4113 176.631 91.9313 176.631C90.5813 176.631 89.3513 177.051 88.4813 177.861C87.8213 178.431 87.3413 179.121 86.6513 180.501V177.051H84.0413V191.781ZM103.448 189.831C102.818 189.981 102.428 190.011 101.678 190.011C100.208 190.011 99.8775 189.711 99.8775 188.241V179.061H103.538V177.051H99.8775V173.061H97.2975V177.051H94.8075V179.061H97.2975V188.301C97.3275 190.191 97.3275 190.371 97.5675 190.821C98.0175 191.781 99.1275 192.201 101.168 192.201C102.038 192.201 102.578 192.141 103.448 191.991V189.831ZM106.308 191.781H108.888V177.051H106.308V191.781ZM106.308 174.591H108.888V171.771H106.308V174.591ZM111.909 187.281C112.029 190.521 114.729 192.291 119.589 192.291C123.999 192.291 126.819 190.431 126.819 187.491C126.819 185.751 125.889 184.611 123.999 183.951C122.859 183.561 121.719 183.351 119.229 183.021C116.109 182.631 115.209 182.181 115.209 180.891C115.209 179.571 116.739 178.761 119.169 178.761C120.519 178.761 121.689 179.061 122.559 179.631C123.219 180.051 123.519 180.531 123.729 181.521H126.249C126.129 179.991 125.769 179.151 124.899 178.311C123.609 177.111 121.839 176.541 119.349 176.541C117.249 176.541 115.749 176.901 114.459 177.681C113.169 178.461 112.359 179.871 112.359 181.311C112.359 182.661 113.049 183.771 114.279 184.461C115.209 184.971 116.019 185.151 118.779 185.541C120.999 185.841 122.139 186.051 122.679 186.231C123.579 186.561 123.969 187.071 123.969 187.851C123.969 189.261 122.349 190.101 119.619 190.101C117.759 190.101 116.199 189.681 115.449 189.021C114.939 188.571 114.729 188.121 114.579 187.281H111.909ZM136.787 189.831C136.157 189.981 135.767 190.011 135.017 190.011C133.547 190.011 133.217 189.711 133.217 188.241V179.061H136.877V177.051H133.217V173.061H130.637V177.051H128.147V179.061H130.637V188.301C130.667 190.191 130.667 190.371 130.907 190.821C131.357 191.781 132.467 192.201 134.507 192.201C135.377 192.201 135.917 192.141 136.787 191.991V189.831ZM138.627 187.281C138.747 190.521 141.447 192.291 146.307 192.291C150.717 192.291 153.537 190.431 153.537 187.491C153.537 185.751 152.607 184.611 150.717 183.951C149.577 183.561 148.437 183.351 145.947 183.021C142.827 182.631 141.927 182.181 141.927 180.891C141.927 179.571 143.457 178.761 145.887 178.761C147.237 178.761 148.407 179.061 149.277 179.631C149.937 180.051 150.237 180.531 150.447 181.521H152.967C152.847 179.991 152.487 179.151 151.617 178.311C150.327 177.111 148.557 176.541 146.067 176.541C143.967 176.541 142.467 176.901 141.177 177.681C139.887 178.461 139.077 179.871 139.077 181.311C139.077 182.661 139.767 183.771 140.997 184.461C141.927 184.971 142.737 185.151 145.497 185.541C147.717 185.841 148.857 186.051 149.397 186.231C150.297 186.561 150.687 187.071 150.687 187.851C150.687 189.261 149.067 190.101 146.337 190.101C144.477 190.101 142.917 189.681 142.167 189.021C141.657 188.571 141.447 188.121 141.297 187.281H138.627ZM164.022 191.781H166.602V184.131C166.602 182.901 166.752 182.061 167.052 181.401C167.802 179.871 169.752 178.821 171.882 178.821C174.672 178.821 176.112 180.321 176.112 183.291V191.781H178.692V183.201C178.692 181.011 178.602 180.351 178.242 179.511C177.462 177.681 175.392 176.631 172.632 176.631C169.902 176.631 168.012 177.591 166.602 179.721V171.591H164.022V191.781ZM198.882 189.711C198.522 189.741 198.372 189.771 198.222 189.771C196.962 189.771 196.632 189.411 196.632 188.121V182.151C196.632 179.571 196.332 178.671 195.192 177.801C194.112 176.961 192.312 176.541 189.642 176.541C185.022 176.541 182.712 178.131 182.262 181.611H184.992C185.262 179.541 186.552 178.761 189.732 178.761C192.462 178.761 193.992 179.601 193.992 181.101C193.992 182.151 193.332 182.631 191.742 182.811C187.932 183.231 186.882 183.351 186.372 183.411C183.282 183.951 181.722 185.391 181.722 187.731C181.722 190.521 184.062 192.291 187.692 192.291C190.632 192.291 192.792 191.301 194.052 189.351C194.292 191.091 195.282 191.871 197.142 191.871C198.012 191.871 198.312 191.811 198.882 191.571V189.711ZM194.112 184.011C194.112 185.211 193.992 186.471 193.782 187.041C193.182 188.721 190.662 190.101 188.202 190.101C186.132 190.101 184.572 189.081 184.572 187.731C184.572 187.191 184.872 186.591 185.352 186.231C185.832 185.841 186.492 185.631 187.992 185.391C192.612 184.611 192.612 184.611 194.112 184.011ZM198.488 177.051L205.178 191.781H207.848L214.808 177.051H211.928L206.588 188.751L201.458 177.051H198.488ZM228.408 187.491C227.688 189.201 226.128 190.101 223.818 190.101C220.548 190.101 218.688 188.481 218.238 185.241H231.708C231.648 183.201 231.528 182.421 231.048 181.221C229.878 178.281 227.148 176.541 223.698 176.541C218.958 176.541 215.538 179.961 215.538 184.671C215.538 189.231 218.778 192.291 223.638 192.291C227.298 192.291 230.088 190.521 231.228 187.491H228.408ZM218.238 183.231C218.628 182.001 218.958 181.251 219.408 180.651C220.308 179.451 221.898 178.731 223.638 178.731C226.458 178.731 228.498 180.471 228.948 183.231H218.238ZM249.229 189.831C248.599 189.981 248.209 190.011 247.459 190.011C245.989 190.011 245.659 189.711 245.659 188.241V179.061H249.319V177.051H245.659V173.061H243.079V177.051H240.589V179.061H243.079V188.301C243.109 190.191 243.109 190.371 243.349 190.821C243.799 191.781 244.909 192.201 246.949 192.201C247.819 192.201 248.359 192.141 249.229 191.991V189.831ZM252.059 191.781H254.639V184.131C254.639 182.901 254.789 182.061 255.089 181.401C255.839 179.871 257.789 178.821 259.919 178.821C262.709 178.821 264.149 180.321 264.149 183.291V191.781H266.729V183.201C266.729 181.011 266.639 180.351 266.279 179.511C265.499 177.681 263.429 176.631 260.669 176.631C257.939 176.631 256.049 177.591 254.639 179.721V171.591H252.059V191.781ZM282.93 187.491C282.21 189.201 280.65 190.101 278.34 190.101C275.07 190.101 273.21 188.481 272.76 185.241H286.23C286.17 183.201 286.05 182.421 285.57 181.221C284.4 178.281 281.67 176.541 278.22 176.541C273.48 176.541 270.06 179.961 270.06 184.671C270.06 189.231 273.3 192.291 278.16 192.291C281.82 192.291 284.61 190.521 285.75 187.491H282.93ZM272.76 183.231C273.15 182.001 273.48 181.251 273.93 180.651C274.83 179.451 276.42 178.731 278.16 178.731C280.98 178.731 283.02 180.471 283.47 183.231H272.76ZM62.4202 231.781H65.0302V224.431C65.0302 222.721 65.3302 221.701 66.0802 220.861C67.0702 219.781 68.3902 219.211 69.9202 219.211C70.4902 219.211 70.9102 219.271 71.6602 219.421V216.781C71.0902 216.661 70.7902 216.631 70.3102 216.631C68.9602 216.631 67.7302 217.051 66.8602 217.861C66.2002 218.431 65.7202 219.121 65.0302 220.501V217.051H62.4202V231.781ZM74.1689 231.781H76.7489V217.051H74.1689V231.781ZM74.1689 214.591H76.7489V211.771H74.1689V214.591ZM94.11 217.051V219.511C92.43 217.411 90.75 216.631 87.96 216.631C83.19 216.631 80.04 219.691 80.04 224.311C80.04 228.601 83.28 231.481 88.17 231.481C89.7 231.481 90.99 231.181 92.16 230.521C93.09 230.011 93.51 229.561 94.11 228.541C94.05 230.701 93.96 231.481 93.66 232.231C92.97 233.941 91.2 234.751 88.17 234.751C85.47 234.751 84.18 234.121 83.67 232.561H80.85C81.45 235.681 83.64 236.941 88.35 236.941C91.98 236.941 94.26 236.101 95.61 234.241C96.48 233.071 96.72 231.991 96.72 229.171V217.051H94.11ZM88.53 218.821C91.89 218.821 94.14 220.891 94.14 223.981C94.14 227.071 91.77 229.291 88.44 229.291C84.93 229.291 82.89 227.371 82.89 224.011C82.89 220.891 85.14 218.821 88.53 218.821ZM100.74 231.781H103.32V224.131C103.32 222.901 103.47 222.061 103.77 221.401C104.52 219.871 106.47 218.821 108.6 218.821C111.39 218.821 112.83 220.321 112.83 223.291V231.781H115.41V223.201C115.41 221.011 115.32 220.351 114.96 219.511C114.18 217.681 112.11 216.631 109.35 216.631C106.62 216.631 104.73 217.591 103.32 219.721V211.591H100.74V231.781ZM126.211 229.831C125.581 229.981 125.191 230.011 124.441 230.011C122.971 230.011 122.641 229.711 122.641 228.241V219.061H126.301V217.051H122.641V213.061H120.061V217.051H117.571V219.061H120.061V228.301C120.091 230.191 120.091 230.371 120.331 230.821C120.781 231.781 121.891 232.201 123.931 232.201C124.801 232.201 125.341 232.141 126.211 231.991V229.831ZM128.051 227.281C128.171 230.521 130.871 232.291 135.731 232.291C140.141 232.291 142.961 230.431 142.961 227.491C142.961 225.751 142.031 224.611 140.141 223.951C139.001 223.561 137.861 223.351 135.371 223.021C132.251 222.631 131.351 222.181 131.351 220.891C131.351 219.571 132.881 218.761 135.311 218.761C136.661 218.761 137.831 219.061 138.701 219.631C139.361 220.051 139.661 220.531 139.871 221.521H142.391C142.271 219.991 141.911 219.151 141.041 218.311C139.751 217.111 137.981 216.541 135.491 216.541C133.391 216.541 131.891 216.901 130.601 217.681C129.311 218.461 128.501 219.871 128.501 221.311C128.501 222.661 129.191 223.771 130.421 224.461C131.351 224.971 132.161 225.151 134.921 225.541C137.141 225.841 138.281 226.051 138.821 226.231C139.721 226.561 140.111 227.071 140.111 227.851C140.111 229.261 138.491 230.101 135.761 230.101C133.901 230.101 132.341 229.681 131.591 229.021C131.081 228.571 130.871 228.121 130.721 227.281H128.051ZM160.196 229.831C159.566 229.981 159.176 230.011 158.426 230.011C156.956 230.011 156.626 229.711 156.626 228.241V219.061H160.286V217.051H156.626V213.061H154.046V217.051H151.556V219.061H154.046V228.301C154.076 230.191 154.076 230.371 154.316 230.821C154.766 231.781 155.876 232.201 157.916 232.201C158.786 232.201 159.326 232.141 160.196 231.991V229.831ZM170.387 216.541C165.347 216.541 161.837 219.721 161.837 224.341C161.837 229.081 165.287 232.291 170.357 232.291C175.367 232.291 178.847 229.141 178.847 224.611C178.847 219.751 175.487 216.541 170.387 216.541ZM170.447 218.731C173.777 218.731 175.997 221.011 175.997 224.461C175.997 227.881 173.807 230.101 170.447 230.101C168.797 230.101 167.297 229.561 166.247 228.571C165.167 227.581 164.687 226.291 164.687 224.431C164.687 221.041 167.027 218.731 170.447 218.731ZM196.377 229.831C195.747 229.981 195.357 230.011 194.607 230.011C193.137 230.011 192.807 229.711 192.807 228.241V219.061H196.467V217.051H192.807V213.061H190.227V217.051H187.737V219.061H190.227V228.301C190.257 230.191 190.257 230.371 190.497 230.821C190.947 231.781 192.057 232.201 194.097 232.201C194.967 232.201 195.507 232.141 196.377 231.991V229.831ZM199.207 231.781H201.787V224.131C201.787 222.901 201.937 222.061 202.237 221.401C202.987 219.871 204.937 218.821 207.067 218.821C209.857 218.821 211.297 220.321 211.297 223.291V231.781H213.877V223.201C213.877 221.011 213.787 220.351 213.427 219.511C212.647 217.681 210.577 216.631 207.817 216.631C205.087 216.631 203.197 217.591 201.787 219.721V211.591H199.207V231.781ZM230.078 227.491C229.358 229.201 227.798 230.101 225.488 230.101C222.218 230.101 220.358 228.481 219.908 225.241H233.378C233.318 223.201 233.198 222.421 232.718 221.221C231.548 218.281 228.818 216.541 225.368 216.541C220.628 216.541 217.208 219.961 217.208 224.671C217.208 229.231 220.448 232.291 225.308 232.291C228.968 232.291 231.758 230.521 232.898 227.491H230.078ZM219.908 223.231C220.298 222.001 220.628 221.251 221.078 220.651C221.978 219.451 223.568 218.731 225.308 218.731C228.128 218.731 230.168 220.471 230.618 223.231H219.908ZM236.679 231.781H239.259V217.051H236.679V231.781ZM236.679 214.591H239.259V211.771H236.679V214.591ZM243.27 231.781H245.88V224.431C245.88 222.721 246.18 221.701 246.93 220.861C247.92 219.781 249.24 219.211 250.77 219.211C251.34 219.211 251.76 219.271 252.51 219.421V216.781C251.94 216.661 251.64 216.631 251.16 216.631C249.81 216.631 248.58 217.051 247.71 217.861C247.05 218.431 246.57 219.121 245.88 220.501V217.051H243.27V231.781ZM262.489 231.781H265.099V223.561C265.099 221.881 265.489 220.831 266.419 220.021C267.289 219.241 268.549 218.821 269.989 218.821C271.849 218.821 273.229 219.541 273.649 220.711C273.889 221.341 273.949 221.941 273.949 223.411V231.781H276.529V223.501C276.529 222.151 276.739 221.221 277.219 220.561C277.999 219.451 279.499 218.821 281.269 218.821C283.399 218.821 284.899 219.661 285.199 221.041C285.349 221.611 285.409 222.511 285.409 223.501V231.781H287.989V222.631C287.989 221.011 287.869 220.231 287.539 219.511C286.729 217.711 284.629 216.631 282.079 216.631C279.409 216.631 277.789 217.501 276.199 219.751C275.299 217.741 273.439 216.631 270.949 216.631C268.579 216.631 266.599 217.651 265.099 219.661V217.051H262.489V231.781ZM306.51 217.051H303.9V224.371C303.9 226.171 303.78 227.041 303.36 227.791C302.61 229.261 301.05 230.011 298.74 230.011C296.7 230.011 295.47 229.411 294.96 228.181C294.69 227.551 294.6 226.891 294.6 225.241V217.051H292.02V225.541C292.02 228.061 292.08 228.631 292.47 229.531C293.25 231.271 295.14 232.201 297.87 232.201C300.66 232.201 302.19 231.391 303.9 229.111V231.781H306.51V217.051ZM309.545 227.281C309.665 230.521 312.365 232.291 317.225 232.291C321.635 232.291 324.455 230.431 324.455 227.491C324.455 225.751 323.525 224.611 321.635 223.951C320.495 223.561 319.355 223.351 316.865 223.021C313.745 222.631 312.845 222.181 312.845 220.891C312.845 219.571 314.375 218.761 316.805 218.761C318.155 218.761 319.325 219.061 320.195 219.631C320.855 220.051 321.155 220.531 321.365 221.521H323.885C323.765 219.991 323.405 219.151 322.535 218.311C321.245 217.111 319.475 216.541 316.985 216.541C314.885 216.541 313.385 216.901 312.095 217.681C310.805 218.461 309.995 219.871 309.995 221.311C309.995 222.661 310.685 223.771 311.915 224.461C312.845 224.971 313.655 225.151 316.415 225.541C318.635 225.841 319.775 226.051 320.315 226.231C321.215 226.561 321.605 227.071 321.605 227.851C321.605 229.261 319.985 230.101 317.255 230.101C315.395 230.101 313.835 229.681 313.085 229.021C312.575 228.571 312.365 228.121 312.215 227.281H309.545ZM327.47 231.781H330.05V217.051H327.47V231.781ZM327.47 214.591H330.05V211.771H327.47V214.591ZM346.391 226.501C345.611 228.841 343.931 230.101 341.471 230.101C338.291 230.101 336.191 227.851 336.191 224.371C336.191 221.041 338.411 218.761 341.711 218.761C344.111 218.761 345.641 219.871 346.271 222.031H349.151C348.161 218.521 345.491 216.541 341.651 216.541C336.611 216.541 333.341 219.661 333.341 224.491C333.341 229.171 336.551 232.291 341.441 232.291C345.251 232.291 348.071 230.191 349.151 226.501H346.391ZM37.9853 257.441C35.6453 257.441 33.7853 259.271 33.7853 261.611C33.7853 263.891 35.6453 265.751 37.9553 265.751C40.2353 265.751 42.0953 263.891 42.0953 261.611C42.0953 259.331 40.2353 257.441 37.9853 257.441ZM68.5102 271.781H71.2102V254.201H78.9202V251.771H60.9202V254.201H68.5102V271.781ZM81.4045 271.781H83.9845V264.131C83.9845 262.901 84.1345 262.061 84.4345 261.401C85.1845 259.871 87.1345 258.821 89.2645 258.821C92.0545 258.821 93.4945 260.321 93.4945 263.291V271.781H96.0745V263.201C96.0745 261.011 95.9845 260.351 95.6245 259.511C94.8445 257.681 92.7745 256.631 90.0145 256.631C87.2845 256.631 85.3945 257.591 83.9845 259.721V251.591H81.4045V271.781ZM112.275 267.491C111.555 269.201 109.995 270.101 107.685 270.101C104.415 270.101 102.555 268.481 102.105 265.241H115.575C115.515 263.201 115.395 262.421 114.915 261.221C113.745 258.281 111.015 256.541 107.565 256.541C102.825 256.541 99.4052 259.961 99.4052 264.671C99.4052 269.231 102.645 272.291 107.505 272.291C111.165 272.291 113.955 270.521 115.095 267.491H112.275ZM102.105 263.231C102.495 262.001 102.825 261.251 103.275 260.651C104.175 259.451 105.765 258.731 107.505 258.731C110.325 258.731 112.365 260.471 112.815 263.231H102.105ZM142.486 269.711C142.126 269.741 141.976 269.771 141.826 269.771C140.566 269.771 140.236 269.411 140.236 268.121V262.151C140.236 259.571 139.936 258.671 138.796 257.801C137.716 256.961 135.916 256.541 133.246 256.541C128.626 256.541 126.316 258.131 125.866 261.611H128.596C128.866 259.541 130.156 258.761 133.336 258.761C136.066 258.761 137.596 259.601 137.596 261.101C137.596 262.151 136.936 262.631 135.346 262.811C131.536 263.231 130.486 263.351 129.976 263.411C126.886 263.951 125.326 265.391 125.326 267.731C125.326 270.521 127.666 272.291 131.296 272.291C134.236 272.291 136.396 271.301 137.656 269.351C137.896 271.091 138.886 271.871 140.746 271.871C141.616 271.871 141.916 271.811 142.486 271.571V269.711ZM137.716 264.011C137.716 265.211 137.596 266.471 137.386 267.041C136.786 268.721 134.266 270.101 131.806 270.101C129.736 270.101 128.176 269.081 128.176 267.731C128.176 267.191 128.476 266.591 128.956 266.231C129.436 265.841 130.096 265.631 131.596 265.391C136.216 264.611 136.216 264.611 137.716 264.011ZM147.031 276.641V268.991C148.351 271.121 150.421 272.201 153.241 272.201C157.891 272.201 161.161 269.021 161.161 264.431C161.161 259.871 157.861 256.631 153.211 256.631C150.511 256.631 148.471 257.621 147.031 259.631V257.051H144.451V276.641H147.031ZM152.701 258.821C156.091 258.821 158.311 261.101 158.311 264.611C158.311 267.761 156.001 270.011 152.731 270.011C149.371 270.011 146.911 267.611 146.911 264.341C146.911 261.131 149.311 258.821 152.701 258.821ZM167.012 276.641V268.991C168.332 271.121 170.402 272.201 173.222 272.201C177.872 272.201 181.142 269.021 181.142 264.431C181.142 259.871 177.842 256.631 173.192 256.631C170.492 256.631 168.452 257.621 167.012 259.631V257.051H164.432V276.641H167.012ZM172.682 258.821C176.072 258.821 178.292 261.101 178.292 264.611C178.292 267.761 175.982 270.011 172.712 270.011C169.352 270.011 166.892 267.611 166.892 264.341C166.892 261.131 169.292 258.821 172.682 258.821ZM191.912 271.781H194.492V264.131C194.492 262.901 194.642 262.061 194.942 261.401C195.692 259.871 197.642 258.821 199.772 258.821C202.562 258.821 204.002 260.321 204.002 263.291V271.781H206.582V263.201C206.582 261.011 206.492 260.351 206.132 259.511C205.352 257.681 203.282 256.631 200.522 256.631C197.792 256.631 195.902 257.591 194.492 259.721V251.591H191.912V271.781ZM226.773 269.711C226.413 269.741 226.263 269.771 226.113 269.771C224.853 269.771 224.523 269.411 224.523 268.121V262.151C224.523 259.571 224.223 258.671 223.083 257.801C222.003 256.961 220.203 256.541 217.533 256.541C212.913 256.541 210.603 258.131 210.153 261.611H212.883C213.153 259.541 214.443 258.761 217.623 258.761C220.353 258.761 221.883 259.601 221.883 261.101C221.883 262.151 221.223 262.631 219.633 262.811C215.823 263.231 214.773 263.351 214.263 263.411C211.173 263.951 209.613 265.391 209.613 267.731C209.613 270.521 211.953 272.291 215.583 272.291C218.523 272.291 220.683 271.301 221.943 269.351C222.183 271.091 223.173 271.871 225.033 271.871C225.903 271.871 226.203 271.811 226.773 271.571V269.711ZM222.003 264.011C222.003 265.211 221.883 266.471 221.673 267.041C221.073 268.721 218.553 270.101 216.093 270.101C214.023 270.101 212.463 269.081 212.463 267.731C212.463 267.191 212.763 266.591 213.243 266.231C213.723 265.841 214.383 265.631 215.883 265.391C220.503 264.611 220.503 264.611 222.003 264.011ZM227.749 267.281C227.869 270.521 230.569 272.291 235.429 272.291C239.839 272.291 242.659 270.431 242.659 267.491C242.659 265.751 241.729 264.611 239.839 263.951C238.699 263.561 237.559 263.351 235.069 263.021C231.949 262.631 231.049 262.181 231.049 260.891C231.049 259.571 232.579 258.761 235.009 258.761C236.359 258.761 237.529 259.061 238.399 259.631C239.059 260.051 239.359 260.531 239.569 261.521H242.089C241.969 259.991 241.609 259.151 240.739 258.311C239.449 257.111 237.679 256.541 235.189 256.541C233.089 256.541 231.589 256.901 230.299 257.681C229.009 258.461 228.199 259.871 228.199 261.311C228.199 262.661 228.889 263.771 230.119 264.461C231.049 264.971 231.859 265.151 234.619 265.541C236.839 265.841 237.979 266.051 238.519 266.231C239.419 266.561 239.809 267.071 239.809 267.851C239.809 269.261 238.189 270.101 235.459 270.101C233.599 270.101 232.039 269.681 231.289 269.021C230.779 268.571 230.569 268.121 230.419 267.281H227.749ZM253.143 271.781H255.753V263.561C255.753 261.881 256.143 260.831 257.073 260.021C257.943 259.241 259.203 258.821 260.643 258.821C262.503 258.821 263.883 259.541 264.303 260.711C264.543 261.341 264.603 261.941 264.603 263.411V271.781H267.183V263.501C267.183 262.151 267.393 261.221 267.873 260.561C268.653 259.451 270.153 258.821 271.923 258.821C274.053 258.821 275.553 259.661 275.853 261.041C276.003 261.611 276.063 262.511 276.063 263.501V271.781H278.643V262.631C278.643 261.011 278.523 260.231 278.193 259.511C277.383 257.711 275.283 256.631 272.733 256.631C270.063 256.631 268.443 257.501 266.853 259.751C265.953 257.741 264.093 256.631 261.603 256.631C259.233 256.631 257.253 257.651 255.753 259.661V257.051H253.143V271.781ZM297.164 257.051H294.554V264.371C294.554 266.171 294.434 267.041 294.014 267.791C293.264 269.261 291.704 270.011 289.394 270.011C287.354 270.011 286.124 269.411 285.614 268.181C285.344 267.551 285.254 266.891 285.254 265.241V257.051H282.674V265.541C282.674 268.061 282.734 268.631 283.124 269.531C283.904 271.271 285.794 272.201 288.524 272.201C291.314 272.201 292.844 271.391 294.554 269.111V271.781H297.164V257.051ZM301.19 271.781H303.77V251.771H301.19V271.781ZM314.531 269.831C313.901 269.981 313.511 270.011 312.761 270.011C311.291 270.011 310.961 269.711 310.961 268.241V259.061H314.621V257.051H310.961V253.061H308.381V257.051H305.891V259.061H308.381V268.301C308.411 270.191 308.411 270.371 308.651 270.821C309.101 271.781 310.211 272.201 312.251 272.201C313.121 272.201 313.661 272.141 314.531 271.991V269.831ZM317.392 271.781H319.972V257.051H317.392V271.781ZM317.392 254.591H319.972V251.771H317.392V254.591ZM326.563 276.641V268.991C327.883 271.121 329.953 272.201 332.773 272.201C337.423 272.201 340.693 269.021 340.693 264.431C340.693 259.871 337.393 256.631 332.743 256.631C330.043 256.631 328.003 257.621 326.563 259.631V257.051H323.983V276.641H326.563ZM332.233 258.821C335.623 258.821 337.843 261.101 337.843 264.611C337.843 267.761 335.533 270.011 332.263 270.011C328.903 270.011 326.443 267.611 326.443 264.341C326.443 261.131 328.843 258.821 332.233 258.821ZM343.963 271.781H346.543V251.771H343.963V271.781ZM362.705 267.491C361.985 269.201 360.425 270.101 358.115 270.101C354.845 270.101 352.985 268.481 352.535 265.241H366.005C365.945 263.201 365.825 262.421 365.345 261.221C364.175 258.281 361.445 256.541 357.995 256.541C353.255 256.541 349.835 259.961 349.835 264.671C349.835 269.231 353.075 272.291 357.935 272.291C361.595 272.291 364.385 270.521 365.525 267.491H362.705ZM352.535 263.231C352.925 262.001 353.255 261.251 353.705 260.651C354.605 259.451 356.195 258.731 357.935 258.731C360.755 258.731 362.795 260.471 363.245 263.231H352.535ZM60.5002 297.051L65.9602 311.781H69.0802L72.8602 300.141L76.6702 311.781H79.7902L85.4902 297.051H82.4002L78.2302 308.721L74.4502 297.051H71.3902L67.5502 308.721L63.5002 297.051H60.5002ZM103.521 309.711C103.161 309.741 103.011 309.771 102.861 309.771C101.601 309.771 101.271 309.411 101.271 308.121V302.151C101.271 299.571 100.971 298.671 99.8311 297.801C98.7511 296.961 96.9511 296.541 94.2811 296.541C89.6611 296.541 87.3511 298.131 86.9011 301.611H89.6311C89.9011 299.541 91.1911 298.761 94.3711 298.761C97.1011 298.761 98.6311 299.601 98.6311 301.101C98.6311 302.151 97.9711 302.631 96.3811 302.811C92.5711 303.231 91.5211 303.351 91.0111 303.411C87.9211 303.951 86.3611 305.391 86.3611 307.731C86.3611 310.521 88.7011 312.291 92.3311 312.291C95.2711 312.291 97.4311 311.301 98.6911 309.351C98.9311 311.091 99.9211 311.871 101.781 311.871C102.651 311.871 102.951 311.811 103.521 311.571V309.711ZM98.7511 304.011C98.7511 305.211 98.6311 306.471 98.4211 307.041C97.8211 308.721 95.3011 310.101 92.8411 310.101C90.7711 310.101 89.2111 309.081 89.2111 307.731C89.2111 307.191 89.5111 306.591 89.9911 306.231C90.4711 305.841 91.1311 305.631 92.6311 305.391C97.2511 304.611 97.2511 304.611 98.7511 304.011ZM103.127 297.051L110.177 311.871C109.217 314.241 108.617 314.751 106.697 314.751C106.067 314.751 105.677 314.691 104.987 314.421V316.821C105.887 316.911 106.397 316.941 106.997 316.941C109.577 316.941 110.897 316.161 111.857 314.031L119.657 297.051H116.747L111.467 309.051L106.217 297.051H103.127ZM120.61 307.281C120.73 310.521 123.43 312.291 128.29 312.291C132.7 312.291 135.52 310.431 135.52 307.491C135.52 305.751 134.59 304.611 132.7 303.951C131.56 303.561 130.42 303.351 127.93 303.021C124.81 302.631 123.91 302.181 123.91 300.891C123.91 299.571 125.44 298.761 127.87 298.761C129.22 298.761 130.39 299.061 131.26 299.631C131.92 300.051 132.22 300.531 132.43 301.521H134.95C134.83 299.991 134.47 299.151 133.6 298.311C132.31 297.111 130.54 296.541 128.05 296.541C125.95 296.541 124.45 296.901 123.16 297.681C121.87 298.461 121.06 299.871 121.06 301.311C121.06 302.661 121.75 303.771 122.98 304.461C123.91 304.971 124.72 305.151 127.48 305.541C129.7 305.841 130.84 306.051 131.38 306.231C132.28 306.561 132.67 307.071 132.67 307.851C132.67 309.261 131.05 310.101 128.32 310.101C126.46 310.101 124.9 309.681 124.15 309.021C123.64 308.571 123.43 308.121 123.28 307.281H120.61ZM145.014 307.281C145.134 310.521 147.834 312.291 152.694 312.291C157.104 312.291 159.924 310.431 159.924 307.491C159.924 305.751 158.994 304.611 157.104 303.951C155.964 303.561 154.824 303.351 152.334 303.021C149.214 302.631 148.314 302.181 148.314 300.891C148.314 299.571 149.844 298.761 152.274 298.761C153.624 298.761 154.794 299.061 155.664 299.631C156.324 300.051 156.624 300.531 156.834 301.521H159.354C159.234 299.991 158.874 299.151 158.004 298.311C156.714 297.111 154.944 296.541 152.454 296.541C150.354 296.541 148.854 296.901 147.564 297.681C146.274 298.461 145.464 299.871 145.464 301.311C145.464 302.661 146.154 303.771 147.384 304.461C148.314 304.971 149.124 305.151 151.884 305.541C154.104 305.841 155.244 306.051 155.784 306.231C156.684 306.561 157.074 307.071 157.074 307.851C157.074 309.261 155.454 310.101 152.724 310.101C150.864 310.101 149.304 309.681 148.554 309.021C148.044 308.571 147.834 308.121 147.684 307.281H145.014ZM162.908 311.781H165.518V303.561C165.518 301.881 165.908 300.831 166.838 300.021C167.708 299.241 168.968 298.821 170.408 298.821C172.268 298.821 173.648 299.541 174.068 300.711C174.308 301.341 174.368 301.941 174.368 303.411V311.781H176.948V303.501C176.948 302.151 177.158 301.221 177.638 300.561C178.418 299.451 179.918 298.821 181.688 298.821C183.818 298.821 185.318 299.661 185.618 301.041C185.768 301.611 185.828 302.511 185.828 303.501V311.781H188.408V302.631C188.408 301.011 188.288 300.231 187.958 299.511C187.148 297.711 185.048 296.631 182.498 296.631C179.828 296.631 178.208 297.501 176.618 299.751C175.718 297.741 173.858 296.631 171.368 296.631C168.998 296.631 167.018 297.651 165.518 299.661V297.051H162.908V311.781ZM208.58 309.711C208.22 309.741 208.07 309.771 207.92 309.771C206.66 309.771 206.33 309.411 206.33 308.121V302.151C206.33 299.571 206.03 298.671 204.89 297.801C203.81 296.961 202.01 296.541 199.34 296.541C194.72 296.541 192.41 298.131 191.96 301.611H194.69C194.96 299.541 196.25 298.761 199.43 298.761C202.16 298.761 203.69 299.601 203.69 301.101C203.69 302.151 203.03 302.631 201.44 302.811C197.63 303.231 196.58 303.351 196.07 303.411C192.98 303.951 191.42 305.391 191.42 307.731C191.42 310.521 193.76 312.291 197.39 312.291C200.33 312.291 202.49 311.301 203.75 309.351C203.99 311.091 204.98 311.871 206.84 311.871C207.71 311.871 208.01 311.811 208.58 311.571V309.711ZM203.81 304.011C203.81 305.211 203.69 306.471 203.48 307.041C202.88 308.721 200.36 310.101 197.9 310.101C195.83 310.101 194.27 309.081 194.27 307.731C194.27 307.191 194.57 306.591 195.05 306.231C195.53 305.841 196.19 305.631 197.69 305.391C202.31 304.611 202.31 304.611 203.81 304.011ZM210.545 311.781H213.125V291.771H210.545V311.781ZM217.137 311.781H219.717V291.771H217.137V311.781ZM247.369 309.711C247.009 309.741 246.859 309.771 246.709 309.771C245.449 309.771 245.119 309.411 245.119 308.121V302.151C245.119 299.571 244.819 298.671 243.679 297.801C242.599 296.961 240.799 296.541 238.129 296.541C233.509 296.541 231.199 298.131 230.749 301.611H233.479C233.749 299.541 235.039 298.761 238.219 298.761C240.949 298.761 242.479 299.601 242.479 301.101C242.479 302.151 241.819 302.631 240.229 302.811C236.419 303.231 235.369 303.351 234.859 303.411C231.769 303.951 230.209 305.391 230.209 307.731C230.209 310.521 232.549 312.291 236.179 312.291C239.119 312.291 241.279 311.301 242.539 309.351C242.779 311.091 243.769 311.871 245.629 311.871C246.499 311.871 246.799 311.811 247.369 311.571V309.711ZM242.599 304.011C242.599 305.211 242.479 306.471 242.269 307.041C241.669 308.721 239.149 310.101 236.689 310.101C234.619 310.101 233.059 309.081 233.059 307.731C233.059 307.191 233.359 306.591 233.839 306.231C234.319 305.841 234.979 305.631 236.479 305.391C241.099 304.611 241.099 304.611 242.599 304.011ZM249.334 311.781H251.944V304.431C251.944 302.721 252.244 301.701 252.994 300.861C253.984 299.781 255.304 299.211 256.834 299.211C257.404 299.211 257.824 299.271 258.574 299.421V296.781C258.004 296.661 257.704 296.631 257.224 296.631C255.874 296.631 254.644 297.051 253.774 297.861C253.114 298.431 252.634 299.121 251.944 300.501V297.051H249.334V311.781ZM268.74 309.831C268.11 309.981 267.72 310.011 266.97 310.011C265.5 310.011 265.17 309.711 265.17 308.241V299.061H268.83V297.051H265.17V293.061H262.59V297.051H260.1V299.061H262.59V308.301C262.62 310.191 262.62 310.371 262.86 310.821C263.31 311.781 264.42 312.201 266.46 312.201C267.33 312.201 267.87 312.141 268.74 311.991V309.831ZM271.601 311.781H274.181V297.051H271.601V311.781ZM271.601 294.591H274.181V291.771H271.601V294.591ZM277.202 307.281C277.322 310.521 280.022 312.291 284.882 312.291C289.292 312.291 292.112 310.431 292.112 307.491C292.112 305.751 291.182 304.611 289.292 303.951C288.152 303.561 287.012 303.351 284.522 303.021C281.402 302.631 280.502 302.181 280.502 300.891C280.502 299.571 282.032 298.761 284.462 298.761C285.812 298.761 286.982 299.061 287.852 299.631C288.512 300.051 288.812 300.531 289.022 301.521H291.542C291.422 299.991 291.062 299.151 290.192 298.311C288.902 297.111 287.132 296.541 284.642 296.541C282.542 296.541 281.042 296.901 279.752 297.681C278.462 298.461 277.652 299.871 277.652 301.311C277.652 302.661 278.342 303.771 279.572 304.461C280.502 304.971 281.312 305.151 284.072 305.541C286.292 305.841 287.432 306.051 287.972 306.231C288.872 306.561 289.262 307.071 289.262 307.851C289.262 309.261 287.642 310.101 284.912 310.101C283.052 310.101 281.492 309.681 280.742 309.021C280.232 308.571 280.022 308.121 279.872 307.281H277.202ZM302.08 309.831C301.45 309.981 301.06 310.011 300.31 310.011C298.84 310.011 298.51 309.711 298.51 308.241V299.061H302.17V297.051H298.51V293.061H295.93V297.051H293.44V299.061H295.93V308.301C295.96 310.191 295.96 310.371 296.2 310.821C296.65 311.781 297.76 312.201 299.8 312.201C300.67 312.201 301.21 312.141 302.08 311.991V309.831ZM303.92 307.281C304.04 310.521 306.74 312.291 311.6 312.291C316.01 312.291 318.83 310.431 318.83 307.491C318.83 305.751 317.9 304.611 316.01 303.951C314.87 303.561 313.73 303.351 311.24 303.021C308.12 302.631 307.22 302.181 307.22 300.891C307.22 299.571 308.75 298.761 311.18 298.761C312.53 298.761 313.7 299.061 314.57 299.631C315.23 300.051 315.53 300.531 315.74 301.521H318.26C318.14 299.991 317.78 299.151 316.91 298.311C315.62 297.111 313.85 296.541 311.36 296.541C309.26 296.541 307.76 296.901 306.47 297.681C305.18 298.461 304.37 299.871 304.37 301.311C304.37 302.661 305.06 303.771 306.29 304.461C307.22 304.971 308.03 305.151 310.79 305.541C313.01 305.841 314.15 306.051 314.69 306.231C315.59 306.561 315.98 307.071 315.98 307.851C315.98 309.261 314.36 310.101 311.63 310.101C309.77 310.101 308.21 309.681 307.46 309.021C306.95 308.571 306.74 308.121 306.59 307.281H303.92ZM74.7502 346.501C73.9702 348.841 72.2902 350.101 69.8302 350.101C66.6502 350.101 64.5502 347.851 64.5502 344.371C64.5502 341.041 66.7702 338.761 70.0702 338.761C72.4702 338.761 74.0002 339.871 74.6302 342.031H77.5102C76.5202 338.521 73.8502 336.541 70.0102 336.541C64.9702 336.541 61.7002 339.661 61.7002 344.491C61.7002 349.171 64.9102 352.291 69.8002 352.291C73.6102 352.291 76.4302 350.191 77.5102 346.501H74.7502ZM96.5777 349.711C96.2177 349.741 96.0677 349.771 95.9177 349.771C94.6577 349.771 94.3277 349.411 94.3277 348.121V342.151C94.3277 339.571 94.0277 338.671 92.8877 337.801C91.8077 336.961 90.0077 336.541 87.3377 336.541C82.7177 336.541 80.4077 338.131 79.9577 341.611H82.6877C82.9577 339.541 84.2477 338.761 87.4277 338.761C90.1577 338.761 91.6877 339.601 91.6877 341.101C91.6877 342.151 91.0277 342.631 89.4377 342.811C85.6277 343.231 84.5777 343.351 84.0677 343.411C80.9777 343.951 79.4177 345.391 79.4177 347.731C79.4177 350.521 81.7577 352.291 85.3877 352.291C88.3277 352.291 90.4877 351.301 91.7477 349.351C91.9877 351.091 92.9777 351.871 94.8377 351.871C95.7077 351.871 96.0077 351.811 96.5777 351.571V349.711ZM91.8077 344.011C91.8077 345.211 91.6877 346.471 91.4777 347.041C90.8777 348.721 88.3577 350.101 85.8977 350.101C83.8277 350.101 82.2677 349.081 82.2677 347.731C82.2677 347.191 82.5677 346.591 83.0477 346.231C83.5277 345.841 84.1877 345.631 85.6877 345.391C90.3077 344.611 90.3077 344.611 91.8077 344.011ZM98.5432 351.781H101.153V344.461C101.153 342.691 101.303 341.791 101.663 341.041C102.443 339.571 104.003 338.821 106.313 338.821C108.413 338.821 109.643 339.421 110.123 340.711C110.393 341.371 110.453 341.941 110.453 343.591V351.781H113.033V343.291C113.033 340.951 112.943 340.111 112.583 339.301C111.833 337.591 109.913 336.631 107.183 336.631C104.393 336.631 102.833 337.441 101.153 339.721V337.051H98.5432V351.781ZM137.909 337.051V339.511C136.229 337.411 134.549 336.631 131.759 336.631C126.989 336.631 123.839 339.691 123.839 344.311C123.839 348.601 127.079 351.481 131.969 351.481C133.499 351.481 134.789 351.181 135.959 350.521C136.889 350.011 137.309 349.561 137.909 348.541C137.849 350.701 137.759 351.481 137.459 352.231C136.769 353.941 134.999 354.751 131.969 354.751C129.269 354.751 127.979 354.121 127.469 352.561H124.649C125.249 355.681 127.439 356.941 132.149 356.941C135.779 356.941 138.059 356.101 139.409 354.241C140.279 353.071 140.519 351.991 140.519 349.171V337.051H137.909ZM132.329 338.821C135.689 338.821 137.939 340.891 137.939 343.981C137.939 347.071 135.569 349.291 132.239 349.291C128.729 349.291 126.689 347.371 126.689 344.011C126.689 340.891 128.939 338.821 132.329 338.821ZM144.539 351.781H147.149V344.431C147.149 342.721 147.449 341.701 148.199 340.861C149.189 339.781 150.509 339.211 152.039 339.211C152.609 339.211 153.029 339.271 153.779 339.421V336.781C153.209 336.661 152.909 336.631 152.429 336.631C151.079 336.631 149.849 337.051 148.979 337.861C148.319 338.431 147.839 339.121 147.149 340.501V337.051H144.539V351.781ZM163.736 336.541C158.696 336.541 155.186 339.721 155.186 344.341C155.186 349.081 158.636 352.291 163.706 352.291C168.716 352.291 172.196 349.141 172.196 344.611C172.196 339.751 168.836 336.541 163.736 336.541ZM163.796 338.731C167.126 338.731 169.346 341.011 169.346 344.461C169.346 347.881 167.156 350.101 163.796 350.101C162.146 350.101 160.646 349.561 159.596 348.571C158.516 347.581 158.036 346.291 158.036 344.431C158.036 341.041 160.376 338.731 163.796 338.731ZM173.264 337.051L178.724 351.781H181.844L185.624 340.141L189.434 351.781H192.554L198.254 337.051H195.164L190.994 348.721L187.214 337.051H184.154L180.314 348.721L176.264 337.051H173.264ZM214.629 349.831C213.999 349.981 213.609 350.011 212.859 350.011C211.389 350.011 211.059 349.711 211.059 348.241V339.061H214.719V337.051H211.059V333.061H208.479V337.051H205.989V339.061H208.479V348.301C208.509 350.191 208.509 350.371 208.749 350.821C209.199 351.781 210.309 352.201 212.349 352.201C213.219 352.201 213.759 352.141 214.629 351.991V349.831ZM217.459 351.781H220.039V344.131C220.039 342.901 220.189 342.061 220.489 341.401C221.239 339.871 223.189 338.821 225.319 338.821C228.109 338.821 229.549 340.321 229.549 343.291V351.781H232.129V343.201C232.129 341.011 232.039 340.351 231.679 339.511C230.899 337.681 228.829 336.631 226.069 336.631C223.339 336.631 221.449 337.591 220.039 339.721V331.591H217.459V351.781ZM248.33 347.491C247.61 349.201 246.05 350.101 243.74 350.101C240.47 350.101 238.61 348.481 238.16 345.241H251.63C251.57 343.201 251.45 342.421 250.97 341.221C249.8 338.281 247.07 336.541 243.62 336.541C238.88 336.541 235.46 339.961 235.46 344.671C235.46 349.231 238.7 352.291 243.56 352.291C247.22 352.291 250.01 350.521 251.15 347.491H248.33ZM238.16 343.231C238.55 342.001 238.88 341.251 239.33 340.651C240.23 339.451 241.82 338.731 243.56 338.731C246.38 338.731 248.42 340.471 248.87 343.231H238.16ZM254.931 351.781H257.511V337.051H254.931V351.781ZM254.931 334.591H257.511V331.771H254.931V334.591ZM261.522 351.781H264.132V344.431C264.132 342.721 264.432 341.701 265.182 340.861C266.172 339.781 267.492 339.211 269.022 339.211C269.592 339.211 270.012 339.271 270.762 339.421V336.781C270.192 336.661 269.892 336.631 269.412 336.631C268.062 336.631 266.832 337.051 265.962 337.861C265.302 338.431 264.822 339.121 264.132 340.501V337.051H261.522V351.781ZM62.4202 391.781H65.0002V371.771H62.4202V391.781ZM69.042 391.781H71.622V377.051H69.042V391.781ZM69.042 374.591H71.622V371.771H69.042V374.591ZM74.643 387.281C74.763 390.521 77.463 392.291 82.323 392.291C86.733 392.291 89.553 390.431 89.553 387.491C89.553 385.751 88.623 384.611 86.733 383.951C85.593 383.561 84.453 383.351 81.963 383.021C78.843 382.631 77.943 382.181 77.943 380.891C77.943 379.571 79.473 378.761 81.903 378.761C83.253 378.761 84.423 379.061 85.293 379.631C85.953 380.051 86.253 380.531 86.463 381.521H88.983C88.863 379.991 88.503 379.151 87.633 378.311C86.343 377.111 84.573 376.541 82.083 376.541C79.983 376.541 78.483 376.901 77.193 377.681C75.903 378.461 75.093 379.871 75.093 381.311C75.093 382.661 75.783 383.771 77.013 384.461C77.943 384.971 78.753 385.151 81.513 385.541C83.733 385.841 84.873 386.051 85.413 386.231C86.313 386.561 86.703 387.071 86.703 387.851C86.703 389.261 85.083 390.101 82.353 390.101C80.493 390.101 78.933 389.681 78.183 389.021C77.673 388.571 77.463 388.121 77.313 387.281H74.643ZM99.5217 389.831C98.8917 389.981 98.5017 390.011 97.7517 390.011C96.2817 390.011 95.9517 389.711 95.9517 388.241V379.061H99.6117V377.051H95.9517V373.061H93.3717V377.051H90.8817V379.061H93.3717V388.301C93.4017 390.191 93.4017 390.371 93.6417 390.821C94.0917 391.781 95.2017 392.201 97.2417 392.201C98.1117 392.201 98.6517 392.141 99.5217 391.991V389.831ZM114.033 387.491C113.313 389.201 111.753 390.101 109.443 390.101C106.173 390.101 104.313 388.481 103.863 385.241H117.333C117.273 383.201 117.153 382.421 116.673 381.221C115.503 378.281 112.773 376.541 109.323 376.541C104.583 376.541 101.163 379.961 101.163 384.671C101.163 389.231 104.403 392.291 109.263 392.291C112.923 392.291 115.713 390.521 116.853 387.491H114.033ZM103.863 383.231C104.253 382.001 104.583 381.251 105.033 380.651C105.933 379.451 107.523 378.731 109.263 378.731C112.083 378.731 114.123 380.471 114.573 383.231H103.863ZM120.604 391.781H123.214V384.461C123.214 382.691 123.364 381.791 123.724 381.041C124.504 379.571 126.064 378.821 128.374 378.821C130.474 378.821 131.704 379.421 132.184 380.711C132.454 381.371 132.514 381.941 132.514 383.591V391.781H135.094V383.291C135.094 380.951 135.004 380.111 134.644 379.301C133.894 377.591 131.974 376.631 129.244 376.631C126.454 376.631 124.894 377.441 123.214 379.721V377.051H120.604V391.781ZM151.269 387.491C150.549 389.201 148.989 390.101 146.679 390.101C143.409 390.101 141.549 388.481 141.099 385.241H154.569C154.509 383.201 154.389 382.421 153.909 381.221C152.739 378.281 150.009 376.541 146.559 376.541C141.819 376.541 138.399 379.961 138.399 384.671C138.399 389.231 141.639 392.291 146.499 392.291C150.159 392.291 152.949 390.521 154.089 387.491H151.269ZM141.099 383.231C141.489 382.001 141.819 381.251 142.269 380.651C143.169 379.451 144.759 378.731 146.499 378.731C149.319 378.731 151.359 380.471 151.809 383.231H141.099ZM157.84 391.781H160.45V384.431C160.45 382.721 160.75 381.701 161.5 380.861C162.49 379.781 163.81 379.211 165.34 379.211C165.91 379.211 166.33 379.271 167.08 379.421V376.781C166.51 376.661 166.21 376.631 165.73 376.631C164.38 376.631 163.15 377.051 162.28 377.861C161.62 378.431 161.14 379.121 160.45 380.501V377.051H157.84V391.781ZM168.686 387.281C168.806 390.521 171.506 392.291 176.366 392.291C180.776 392.291 183.596 390.431 183.596 387.491C183.596 385.751 182.666 384.611 180.776 383.951C179.636 383.561 178.496 383.351 176.006 383.021C172.886 382.631 171.986 382.181 171.986 380.891C171.986 379.571 173.516 378.761 175.946 378.761C177.296 378.761 178.466 379.061 179.336 379.631C179.996 380.051 180.296 380.531 180.506 381.521H183.026C182.906 379.991 182.546 379.151 181.676 378.311C180.386 377.111 178.616 376.541 176.126 376.541C174.026 376.541 172.526 376.901 171.236 377.681C169.946 378.461 169.136 379.871 169.136 381.311C169.136 382.661 169.826 383.771 171.056 384.461C171.986 384.971 172.796 385.151 175.556 385.541C177.776 385.841 178.916 386.051 179.456 386.231C180.356 386.561 180.746 387.071 180.746 387.851C180.746 389.261 179.126 390.101 176.396 390.101C174.536 390.101 172.976 389.681 172.226 389.021C171.716 388.571 171.506 388.121 171.356 387.281H168.686Z" fill="black"/>
</svg>
