<svg width="385" height="512" viewBox="0 0 385 512" fill="none" xmlns="http://www.w3.org/2000/svg">
<rect x="0.519531" y="0.306152" width="383.599" height="510.85" rx="47" fill="#CED7FF"/>
<path d="M39.5751 163.66C37.2351 163.66 35.3751 165.49 35.3751 167.83C35.3751 170.11 37.2351 171.97 39.5451 171.97C41.8251 171.97 43.6851 170.11 43.6851 167.83C43.6851 165.55 41.8251 163.66 39.5751 163.66ZM64.25 178H66.95V168.97H78.23V166.63H66.95V160.42H78.23V157.99H64.25V178ZM89.1545 162.76C84.1145 162.76 80.6045 165.94 80.6045 170.56C80.6045 175.3 84.0545 178.51 89.1245 178.51C94.1345 178.51 97.6145 175.36 97.6145 170.83C97.6145 165.97 94.2545 162.76 89.1545 162.76ZM89.2145 164.95C92.5445 164.95 94.7645 167.23 94.7645 170.68C94.7645 174.1 92.5745 176.32 89.2145 176.32C87.5645 176.32 86.0645 175.78 85.0145 174.79C83.9345 173.8 83.4545 172.51 83.4545 170.65C83.4545 167.26 85.7945 164.95 89.2145 164.95ZM100.895 178H103.505V170.65C103.505 168.94 103.805 167.92 104.555 167.08C105.545 166 106.865 165.43 108.395 165.43C108.965 165.43 109.385 165.49 110.135 165.64V163C109.565 162.88 109.265 162.85 108.785 162.85C107.435 162.85 106.205 163.27 105.335 164.08C104.675 164.65 104.195 165.34 103.505 166.72V163.27H100.895V178ZM122.694 157.99H120.114V178H122.694V175.36C123.834 177.28 126.114 178.42 128.874 178.42C133.524 178.42 136.824 175.18 136.824 170.62C136.824 166.03 133.554 162.85 128.904 162.85C126.084 162.85 124.014 163.93 122.694 166.06V157.99ZM128.364 165.04C130.014 165.04 131.454 165.61 132.534 166.69C133.524 167.68 133.974 168.91 133.974 170.59C133.974 173.92 131.694 176.23 128.364 176.23C124.974 176.23 122.544 173.92 122.544 170.71C122.544 167.44 125.004 165.04 128.364 165.04ZM147.924 162.76C142.884 162.76 139.374 165.94 139.374 170.56C139.374 175.3 142.824 178.51 147.894 178.51C152.904 178.51 156.384 175.36 156.384 170.83C156.384 165.97 153.024 162.76 147.924 162.76ZM147.984 164.95C151.314 164.95 153.534 167.23 153.534 170.68C153.534 174.1 151.344 176.32 147.984 176.32C146.334 176.32 144.834 175.78 143.784 174.79C142.704 173.8 142.224 172.51 142.224 170.65C142.224 167.26 144.564 164.95 147.984 164.95ZM166.326 176.05C165.696 176.2 165.306 176.23 164.556 176.23C163.086 176.23 162.756 175.93 162.756 174.46V165.28H166.416V163.27H162.756V159.28H160.176V163.27H157.686V165.28H160.176V174.52C160.206 176.41 160.206 176.59 160.446 177.04C160.896 178 162.006 178.42 164.046 178.42C164.916 178.42 165.456 178.36 166.326 178.21V176.05ZM169.156 178H171.736V170.35C171.736 169.12 171.886 168.28 172.186 167.62C172.936 166.09 174.886 165.04 177.016 165.04C179.806 165.04 181.246 166.54 181.246 169.51V178H183.826V169.42C183.826 167.23 183.736 166.57 183.376 165.73C182.596 163.9 180.526 162.85 177.766 162.85C175.036 162.85 173.146 163.81 171.736 165.94V157.81H169.156V178ZM211.517 175.93C211.157 175.96 211.007 175.99 210.857 175.99C209.597 175.99 209.267 175.63 209.267 174.34V168.37C209.267 165.79 208.967 164.89 207.827 164.02C206.747 163.18 204.947 162.76 202.277 162.76C197.657 162.76 195.347 164.35 194.897 167.83H197.627C197.897 165.76 199.187 164.98 202.367 164.98C205.097 164.98 206.627 165.82 206.627 167.32C206.627 168.37 205.967 168.85 204.377 169.03C200.567 169.45 199.517 169.57 199.007 169.63C195.917 170.17 194.357 171.61 194.357 173.95C194.357 176.74 196.697 178.51 200.327 178.51C203.267 178.51 205.427 177.52 206.687 175.57C206.927 177.31 207.917 178.09 209.777 178.09C210.647 178.09 210.947 178.03 211.517 177.79V175.93ZM206.747 170.23C206.747 171.43 206.627 172.69 206.417 173.26C205.817 174.94 203.297 176.32 200.837 176.32C198.767 176.32 197.207 175.3 197.207 173.95C197.207 173.41 197.507 172.81 197.987 172.45C198.467 172.06 199.127 171.85 200.627 171.61C205.247 170.83 205.247 170.83 206.747 170.23ZM213.483 178H216.093V170.65C216.093 168.94 216.393 167.92 217.143 167.08C218.133 166 219.453 165.43 220.983 165.43C221.553 165.43 221.973 165.49 222.723 165.64V163C222.153 162.88 221.853 162.85 221.373 162.85C220.023 162.85 218.793 163.27 217.923 164.08C217.263 164.65 216.783 165.34 216.093 166.72V163.27H213.483V178ZM232.889 176.05C232.259 176.2 231.869 176.23 231.119 176.23C229.649 176.23 229.319 175.93 229.319 174.46V165.28H232.979V163.27H229.319V159.28H226.739V163.27H224.249V165.28H226.739V174.52C226.769 176.41 226.769 176.59 227.009 177.04C227.459 178 228.569 178.42 230.609 178.42C231.479 178.42 232.019 178.36 232.889 178.21V176.05ZM235.749 178H238.329V163.27H235.749V178ZM235.749 160.81H238.329V157.99H235.749V160.81ZM241.35 173.5C241.47 176.74 244.17 178.51 249.03 178.51C253.44 178.51 256.26 176.65 256.26 173.71C256.26 171.97 255.33 170.83 253.44 170.17C252.3 169.78 251.16 169.57 248.67 169.24C245.55 168.85 244.65 168.4 244.65 167.11C244.65 165.79 246.18 164.98 248.61 164.98C249.96 164.98 251.13 165.28 252 165.85C252.66 166.27 252.96 166.75 253.17 167.74H255.69C255.57 166.21 255.21 165.37 254.34 164.53C253.05 163.33 251.28 162.76 248.79 162.76C246.69 162.76 245.19 163.12 243.9 163.9C242.61 164.68 241.8 166.09 241.8 167.53C241.8 168.88 242.49 169.99 243.72 170.68C244.65 171.19 245.46 171.37 248.22 171.76C250.44 172.06 251.58 172.27 252.12 172.45C253.02 172.78 253.41 173.29 253.41 174.07C253.41 175.48 251.79 176.32 249.06 176.32C247.2 176.32 245.64 175.9 244.89 175.24C244.38 174.79 244.17 174.34 244.02 173.5H241.35ZM266.229 176.05C265.599 176.2 265.209 176.23 264.459 176.23C262.989 176.23 262.659 175.93 262.659 174.46V165.28H266.319V163.27H262.659V159.28H260.079V163.27H257.589V165.28H260.079V174.52C260.109 176.41 260.109 176.59 260.349 177.04C260.799 178 261.909 178.42 263.949 178.42C264.819 178.42 265.359 178.36 266.229 178.21V176.05ZM268.069 173.5C268.189 176.74 270.889 178.51 275.749 178.51C280.159 178.51 282.979 176.65 282.979 173.71C282.979 171.97 282.049 170.83 280.159 170.17C279.019 169.78 277.879 169.57 275.389 169.24C272.269 168.85 271.369 168.4 271.369 167.11C271.369 165.79 272.899 164.98 275.329 164.98C276.679 164.98 277.849 165.28 278.719 165.85C279.379 166.27 279.679 166.75 279.889 167.74H282.409C282.289 166.21 281.929 165.37 281.059 164.53C279.769 163.33 277.999 162.76 275.509 162.76C273.409 162.76 271.909 163.12 270.619 163.9C269.329 164.68 268.519 166.09 268.519 167.53C268.519 168.88 269.209 169.99 270.439 170.68C271.369 171.19 272.179 171.37 274.939 171.76C277.159 172.06 278.299 172.27 278.839 172.45C279.739 172.78 280.129 173.29 280.129 174.07C280.129 175.48 278.509 176.32 275.779 176.32C273.919 176.32 272.359 175.9 271.609 175.24C271.099 174.79 270.889 174.34 270.739 173.5H268.069ZM309.603 175.93C309.243 175.96 309.093 175.99 308.943 175.99C307.683 175.99 307.353 175.63 307.353 174.34V168.37C307.353 165.79 307.053 164.89 305.913 164.02C304.833 163.18 303.033 162.76 300.363 162.76C295.743 162.76 293.433 164.35 292.983 167.83H295.713C295.983 165.76 297.273 164.98 300.453 164.98C303.183 164.98 304.713 165.82 304.713 167.32C304.713 168.37 304.053 168.85 302.463 169.03C298.653 169.45 297.603 169.57 297.093 169.63C294.003 170.17 292.443 171.61 292.443 173.95C292.443 176.74 294.783 178.51 298.413 178.51C301.353 178.51 303.513 177.52 304.773 175.57C305.013 177.31 306.003 178.09 307.863 178.09C308.733 178.09 309.033 178.03 309.603 177.79V175.93ZM304.833 170.23C304.833 171.43 304.713 172.69 304.503 173.26C303.903 174.94 301.383 176.32 298.923 176.32C296.853 176.32 295.293 175.3 295.293 173.95C295.293 173.41 295.593 172.81 296.073 172.45C296.553 172.06 297.213 171.85 298.713 171.61C303.333 170.83 303.333 170.83 304.833 170.23ZM311.569 178H314.179V170.68C314.179 168.91 314.329 168.01 314.689 167.26C315.469 165.79 317.029 165.04 319.339 165.04C321.439 165.04 322.669 165.64 323.149 166.93C323.419 167.59 323.479 168.16 323.479 169.81V178H326.059V169.51C326.059 167.17 325.969 166.33 325.609 165.52C324.859 163.81 322.939 162.85 320.209 162.85C317.419 162.85 315.859 163.66 314.179 165.94V163.27H311.569V178ZM343.464 157.99V166.06C342.144 163.93 340.074 162.85 337.254 162.85C332.604 162.85 329.334 166.03 329.334 170.62C329.334 175.15 332.634 178.42 337.254 178.42C339.984 178.42 342.024 177.4 343.464 175.36V178H346.044V157.99H343.464ZM337.764 165.04C341.124 165.04 343.584 167.44 343.584 170.71C343.584 173.92 341.184 176.23 337.794 176.23C334.404 176.23 332.184 173.95 332.184 170.44C332.184 167.29 334.494 165.04 337.764 165.04ZM64.01 218H66.59V197.99H64.01V218ZM70.6318 218H73.2118V203.27H70.6318V218ZM70.6318 200.81H73.2118V197.99H70.6318V200.81ZM76.2329 213.5C76.3529 216.74 79.0529 218.51 83.9129 218.51C88.3229 218.51 91.1429 216.65 91.1429 213.71C91.1429 211.97 90.2129 210.83 88.3229 210.17C87.1829 209.78 86.0429 209.57 83.5529 209.24C80.4329 208.85 79.5329 208.4 79.5329 207.11C79.5329 205.79 81.0629 204.98 83.4929 204.98C84.8429 204.98 86.0129 205.28 86.8829 205.85C87.5429 206.27 87.8429 206.75 88.0529 207.74H90.5729C90.4529 206.21 90.0929 205.37 89.2229 204.53C87.9329 203.33 86.1629 202.76 83.6729 202.76C81.5729 202.76 80.0729 203.12 78.7829 203.9C77.4929 204.68 76.6829 206.09 76.6829 207.53C76.6829 208.88 77.3729 209.99 78.6029 210.68C79.5329 211.19 80.3429 211.37 83.1029 211.76C85.3229 212.06 86.4629 212.27 87.0029 212.45C87.9029 212.78 88.2929 213.29 88.2929 214.07C88.2929 215.48 86.6729 216.32 83.9429 216.32C82.0829 216.32 80.5229 215.9 79.7729 215.24C79.2629 214.79 79.0529 214.34 78.9029 213.5H76.2329ZM101.112 216.05C100.482 216.2 100.092 216.23 99.3416 216.23C97.8716 216.23 97.5416 215.93 97.5416 214.46V205.28H101.202V203.27H97.5416V199.28H94.9616V203.27H92.4716V205.28H94.9616V214.52C94.9916 216.41 94.9916 216.59 95.2316 217.04C95.6816 218 96.7916 218.42 98.8316 218.42C99.7016 218.42 100.242 218.36 101.112 218.21V216.05ZM115.623 213.71C114.903 215.42 113.343 216.32 111.033 216.32C107.763 216.32 105.903 214.7 105.453 211.46H118.923C118.863 209.42 118.743 208.64 118.263 207.44C117.093 204.5 114.363 202.76 110.913 202.76C106.173 202.76 102.753 206.18 102.753 210.89C102.753 215.45 105.993 218.51 110.853 218.51C114.513 218.51 117.303 216.74 118.443 213.71H115.623ZM105.453 209.45C105.843 208.22 106.173 207.47 106.623 206.87C107.523 205.67 109.113 204.95 110.853 204.95C113.673 204.95 115.713 206.69 116.163 209.45H105.453ZM122.194 218H124.804V210.68C124.804 208.91 124.954 208.01 125.314 207.26C126.094 205.79 127.654 205.04 129.964 205.04C132.064 205.04 133.294 205.64 133.774 206.93C134.044 207.59 134.104 208.16 134.104 209.81V218H136.684V209.51C136.684 207.17 136.594 206.33 136.234 205.52C135.484 203.81 133.564 202.85 130.834 202.85C128.044 202.85 126.484 203.66 124.804 205.94V203.27H122.194V218ZM152.859 213.71C152.139 215.42 150.579 216.32 148.269 216.32C144.999 216.32 143.139 214.7 142.689 211.46H156.159C156.099 209.42 155.979 208.64 155.499 207.44C154.329 204.5 151.599 202.76 148.149 202.76C143.409 202.76 139.989 206.18 139.989 210.89C139.989 215.45 143.229 218.51 148.089 218.51C151.749 218.51 154.539 216.74 155.679 213.71H152.859ZM142.689 209.45C143.079 208.22 143.409 207.47 143.859 206.87C144.759 205.67 146.349 204.95 148.089 204.95C150.909 204.95 152.949 206.69 153.399 209.45H142.689ZM159.43 218H162.04V210.65C162.04 208.94 162.34 207.92 163.09 207.08C164.08 206 165.4 205.43 166.93 205.43C167.5 205.43 167.92 205.49 168.67 205.64V203C168.1 202.88 167.8 202.85 167.32 202.85C165.97 202.85 164.74 203.27 163.87 204.08C163.21 204.65 162.73 205.34 162.04 206.72V203.27H159.43V218ZM170.276 213.5C170.396 216.74 173.096 218.51 177.956 218.51C182.366 218.51 185.186 216.65 185.186 213.71C185.186 211.97 184.256 210.83 182.366 210.17C181.226 209.78 180.086 209.57 177.596 209.24C174.476 208.85 173.576 208.4 173.576 207.11C173.576 205.79 175.106 204.98 177.536 204.98C178.886 204.98 180.056 205.28 180.926 205.85C181.586 206.27 181.886 206.75 182.096 207.74H184.616C184.496 206.21 184.136 205.37 183.266 204.53C181.976 203.33 180.206 202.76 177.716 202.76C175.616 202.76 174.116 203.12 172.826 203.9C171.536 204.68 170.726 206.09 170.726 207.53C170.726 208.88 171.416 209.99 172.646 210.68C173.576 211.19 174.386 211.37 177.146 211.76C179.366 212.06 180.506 212.27 181.046 212.45C181.946 212.78 182.336 213.29 182.336 214.07C182.336 215.48 180.716 216.32 177.986 216.32C176.126 216.32 174.566 215.9 173.816 215.24C173.306 214.79 173.096 214.34 172.946 213.5H170.276ZM39.5751 243.66C37.2351 243.66 35.3751 245.49 35.3751 247.83C35.3751 250.11 37.2351 251.97 39.5451 251.97C41.8251 251.97 43.6851 250.11 43.6851 247.83C43.6851 245.55 41.8251 243.66 39.5751 243.66ZM64.25 258H66.95V240.66L75.29 258H77.75L86.27 240.66V258H88.97V237.99H84.89L76.55 255L68.36 237.99H64.25V258ZM105.398 253.71C104.678 255.42 103.118 256.32 100.808 256.32C97.5383 256.32 95.6783 254.7 95.2283 251.46H108.698C108.638 249.42 108.518 248.64 108.038 247.44C106.868 244.5 104.138 242.76 100.688 242.76C95.9483 242.76 92.5283 246.18 92.5283 250.89C92.5283 255.45 95.7683 258.51 100.628 258.51C104.288 258.51 107.078 256.74 108.218 253.71H105.398ZM95.2283 249.45C95.6183 248.22 95.9483 247.47 96.3983 246.87C97.2983 245.67 98.8883 244.95 100.628 244.95C103.448 244.95 105.488 246.69 105.938 249.45H95.2283ZM124.119 253.71C123.399 255.42 121.839 256.32 119.529 256.32C116.259 256.32 114.399 254.7 113.949 251.46H127.419C127.359 249.42 127.239 248.64 126.759 247.44C125.589 244.5 122.859 242.76 119.409 242.76C114.669 242.76 111.249 246.18 111.249 250.89C111.249 255.45 114.489 258.51 119.349 258.51C123.009 258.51 125.799 256.74 126.939 253.71H124.119ZM113.949 249.45C114.339 248.22 114.669 247.47 115.119 246.87C116.019 245.67 117.609 244.95 119.349 244.95C122.169 244.95 124.209 246.69 124.659 249.45H113.949ZM137.352 256.05C136.722 256.2 136.332 256.23 135.582 256.23C134.112 256.23 133.782 255.93 133.782 254.46V245.28H137.442V243.27H133.782V239.28H131.202V243.27H128.712V245.28H131.202V254.52C131.232 256.41 131.232 256.59 131.472 257.04C131.922 258 133.032 258.42 135.072 258.42C135.942 258.42 136.482 258.36 137.352 258.21V256.05ZM147.682 258H150.292V250.68C150.292 248.91 150.442 248.01 150.802 247.26C151.582 245.79 153.142 245.04 155.452 245.04C157.552 245.04 158.782 245.64 159.262 246.93C159.532 247.59 159.592 248.16 159.592 249.81V258H162.172V249.51C162.172 247.17 162.082 246.33 161.722 245.52C160.972 243.81 159.052 242.85 156.322 242.85C153.532 242.85 151.972 243.66 150.292 245.94V243.27H147.682V258ZM178.348 253.71C177.628 255.42 176.068 256.32 173.758 256.32C170.488 256.32 168.628 254.7 168.178 251.46H181.648C181.588 249.42 181.468 248.64 180.988 247.44C179.818 244.5 177.088 242.76 173.638 242.76C168.898 242.76 165.478 246.18 165.478 250.89C165.478 255.45 168.718 258.51 173.578 258.51C177.238 258.51 180.027 256.74 181.168 253.71H178.348ZM168.178 249.45C168.568 248.22 168.898 247.47 169.348 246.87C170.248 245.67 171.838 244.95 173.578 244.95C176.398 244.95 178.438 246.69 178.888 249.45H168.178ZM182.617 243.27L188.077 258H191.197L194.977 246.36L198.787 258H201.907L207.607 243.27H204.517L200.347 254.94L196.567 243.27H193.507L189.667 254.94L185.617 243.27H182.617ZM219.813 262.86V255.21C221.133 257.34 223.203 258.42 226.023 258.42C230.673 258.42 233.943 255.24 233.943 250.65C233.943 246.09 230.643 242.85 225.993 242.85C223.293 242.85 221.253 243.84 219.813 245.85V243.27H217.233V262.86H219.813ZM225.483 245.04C228.873 245.04 231.093 247.32 231.093 250.83C231.093 253.98 228.783 256.23 225.513 256.23C222.153 256.23 219.693 253.83 219.693 250.56C219.693 247.35 222.093 245.04 225.483 245.04ZM249.363 253.71C248.643 255.42 247.083 256.32 244.773 256.32C241.503 256.32 239.643 254.7 239.193 251.46H252.663C252.603 249.42 252.483 248.64 252.003 247.44C250.833 244.5 248.103 242.76 244.653 242.76C239.913 242.76 236.493 246.18 236.493 250.89C236.493 255.45 239.733 258.51 244.593 258.51C248.253 258.51 251.043 256.74 252.183 253.71H249.363ZM239.193 249.45C239.583 248.22 239.913 247.47 240.363 246.87C241.263 245.67 242.853 244.95 244.593 244.95C247.413 244.95 249.453 246.69 249.903 249.45H239.193ZM263.764 242.76C258.724 242.76 255.214 245.94 255.214 250.56C255.214 255.3 258.664 258.51 263.734 258.51C268.744 258.51 272.224 255.36 272.224 250.83C272.224 245.97 268.864 242.76 263.764 242.76ZM263.824 244.95C267.154 244.95 269.374 247.23 269.374 250.68C269.374 254.1 267.184 256.32 263.824 256.32C262.174 256.32 260.674 255.78 259.624 254.79C258.544 253.8 258.064 252.51 258.064 250.65C258.064 247.26 260.404 244.95 263.824 244.95ZM278.084 262.86V255.21C279.404 257.34 281.474 258.42 284.294 258.42C288.944 258.42 292.214 255.24 292.214 250.65C292.214 246.09 288.914 242.85 284.264 242.85C281.564 242.85 279.524 243.84 278.084 245.85V243.27H275.504V262.86H278.084ZM283.754 245.04C287.144 245.04 289.364 247.32 289.364 250.83C289.364 253.98 287.054 256.23 283.784 256.23C280.424 256.23 277.964 253.83 277.964 250.56C277.964 247.35 280.364 245.04 283.754 245.04ZM295.485 258H298.065V237.99H295.485V258ZM314.226 253.71C313.506 255.42 311.946 256.32 309.636 256.32C306.366 256.32 304.506 254.7 304.056 251.46H317.526C317.466 249.42 317.346 248.64 316.866 247.44C315.696 244.5 312.966 242.76 309.516 242.76C304.776 242.76 301.356 246.18 301.356 250.89C301.356 255.45 304.596 258.51 309.456 258.51C313.116 258.51 315.906 256.74 317.046 253.71H314.226ZM304.056 249.45C304.446 248.22 304.776 247.47 305.226 246.87C306.126 245.67 307.716 244.95 309.456 244.95C312.276 244.95 314.316 246.69 314.766 249.45H304.056ZM62.09 283.27L67.55 298H70.67L74.45 286.36L78.26 298H81.38L87.08 283.27H83.99L79.82 294.94L76.04 283.27H72.98L69.14 294.94L65.09 283.27H62.09ZM89.2053 298H91.7853V290.35C91.7853 289.12 91.9353 288.28 92.2353 287.62C92.9853 286.09 94.9353 285.04 97.0653 285.04C99.8553 285.04 101.295 286.54 101.295 289.51V298H103.875V289.42C103.875 287.23 103.785 286.57 103.425 285.73C102.645 283.9 100.575 282.85 97.8153 282.85C95.0853 282.85 93.1953 283.81 91.7853 285.94V277.81H89.2053V298ZM115.756 282.76C110.716 282.76 107.206 285.94 107.206 290.56C107.206 295.3 110.656 298.51 115.726 298.51C120.736 298.51 124.216 295.36 124.216 290.83C124.216 285.97 120.856 282.76 115.756 282.76ZM115.816 284.95C119.146 284.95 121.366 287.23 121.366 290.68C121.366 294.1 119.176 296.32 115.816 296.32C114.166 296.32 112.666 295.78 111.616 294.79C110.536 293.8 110.056 292.51 110.056 290.65C110.056 287.26 112.396 284.95 115.816 284.95ZM134.996 298H137.576V290.35C137.576 289.12 137.726 288.28 138.026 287.62C138.776 286.09 140.726 285.04 142.856 285.04C145.646 285.04 147.086 286.54 147.086 289.51V298H149.666V289.42C149.666 287.23 149.576 286.57 149.216 285.73C148.436 283.9 146.366 282.85 143.606 282.85C140.876 282.85 138.986 283.81 137.576 285.94V277.81H134.996V298ZM169.857 295.93C169.497 295.96 169.347 295.99 169.197 295.99C167.937 295.99 167.607 295.63 167.607 294.34V288.37C167.607 285.79 167.307 284.89 166.167 284.02C165.087 283.18 163.287 282.76 160.617 282.76C155.997 282.76 153.687 284.35 153.237 287.83H155.967C156.237 285.76 157.527 284.98 160.707 284.98C163.437 284.98 164.967 285.82 164.967 287.32C164.967 288.37 164.307 288.85 162.717 289.03C158.907 289.45 157.857 289.57 157.347 289.63C154.257 290.17 152.697 291.61 152.697 293.95C152.697 296.74 155.037 298.51 158.667 298.51C161.607 298.51 163.767 297.52 165.027 295.57C165.267 297.31 166.257 298.09 168.117 298.09C168.987 298.09 169.287 298.03 169.857 297.79V295.93ZM165.087 290.23C165.087 291.43 164.967 292.69 164.757 293.26C164.157 294.94 161.637 296.32 159.177 296.32C157.107 296.32 155.547 295.3 155.547 293.95C155.547 293.41 155.847 292.81 156.327 292.45C156.807 292.06 157.467 291.85 158.967 291.61C163.587 290.83 163.587 290.83 165.087 290.23ZM169.463 283.27L176.153 298H178.823L185.783 283.27H182.903L177.563 294.97L172.433 283.27H169.463ZM199.383 293.71C198.663 295.42 197.103 296.32 194.793 296.32C191.523 296.32 189.663 294.7 189.213 291.46H202.683C202.623 289.42 202.503 288.64 202.023 287.44C200.853 284.5 198.123 282.76 194.673 282.76C189.933 282.76 186.513 286.18 186.513 290.89C186.513 295.45 189.753 298.51 194.613 298.51C198.273 298.51 201.063 296.74 202.203 293.71H199.383ZM189.213 289.45C189.603 288.22 189.933 287.47 190.383 286.87C191.283 285.67 192.873 284.95 194.613 284.95C197.433 284.95 199.473 286.69 199.923 289.45H189.213ZM212.463 293.5C212.583 296.74 215.283 298.51 220.143 298.51C224.553 298.51 227.373 296.65 227.373 293.71C227.373 291.97 226.443 290.83 224.553 290.17C223.413 289.78 222.273 289.57 219.783 289.24C216.663 288.85 215.763 288.4 215.763 287.11C215.763 285.79 217.293 284.98 219.723 284.98C221.073 284.98 222.243 285.28 223.113 285.85C223.773 286.27 224.073 286.75 224.283 287.74H226.803C226.683 286.21 226.323 285.37 225.453 284.53C224.163 283.33 222.393 282.76 219.903 282.76C217.803 282.76 216.303 283.12 215.013 283.9C213.723 284.68 212.913 286.09 212.913 287.53C212.913 288.88 213.603 289.99 214.833 290.68C215.763 291.19 216.573 291.37 219.333 291.76C221.553 292.06 222.693 292.27 223.233 292.45C224.133 292.78 224.523 293.29 224.523 294.07C224.523 295.48 222.903 296.32 220.173 296.32C218.313 296.32 216.753 295.9 216.003 295.24C215.493 294.79 215.283 294.34 215.133 293.5H212.463ZM230.388 298H232.968V283.27H230.388V298ZM230.388 280.81H232.968V277.99H230.388V280.81ZM236.979 298H239.589V289.78C239.589 288.1 239.979 287.05 240.909 286.24C241.779 285.46 243.039 285.04 244.479 285.04C246.339 285.04 247.719 285.76 248.139 286.93C248.379 287.56 248.439 288.16 248.439 289.63V298H251.019V289.72C251.019 288.37 251.229 287.44 251.709 286.78C252.489 285.67 253.989 285.04 255.759 285.04C257.889 285.04 259.389 285.88 259.689 287.26C259.839 287.83 259.899 288.73 259.899 289.72V298H262.479V288.85C262.479 287.23 262.359 286.45 262.029 285.73C261.219 283.93 259.119 282.85 256.569 282.85C253.899 282.85 252.279 283.72 250.689 285.97C249.789 283.96 247.929 282.85 245.439 282.85C243.069 282.85 241.089 283.87 239.589 285.88V283.27H236.979V298ZM266.54 298H269.12V283.27H266.54V298ZM266.54 280.81H269.12V277.99H266.54V280.81ZM273.131 298H275.711V277.99H273.131V298ZM295.863 295.93C295.503 295.96 295.353 295.99 295.203 295.99C293.943 295.99 293.613 295.63 293.613 294.34V288.37C293.613 285.79 293.313 284.89 292.173 284.02C291.093 283.18 289.293 282.76 286.623 282.76C282.003 282.76 279.693 284.35 279.243 287.83H281.973C282.243 285.76 283.533 284.98 286.713 284.98C289.443 284.98 290.973 285.82 290.973 287.32C290.973 288.37 290.313 288.85 288.723 289.03C284.913 289.45 283.863 289.57 283.353 289.63C280.263 290.17 278.703 291.61 278.703 293.95C278.703 296.74 281.043 298.51 284.673 298.51C287.613 298.51 289.773 297.52 291.033 295.57C291.273 297.31 292.263 298.09 294.123 298.09C294.993 298.09 295.293 298.03 295.863 297.79V295.93ZM291.093 290.23C291.093 291.43 290.973 292.69 290.763 293.26C290.163 294.94 287.643 296.32 285.183 296.32C283.113 296.32 281.553 295.3 281.553 293.95C281.553 293.41 281.853 292.81 282.333 292.45C282.813 292.06 283.473 291.85 284.973 291.61C289.593 290.83 289.593 290.83 291.093 290.23ZM297.828 298H300.438V290.65C300.438 288.94 300.738 287.92 301.488 287.08C302.478 286 303.798 285.43 305.328 285.43C305.898 285.43 306.318 285.49 307.068 285.64V283C306.498 282.88 306.198 282.85 305.718 282.85C304.368 282.85 303.138 283.27 302.268 284.08C301.608 284.65 301.128 285.34 300.438 286.72V283.27H297.828V298ZM70.76 336.05C70.13 336.2 69.74 336.23 68.99 336.23C67.52 336.23 67.19 335.93 67.19 334.46V325.28H70.85V323.27H67.19V319.28H64.61V323.27H62.12V325.28H64.61V334.52C64.64 336.41 64.64 336.59 64.88 337.04C65.33 338 66.44 338.42 68.48 338.42C69.35 338.42 69.89 338.36 70.76 338.21V336.05ZM89.7301 335.93C89.3701 335.96 89.2201 335.99 89.0701 335.99C87.8101 335.99 87.4801 335.63 87.4801 334.34V328.37C87.4801 325.79 87.1801 324.89 86.0401 324.02C84.9601 323.18 83.1601 322.76 80.4901 322.76C75.8701 322.76 73.5601 324.35 73.1101 327.83H75.8401C76.1101 325.76 77.4001 324.98 80.5801 324.98C83.3101 324.98 84.8401 325.82 84.8401 327.32C84.8401 328.37 84.1801 328.85 82.5901 329.03C78.7801 329.45 77.7301 329.57 77.2201 329.63C74.1301 330.17 72.5701 331.61 72.5701 333.95C72.5701 336.74 74.9101 338.51 78.5401 338.51C81.4801 338.51 83.6401 337.52 84.9001 335.57C85.1401 337.31 86.1301 338.09 87.9901 338.09C88.8601 338.09 89.1601 338.03 89.7301 337.79V335.93ZM84.9601 330.23C84.9601 331.43 84.8401 332.69 84.6301 333.26C84.0301 334.94 81.5101 336.32 79.0501 336.32C76.9801 336.32 75.4201 335.3 75.4201 333.95C75.4201 333.41 75.7201 332.81 76.2001 332.45C76.6801 332.06 77.3401 331.85 78.8401 331.61C83.4601 330.83 83.4601 330.83 84.9601 330.23ZM90.7055 333.5C90.8255 336.74 93.5255 338.51 98.3855 338.51C102.796 338.51 105.616 336.65 105.616 333.71C105.616 331.97 104.686 330.83 102.796 330.17C101.656 329.78 100.516 329.57 98.0255 329.24C94.9055 328.85 94.0055 328.4 94.0055 327.11C94.0055 325.79 95.5355 324.98 97.9655 324.98C99.3155 324.98 100.486 325.28 101.356 325.85C102.016 326.27 102.316 326.75 102.526 327.74H105.046C104.926 326.21 104.566 325.37 103.696 324.53C102.406 323.33 100.636 322.76 98.1455 322.76C96.0455 322.76 94.5455 323.12 93.2555 323.9C91.9655 324.68 91.1555 326.09 91.1555 327.53C91.1555 328.88 91.8455 329.99 93.0755 330.68C94.0055 331.19 94.8155 331.37 97.5755 331.76C99.7955 332.06 100.936 332.27 101.476 332.45C102.376 332.78 102.766 333.29 102.766 334.07C102.766 335.48 101.146 336.32 98.4155 336.32C96.5555 336.32 94.9955 335.9 94.2455 335.24C93.7355 334.79 93.5255 334.34 93.3755 333.5H90.7055ZM115.584 336.05C114.954 336.2 114.564 336.23 113.814 336.23C112.344 336.23 112.014 335.93 112.014 334.46V325.28H115.674V323.27H112.014V319.28H109.434V323.27H106.944V325.28H109.434V334.52C109.464 336.41 109.464 336.59 109.704 337.04C110.154 338 111.264 338.42 113.304 338.42C114.174 338.42 114.714 338.36 115.584 338.21V336.05ZM130.096 333.71C129.376 335.42 127.816 336.32 125.506 336.32C122.236 336.32 120.376 334.7 119.926 331.46H133.396C133.336 329.42 133.216 328.64 132.736 327.44C131.566 324.5 128.836 322.76 125.386 322.76C120.646 322.76 117.226 326.18 117.226 330.89C117.226 335.45 120.466 338.51 125.326 338.51C128.986 338.51 131.776 336.74 132.916 333.71H130.096ZM119.926 329.45C120.316 328.22 120.646 327.47 121.096 326.87C121.996 325.67 123.586 324.95 125.326 324.95C128.146 324.95 130.186 326.69 130.636 329.45H119.926ZM150.916 336.05C150.286 336.2 149.896 336.23 149.146 336.23C147.676 336.23 147.346 335.93 147.346 334.46V325.28H151.006V323.27H147.346V319.28H144.766V323.27H142.276V325.28H144.766V334.52C144.796 336.41 144.796 336.59 145.036 337.04C145.486 338 146.596 338.42 148.636 338.42C149.506 338.42 150.046 338.36 150.916 338.21V336.05ZM161.108 322.76C156.068 322.76 152.558 325.94 152.558 330.56C152.558 335.3 156.008 338.51 161.078 338.51C166.088 338.51 169.568 335.36 169.568 330.83C169.568 325.97 166.208 322.76 161.108 322.76ZM161.168 324.95C164.498 324.95 166.718 327.23 166.718 330.68C166.718 334.1 164.528 336.32 161.168 336.32C159.518 336.32 158.018 335.78 156.968 334.79C155.888 333.8 155.408 332.51 155.408 330.65C155.408 327.26 157.748 324.95 161.168 324.95ZM178.428 323.27L185.478 338.09C184.518 340.46 183.918 340.97 181.998 340.97C181.368 340.97 180.978 340.91 180.288 340.64V343.04C181.188 343.13 181.698 343.16 182.298 343.16C184.878 343.16 186.198 342.38 187.158 340.25L194.958 323.27H192.048L186.768 335.27L181.518 323.27H178.428ZM204.32 322.76C199.28 322.76 195.77 325.94 195.77 330.56C195.77 335.3 199.22 338.51 204.29 338.51C209.3 338.51 212.78 335.36 212.78 330.83C212.78 325.97 209.42 322.76 204.32 322.76ZM204.38 324.95C207.71 324.95 209.93 327.23 209.93 330.68C209.93 334.1 207.74 336.32 204.38 336.32C202.73 336.32 201.23 335.78 200.18 334.79C199.1 333.8 198.62 332.51 198.62 330.65C198.62 327.26 200.96 324.95 204.38 324.95ZM230.551 323.27H227.941V330.59C227.941 332.39 227.821 333.26 227.401 334.01C226.651 335.48 225.091 336.23 222.781 336.23C220.741 336.23 219.511 335.63 219.001 334.4C218.731 333.77 218.641 333.11 218.641 331.46V323.27H216.061V331.76C216.061 334.28 216.121 334.85 216.511 335.75C217.291 337.49 219.181 338.42 221.911 338.42C224.701 338.42 226.231 337.61 227.941 335.33V338H230.551V323.27Z" fill="black"/>
<path d="M64.6336 71.2964H76.1136C79.0536 71.2964 81.0136 70.7364 82.5536 69.4414C84.0936 68.1464 85.0736 66.0114 85.0736 63.9464C85.0736 61.4264 83.7436 59.4314 80.8386 57.7514C83.3586 56.1414 84.3386 54.6714 84.3386 52.5014C84.3386 50.7164 83.4636 48.8964 82.0286 47.6364C80.5236 46.3414 78.7386 45.7814 76.0086 45.7814H64.6336V71.2964ZM69.8836 50.1564H75.5886C78.0386 50.1564 79.2986 51.1364 79.2986 53.0264C79.2986 54.9514 78.0386 55.9314 75.5886 55.9314H69.8836V50.1564ZM69.8836 60.3064H76.1486C78.7036 60.3064 80.0336 61.4264 80.0336 63.6314C80.0336 65.8014 78.7036 66.9214 76.1486 66.9214H69.8836V60.3064ZM105.957 71.2964V52.3964H101.057V64.2264C101.057 66.4664 99.5174 67.9364 97.1024 67.9364C95.0024 67.9364 93.9524 66.8164 93.9524 64.5414V52.3964H89.0524V65.5564C89.0524 69.7564 91.3274 72.1014 95.3874 72.1014C97.9424 72.1014 99.6574 71.1914 101.057 69.0564V71.2964H105.957ZM115.664 52.3964H110.764V71.2964H115.664V52.3964ZM115.664 45.7814H110.764V50.1564H115.664V45.7814ZM125.405 45.7814H120.505V71.2964H125.405V45.7814ZM142.076 71.2964H146.976V45.7814H142.076V54.8464C140.851 52.9564 139.241 52.0814 136.861 52.0814C132.346 52.0814 128.916 56.4214 128.916 62.1264C128.916 64.6814 129.686 67.2714 130.946 69.0914C132.241 70.9464 134.551 72.1014 136.861 72.1014C139.241 72.1014 140.851 71.2614 142.076 69.3714V71.2964ZM137.946 56.1764C140.431 56.1764 142.076 58.5564 142.076 62.1964C142.076 65.6264 140.396 68.0064 137.946 68.0064C135.496 68.0064 133.816 65.5914 133.816 62.1264C133.816 58.5914 135.496 56.1764 137.946 56.1764ZM182.909 54.4264C182.734 52.2214 182.279 50.8214 181.194 49.3864C179.234 46.7964 176.084 45.3614 172.269 45.3614C165.059 45.3614 160.579 50.5064 160.579 58.7664C160.579 66.9914 165.024 72.1014 172.129 72.1014C178.499 72.1014 182.699 68.4264 183.014 62.5814H177.904C177.554 65.8364 175.524 67.6914 172.269 67.6914C168.209 67.6914 165.829 64.4014 165.829 58.8364C165.829 53.2014 168.314 49.8414 172.444 49.8414C175.489 49.8414 177.204 51.3114 177.904 54.4264H182.909ZM194.867 52.0814C189.092 52.0814 185.557 55.8964 185.557 62.0914C185.557 68.3214 189.092 72.1014 194.902 72.1014C200.677 72.1014 204.247 68.3214 204.247 62.2314C204.247 55.8264 200.782 52.0814 194.867 52.0814ZM194.902 56.0364C197.597 56.0364 199.347 58.4514 199.347 62.1614C199.347 65.6964 197.527 68.1464 194.902 68.1464C192.242 68.1464 190.457 65.7314 190.457 62.0914C190.457 58.4514 192.242 56.0364 194.902 56.0364ZM207.828 52.3964V71.2964H212.728V59.9564C212.728 57.6114 213.988 56.2464 216.088 56.2464C217.733 56.2464 218.748 57.1914 218.748 58.6964V71.2964H223.648V59.9564C223.648 57.6464 224.908 56.2464 227.008 56.2464C228.653 56.2464 229.668 57.1914 229.668 58.6964V71.2964H234.568V57.9264C234.568 54.2514 232.328 52.0814 228.548 52.0814C226.133 52.0814 224.488 52.9214 223.018 54.8814C222.108 53.0964 220.218 52.0814 217.873 52.0814C215.703 52.0814 214.303 52.7814 212.693 54.7414V52.3964H207.828ZM238.932 52.3964V71.2964H243.832V59.9564C243.832 57.6114 245.092 56.2464 247.192 56.2464C248.837 56.2464 249.852 57.1914 249.852 58.6964V71.2964H254.752V59.9564C254.752 57.6464 256.012 56.2464 258.112 56.2464C259.757 56.2464 260.772 57.1914 260.772 58.6964V71.2964H265.672V57.9264C265.672 54.2514 263.432 52.0814 259.652 52.0814C257.237 52.0814 255.592 52.9214 254.122 54.8814C253.212 53.0964 251.322 52.0814 248.977 52.0814C246.807 52.0814 245.407 52.7814 243.797 54.7414V52.3964H238.932ZM286.871 71.2964V52.3964H281.971V64.2264C281.971 66.4664 280.431 67.9364 278.016 67.9364C275.916 67.9364 274.866 66.8164 274.866 64.5414V52.3964H269.966V65.5564C269.966 69.7564 272.241 72.1014 276.301 72.1014C278.856 72.1014 280.571 71.1914 281.971 69.0564V71.2964H286.871ZM291.537 52.3964V71.2964H296.437V59.9564C296.437 57.7164 297.977 56.2464 300.392 56.2464C302.492 56.2464 303.542 57.4014 303.542 59.6414V71.2964H308.442V58.6264C308.442 54.4264 306.167 52.0814 302.107 52.0814C299.552 52.0814 297.837 52.9914 296.437 55.1264V52.3964H291.537ZM317.973 52.3964H313.073V71.2964H317.973V52.3964ZM317.973 45.7814H313.073V50.1564H317.973V45.7814ZM331.005 52.7814H328.275V47.7064H323.375V52.7814H320.96V56.0364H323.375V67.6564C323.375 70.6314 324.95 72.1014 328.17 72.1014C329.29 72.1014 330.095 71.9964 331.005 71.7164V68.2864C330.515 68.3564 330.27 68.3914 329.885 68.3914C328.59 68.3914 328.275 68.0064 328.275 66.3264V56.0364H331.005V52.7814ZM346.393 52.3964L342.473 66.1514L338.308 52.3964H332.918L339.953 72.0664C339.953 74.0264 338.728 75.3564 336.908 75.3564C336.523 75.3564 336.208 75.2864 335.613 75.1464V78.8214C336.348 78.9264 336.768 78.9614 337.363 78.9614C338.623 78.9614 340.023 78.7164 340.898 78.3664C342.263 77.8064 342.858 77.0364 343.663 74.7614L351.433 52.3964H346.393Z" fill="black"/>
</svg>
