<svg width="1304" height="661" viewBox="0 0 1304 661" fill="none" xmlns="http://www.w3.org/2000/svg">
<path d="M329 219.5C329 310.351 255.351 384 164.5 384C73.6492 384 4.14089e-05 310.351 4.14089e-05 219.5C4.14089e-05 128.649 73.6492 55.0001 164.5 55.0001C255.351 55.0001 329 128.649 329 219.5Z" fill="#A2B1F5"/>
<path d="M280.819 335.819C261.69 354.948 238.139 369.064 212.252 376.917C186.365 384.77 158.94 386.117 132.408 380.839C105.875 375.562 81.054 363.822 60.1423 346.66C39.2307 329.499 22.8743 307.444 12.5219 282.452C2.16943 257.459 -1.85942 230.298 0.792154 203.376C3.44373 176.454 12.6939 150.602 27.7233 128.109C42.7527 105.616 63.0974 87.1764 86.9553 74.424C110.813 61.6717 137.448 55.0001 164.5 55.0001V219.5L280.819 335.819Z" fill="#CED7FF"/>
<path d="M815 219.5C815 310.351 741.351 384 650.5 384C559.649 384 486 310.351 486 219.5C486 128.649 559.649 55.0001 650.5 55.0001C741.351 55.0001 815 128.649 815 219.5Z" fill="#A2B1F5"/>
<path d="M762.679 99.1829C743.92 81.6931 721.331 68.8318 696.717 61.626C672.103 54.4203 646.145 53.0697 620.916 57.6822L650.5 219.5L762.679 99.1829Z" fill="#7584C8"/>
<path d="M810.966 183.293C818.455 216.483 815.468 251.178 802.417 282.6C789.366 314.021 766.892 340.623 738.093 358.74C709.293 376.857 675.584 385.599 641.61 383.76C607.635 381.921 575.067 369.592 548.391 348.473C521.715 327.353 502.244 298.481 492.66 265.834C483.077 233.188 483.852 198.373 494.88 166.185C505.907 133.997 526.644 106.021 554.234 86.1096C581.823 66.1984 614.908 55.3321 648.931 55.0076L650.5 219.5L810.966 183.293Z" fill="#CED7FF"/>
<path d="M730.886 75.9788C718.815 69.2177 705.939 64.0065 692.563 60.4687L650.5 219.5L730.886 75.9788Z" fill="#475596"/>
<path d="M693.863 60.8185C672.316 54.9301 649.795 53.4919 627.674 56.5915L650.5 219.5L693.863 60.8185Z" fill="#242E5A"/>
<path d="M1301 219.931C1301 310.782 1227.35 384.431 1136.5 384.431C1045.65 384.431 972 310.782 972 219.931C972 129.08 1045.65 55.4312 1136.5 55.4312C1227.35 55.4312 1301 129.08 1301 219.931Z" fill="#CED7FF"/>
<path d="M1218.43 363.828C1239.31 352.406 1257.47 336.587 1271.65 317.464C1285.83 298.34 1295.68 276.368 1300.54 253.064L1139.5 219.5L1218.43 363.828Z" fill="#A2B1F5"/>
<path d="M1294.22 275.371C1302.58 252.224 1305.64 227.496 1303.17 203.009C1300.7 178.523 1292.77 154.902 1279.97 133.887C1267.16 112.872 1249.8 94.9991 1229.16 81.5847C1208.53 68.1703 1185.15 59.5564 1160.75 56.3779L1139.5 219.5L1294.22 275.371Z" fill="#7584C8"/>
<path d="M1303.58 207.822C1301.9 184.135 1295.1 161.093 1283.67 140.281L1139.5 219.5L1303.58 207.822Z" fill="#475596"/>
<path d="M1284.53 141.865C1265.8 106.883 1235.06 79.8485 1197.97 65.7439C1160.89 51.6392 1119.95 51.4152 1082.71 65.1132L1139.5 219.5L1284.53 141.865Z" fill="#242E5A"/>
<path d="M166.8 480H168.96V472.776H177.984V470.904H168.96V465.936H177.984V463.992H166.8V480Z" fill="black"/>
<path d="M190.156 476.568C189.58 477.936 188.332 478.656 186.484 478.656C183.868 478.656 182.38 477.36 182.02 474.768H192.796C192.748 473.136 192.652 472.512 192.268 471.552C191.332 469.2 189.148 467.808 186.388 467.808C182.596 467.808 179.86 470.544 179.86 474.312C179.86 477.96 182.452 480.408 186.34 480.408C189.268 480.408 191.5 478.992 192.412 476.568H190.156ZM182.02 473.16C182.332 472.176 182.596 471.576 182.956 471.096C183.676 470.136 184.948 469.56 186.34 469.56C188.596 469.56 190.228 470.952 190.588 473.16H182.02Z" fill="black"/>
<path d="M195.413 480H197.501V473.424C197.501 472.08 197.813 471.24 198.557 470.592C199.253 469.968 200.261 469.632 201.413 469.632C202.901 469.632 204.005 470.208 204.341 471.144C204.533 471.648 204.581 472.128 204.581 473.304V480H206.645V473.376C206.645 472.296 206.813 471.552 207.197 471.024C207.821 470.136 209.021 469.632 210.437 469.632C212.141 469.632 213.341 470.304 213.581 471.408C213.701 471.864 213.749 472.584 213.749 473.376V480H215.813V472.68C215.813 471.384 215.717 470.76 215.453 470.184C214.805 468.744 213.125 467.88 211.085 467.88C208.949 467.88 207.653 468.576 206.381 470.376C205.661 468.768 204.173 467.88 202.181 467.88C200.285 467.88 198.701 468.696 197.501 470.304V468.216H195.413V480Z" fill="black"/>
<path d="M231.95 478.344C231.662 478.368 231.542 478.392 231.422 478.392C230.414 478.392 230.15 478.104 230.15 477.072V472.296C230.15 470.232 229.91 469.512 228.998 468.816C228.134 468.144 226.694 467.808 224.558 467.808C220.862 467.808 219.014 469.08 218.654 471.864H220.838C221.054 470.208 222.086 469.584 224.63 469.584C226.814 469.584 228.038 470.256 228.038 471.456C228.038 472.296 227.51 472.68 226.238 472.824C223.19 473.16 222.35 473.256 221.942 473.304C219.47 473.736 218.222 474.888 218.222 476.76C218.222 478.992 220.094 480.408 222.998 480.408C225.35 480.408 227.078 479.616 228.086 478.056C228.278 479.448 229.07 480.072 230.558 480.072C231.254 480.072 231.494 480.024 231.95 479.832V478.344ZM228.134 473.784C228.134 474.744 228.038 475.752 227.87 476.208C227.39 477.552 225.374 478.656 223.406 478.656C221.75 478.656 220.502 477.84 220.502 476.76C220.502 476.328 220.742 475.848 221.126 475.56C221.51 475.248 222.038 475.08 223.238 474.888C226.934 474.264 226.934 474.264 228.134 473.784Z" fill="black"/>
<path d="M233.522 480H235.586V463.992H233.522V480Z" fill="black"/>
<path d="M248.516 476.568C247.94 477.936 246.692 478.656 244.844 478.656C242.228 478.656 240.74 477.36 240.38 474.768H251.156C251.108 473.136 251.012 472.512 250.628 471.552C249.692 469.2 247.508 467.808 244.748 467.808C240.956 467.808 238.22 470.544 238.22 474.312C238.22 477.96 240.812 480.408 244.7 480.408C247.628 480.408 249.86 478.992 250.772 476.568H248.516ZM240.38 473.16C240.692 472.176 240.956 471.576 241.316 471.096C242.036 470.136 243.308 469.56 244.7 469.56C246.956 469.56 248.588 470.952 248.948 473.16H240.38Z" fill="black"/>
<path d="M166.8 523H168.96V509.128L175.632 523H177.6L184.416 509.128V523H186.576V506.992H183.312L176.64 520.6L170.088 506.992H166.8V523Z" fill="black"/>
<path d="M202.911 521.344C202.623 521.368 202.503 521.392 202.383 521.392C201.375 521.392 201.111 521.104 201.111 520.072V515.296C201.111 513.232 200.871 512.512 199.959 511.816C199.095 511.144 197.655 510.808 195.519 510.808C191.823 510.808 189.975 512.08 189.615 514.864H191.799C192.015 513.208 193.047 512.584 195.591 512.584C197.775 512.584 198.999 513.256 198.999 514.456C198.999 515.296 198.471 515.68 197.199 515.824C194.151 516.16 193.311 516.256 192.903 516.304C190.431 516.736 189.183 517.888 189.183 519.76C189.183 521.992 191.055 523.408 193.959 523.408C196.311 523.408 198.039 522.616 199.047 521.056C199.239 522.448 200.031 523.072 201.519 523.072C202.215 523.072 202.455 523.024 202.911 522.832V521.344ZM199.095 516.784C199.095 517.744 198.999 518.752 198.831 519.208C198.351 520.552 196.335 521.656 194.367 521.656C192.711 521.656 191.463 520.84 191.463 519.76C191.463 519.328 191.703 518.848 192.087 518.56C192.471 518.248 192.999 518.08 194.199 517.888C197.895 517.264 197.895 517.264 199.095 516.784Z" fill="black"/>
<path d="M204.483 523H206.547V506.992H204.483V523Z" fill="black"/>
<path d="M219.476 519.568C218.9 520.936 217.652 521.656 215.804 521.656C213.188 521.656 211.7 520.36 211.34 517.768H222.116C222.068 516.136 221.972 515.512 221.588 514.552C220.652 512.2 218.468 510.808 215.708 510.808C211.916 510.808 209.18 513.544 209.18 517.312C209.18 520.96 211.772 523.408 215.66 523.408C218.588 523.408 220.82 521.992 221.732 519.568H219.476ZM211.34 516.16C211.652 515.176 211.916 514.576 212.276 514.096C212.996 513.136 214.268 512.56 215.66 512.56C217.916 512.56 219.548 513.952 219.908 516.16H211.34Z" fill="black"/>
<path d="M660.696 655H662.856V651.136H665.448V649.384H662.856V638.992H660.744L652.224 649.24V651.136H660.696V655ZM660.696 649.384H654.216L660.696 641.632V649.384Z" fill="black"/>
<path d="M668.188 650.896C668.332 652.216 668.74 653.08 669.556 653.824C670.708 654.88 672.508 655.456 674.596 655.456C678.676 655.456 681.268 653.224 681.268 649.744C681.268 646.48 678.892 644.416 675.172 644.416C673.396 644.416 672.028 644.872 670.828 645.856L671.956 641.056H680.116V638.992H670.372L668.692 647.68H670.828C671.788 646.744 672.82 646.36 674.524 646.36C677.236 646.36 678.988 647.752 678.988 649.888C678.988 650.896 678.556 651.904 677.86 652.528C677.116 653.176 675.964 653.512 674.476 653.512C672.1 653.512 670.804 652.696 670.372 650.896H668.188Z" fill="black"/>
<path d="M695.817 646.096H691.377V641.344H689.697V646.096H685.257V647.776H689.697V652.528H691.377V647.776H695.817V646.096Z" fill="black"/>
<path d="M652.344 606.96C652.44 610.512 654.768 612.456 658.944 612.456C662.88 612.456 665.472 610.368 665.472 607.176C665.472 605.088 664.368 603.864 662.232 603.576C663.96 603.024 664.848 601.848 664.848 600.12C664.848 597.408 662.496 595.536 659.04 595.536C655.296 595.536 652.968 597.552 652.92 600.84H655.008C655.152 598.656 656.52 597.48 658.92 597.48C661.08 597.48 662.568 598.584 662.568 600.192C662.568 601.08 662.112 601.896 661.44 602.256C660.912 602.52 660.096 602.664 659.088 602.664C658.68 602.664 658.368 602.64 657.768 602.592V604.512C658.32 604.464 658.608 604.464 658.968 604.464C661.776 604.464 663.192 605.424 663.192 607.344C663.192 609.336 661.56 610.512 658.776 610.512C656.136 610.512 654.624 609.24 654.576 606.96H652.344Z" fill="black"/>
<path d="M668.188 607.896C668.332 609.216 668.74 610.08 669.556 610.824C670.708 611.88 672.508 612.456 674.596 612.456C678.676 612.456 681.268 610.224 681.268 606.744C681.268 603.48 678.892 601.416 675.172 601.416C673.396 601.416 672.028 601.872 670.828 602.856L671.956 598.056H680.116V595.992H670.372L668.692 604.68H670.828C671.788 603.744 672.82 603.36 674.524 603.36C677.236 603.36 678.988 604.752 678.988 606.888C678.988 607.896 678.556 608.904 677.86 609.528C677.116 610.176 675.964 610.512 674.476 610.512C672.1 610.512 670.804 609.696 670.372 607.896H668.188Z" fill="black"/>
<path d="M688.641 606.936H695.433V605.064H688.641V606.936Z" fill="black"/>
<path d="M711.134 612H713.294V608.136H715.886V606.384H713.294V595.992H711.182L702.662 606.24V608.136H711.134V612ZM711.134 606.384H704.654L711.134 598.632V606.384Z" fill="black"/>
<path d="M726.813 612H728.973V608.136H731.565V606.384H728.973V595.992H726.861L718.341 606.24V608.136H726.813V612ZM726.813 606.384H720.333L726.813 598.632V606.384Z" fill="black"/>
<path d="M659.016 526H661.176V509.992H659.664C659.376 511.192 658.968 511.816 658.176 512.272C657.456 512.68 656.136 512.92 654.744 512.92C654.648 512.92 654.456 512.92 654.24 512.896V514.456H659.016V526Z" fill="black"/>
<path d="M669.934 517.216C667.702 517.672 666.166 519.4 666.166 521.512C666.166 522.952 667.006 524.488 668.23 525.28C669.43 526.048 671.11 526.456 672.982 526.456C674.878 526.456 676.558 526.048 677.758 525.28C678.982 524.488 679.822 522.952 679.822 521.512C679.822 519.424 678.31 517.672 676.054 517.216C678.022 516.688 678.982 515.584 678.982 513.832C678.982 511.192 676.678 509.536 672.982 509.536C669.31 509.536 667.006 511.192 667.006 513.832C667.006 515.584 667.966 516.688 669.934 517.216ZM673.006 518.248C675.814 518.248 677.542 519.4 677.542 521.272C677.542 523.192 675.694 524.512 673.006 524.512C670.27 524.512 668.446 523.192 668.446 521.224C668.446 519.4 670.198 518.248 673.006 518.248ZM673.006 511.48C675.262 511.48 676.702 512.416 676.702 513.88C676.702 515.368 675.19 516.4 673.006 516.4C670.774 516.4 669.286 515.368 669.286 513.832C669.286 512.416 670.774 511.48 673.006 511.48Z" fill="black"/>
<path d="M686.906 520.936H693.698V519.064H686.906V520.936Z" fill="black"/>
<path d="M713.959 523.936H703.951C704.311 523.216 705.511 522.304 707.311 521.368C710.383 519.808 710.551 519.712 711.343 519.208C713.215 518.008 714.007 516.664 714.007 514.672C714.007 511.576 711.559 509.536 707.863 509.536C705.799 509.536 704.047 510.184 702.895 511.408C701.959 512.368 701.551 513.52 701.455 515.368H703.663C703.831 512.848 705.271 511.48 707.791 511.48C710.143 511.48 711.727 512.776 711.727 514.672C711.727 516.352 710.911 517.288 708.127 518.68C703.063 521.104 701.431 522.856 701.215 526H713.959V523.936Z" fill="black"/>
<path d="M724.118 526H726.278V522.136H728.87V520.384H726.278V509.992H724.166L715.646 520.24V522.136H724.118V526ZM724.118 520.384H717.638L724.118 512.632V520.384Z" fill="black"/>
<path d="M665.256 566.936H655.248C655.608 566.216 656.808 565.304 658.608 564.368C661.68 562.808 661.848 562.712 662.64 562.208C664.512 561.008 665.304 559.664 665.304 557.672C665.304 554.576 662.856 552.536 659.16 552.536C657.096 552.536 655.344 553.184 654.192 554.408C653.256 555.368 652.848 556.52 652.752 558.368H654.96C655.128 555.848 656.568 554.48 659.088 554.48C661.44 554.48 663.024 555.776 663.024 557.672C663.024 559.352 662.208 560.288 659.424 561.68C654.36 564.104 652.728 565.856 652.512 569H665.256V566.936Z" fill="black"/>
<path d="M668.188 564.896C668.332 566.216 668.74 567.08 669.556 567.824C670.708 568.88 672.508 569.456 674.596 569.456C678.676 569.456 681.268 567.224 681.268 563.744C681.268 560.48 678.892 558.416 675.172 558.416C673.396 558.416 672.028 558.872 670.828 559.856L671.956 555.056H680.116V552.992H670.372L668.692 561.68H670.828C671.788 560.744 672.82 560.36 674.524 560.36C677.236 560.36 678.988 561.752 678.988 563.888C678.988 564.896 678.556 565.904 677.86 566.528C677.116 567.176 675.964 567.512 674.476 567.512C672.1 567.512 670.804 566.696 670.372 564.896H668.188Z" fill="black"/>
<path d="M688.641 563.936H695.433V562.064H688.641V563.936Z" fill="black"/>
<path d="M702.782 563.96C702.878 567.512 705.206 569.456 709.382 569.456C713.318 569.456 715.91 567.368 715.91 564.176C715.91 562.088 714.806 560.864 712.67 560.576C714.398 560.024 715.286 558.848 715.286 557.12C715.286 554.408 712.934 552.536 709.478 552.536C705.734 552.536 703.406 554.552 703.358 557.84H705.446C705.59 555.656 706.958 554.48 709.358 554.48C711.518 554.48 713.006 555.584 713.006 557.192C713.006 558.08 712.55 558.896 711.878 559.256C711.35 559.52 710.534 559.664 709.526 559.664C709.118 559.664 708.806 559.64 708.206 559.592V561.512C708.758 561.464 709.046 561.464 709.406 561.464C712.214 561.464 713.63 562.424 713.63 564.344C713.63 566.336 711.998 567.512 709.214 567.512C706.574 567.512 705.062 566.24 705.014 563.96H702.782Z" fill="black"/>
<path d="M726.813 569H728.973V565.136H731.565V563.384H728.973V552.992H726.861L718.341 563.24V565.136H726.813V569ZM726.813 563.384H720.333L726.813 555.632V563.384Z" fill="black"/>
<path d="M659.016 483H661.176V466.992H659.664C659.376 468.192 658.968 468.816 658.176 469.272C657.456 469.68 656.136 469.92 654.744 469.92C654.648 469.92 654.456 469.92 654.24 469.896V471.456H659.016V483Z" fill="black"/>
<path d="M666.196 477.96C666.292 481.512 668.62 483.456 672.796 483.456C676.732 483.456 679.324 481.368 679.324 478.176C679.324 476.088 678.22 474.864 676.084 474.576C677.812 474.024 678.7 472.848 678.7 471.12C678.7 468.408 676.348 466.536 672.892 466.536C669.148 466.536 666.82 468.552 666.772 471.84H668.86C669.004 469.656 670.372 468.48 672.772 468.48C674.932 468.48 676.42 469.584 676.42 471.192C676.42 472.08 675.964 472.896 675.292 473.256C674.764 473.52 673.948 473.664 672.94 473.664C672.532 473.664 672.22 473.64 671.62 473.592V475.512C672.172 475.464 672.46 475.464 672.82 475.464C675.628 475.464 677.044 476.424 677.044 478.344C677.044 480.336 675.412 481.512 672.628 481.512C669.988 481.512 668.476 480.24 668.428 477.96H666.196Z" fill="black"/>
<path d="M686.672 477.936H693.464V476.064H686.672V477.936Z" fill="black"/>
<path d="M701.485 483H703.645V466.992H702.133C701.845 468.192 701.437 468.816 700.645 469.272C699.925 469.68 698.605 469.92 697.213 469.92C697.117 469.92 696.925 469.92 696.709 469.896V471.456H701.485V483Z" fill="black"/>
<path d="M708.487 469.056H719.095C718.255 469.752 716.575 472.128 714.655 475.368C713.311 477.648 712.015 480.84 711.559 483H714.079C714.487 480.24 716.815 474.864 719.047 471.576C720.103 470.136 720.703 469.272 720.895 469.008V466.992H708.487V469.056Z" fill="black"/>
<path d="M1153.85 466.992V476.712C1153.85 477.84 1153.73 478.632 1153.44 479.28C1152.82 480.648 1151.09 481.464 1148.86 481.464C1146.84 481.464 1145.11 480.744 1144.44 479.616C1144.03 478.92 1143.84 478.032 1143.84 476.712V466.992H1141.66V476.568C1141.66 478.632 1141.85 479.664 1142.35 480.552C1143.41 482.4 1145.81 483.456 1148.83 483.456C1151.62 483.456 1153.87 482.568 1155.05 481.008C1155.79 480 1156.03 478.92 1156.03 476.568V466.992H1153.85Z" fill="black"/>
<path d="M1159.3 483H1161.7V480.648H1159.3V483Z" fill="black"/>
<path d="M1164.38 477.888C1164.52 481.632 1166.97 483.456 1171.79 483.456C1176.09 483.456 1178.82 481.44 1178.82 478.272C1178.82 476.688 1178.1 475.488 1176.83 474.888C1176.06 474.552 1174.67 474.216 1172.49 473.904C1169.92 473.52 1169.42 473.4 1168.7 473.16C1167.54 472.752 1167.02 472.152 1167.02 471.216C1167.02 469.56 1168.62 468.528 1171.22 468.528C1174.02 468.528 1175.58 469.464 1175.99 471.432H1178.22C1177.82 468.144 1175.54 466.536 1171.34 466.536C1167.28 466.536 1164.62 468.456 1164.62 471.384C1164.62 472.896 1165.41 474.144 1166.8 474.84C1167.76 475.32 1168.53 475.512 1171.41 475.944C1173.76 476.304 1174.34 476.424 1174.89 476.616C1175.92 477 1176.42 477.648 1176.42 478.608C1176.42 480.48 1174.82 481.464 1171.77 481.464C1168.46 481.464 1166.92 480.408 1166.58 477.888H1164.38Z" fill="black"/>
<path d="M1181.5 483H1183.9V480.648H1181.5V483Z" fill="black"/>
<path d="M1185.71 483H1188.06L1190.05 478.44H1198.16L1200.28 483H1202.7L1195.33 466.992H1192.72L1185.71 483ZM1190.92 476.472L1194.01 469.176L1197.35 476.472H1190.92Z" fill="black"/>
<path d="M1155.67 520.072C1155.05 522.952 1153.08 524.464 1149.89 524.464C1145.88 524.464 1143.55 522.136 1143.55 518.152C1143.55 514.024 1145.9 511.528 1149.79 511.528C1152.86 511.528 1155.05 513.112 1155.58 515.704H1157.93C1157.83 514.456 1157.4 513.4 1156.54 512.32C1155.05 510.472 1152.74 509.536 1149.72 509.536C1147.34 509.536 1145.47 510.136 1143.98 511.384C1142.18 512.92 1141.15 515.32 1141.15 517.984C1141.15 520.48 1142.06 522.832 1143.6 524.272C1145.09 525.688 1147.32 526.456 1149.94 526.456C1152.31 526.456 1154.18 525.784 1155.72 524.368C1157.06 523.144 1157.78 521.776 1157.98 520.072H1155.67Z" fill="black"/>
<path d="M1160.31 526H1162.38V519.88C1162.38 518.896 1162.5 518.224 1162.74 517.696C1163.34 516.472 1164.9 515.632 1166.6 515.632C1168.83 515.632 1169.98 516.832 1169.98 519.208V526H1172.05V519.136C1172.05 517.384 1171.98 516.856 1171.69 516.184C1171.06 514.72 1169.41 513.88 1167.2 513.88C1165.02 513.88 1163.5 514.648 1162.38 516.352V509.848H1160.31V526Z" fill="black"/>
<path d="M1175.31 526H1177.38V514.216H1175.31V526ZM1175.31 512.248H1177.38V509.992H1175.31V512.248Z" fill="black"/>
<path d="M1180.58 526H1182.67V520.144C1182.67 518.728 1182.79 518.008 1183.08 517.408C1183.7 516.232 1184.95 515.632 1186.8 515.632C1188.48 515.632 1189.46 516.112 1189.85 517.144C1190.06 517.672 1190.11 518.128 1190.11 519.448V526H1192.18V519.208C1192.18 517.336 1192.1 516.664 1191.82 516.016C1191.22 514.648 1189.68 513.88 1187.5 513.88C1185.26 513.88 1184.02 514.528 1182.67 516.352V514.216H1180.58V526Z" fill="black"/>
<path d="M1208.31 524.344C1208.02 524.368 1207.9 524.392 1207.78 524.392C1206.77 524.392 1206.51 524.104 1206.51 523.072V518.296C1206.51 516.232 1206.27 515.512 1205.36 514.816C1204.49 514.144 1203.05 513.808 1200.92 513.808C1197.22 513.808 1195.37 515.08 1195.01 517.864H1197.2C1197.41 516.208 1198.45 515.584 1200.99 515.584C1203.17 515.584 1204.4 516.256 1204.4 517.456C1204.4 518.296 1203.87 518.68 1202.6 518.824C1199.55 519.16 1198.71 519.256 1198.3 519.304C1195.83 519.736 1194.58 520.888 1194.58 522.76C1194.58 524.992 1196.45 526.408 1199.36 526.408C1201.71 526.408 1203.44 525.616 1204.45 524.056C1204.64 525.448 1205.43 526.072 1206.92 526.072C1207.61 526.072 1207.85 526.024 1208.31 525.832V524.344ZM1204.49 519.784C1204.49 520.744 1204.4 521.752 1204.23 522.208C1203.75 523.552 1201.73 524.656 1199.77 524.656C1198.11 524.656 1196.86 523.84 1196.86 522.76C1196.86 522.328 1197.1 521.848 1197.49 521.56C1197.87 521.248 1198.4 521.08 1199.6 520.888C1203.29 520.264 1203.29 520.264 1204.49 519.784Z" fill="black"/>
<path d="M1153.85 595.992V605.712C1153.85 606.84 1153.73 607.632 1153.44 608.28C1152.82 609.648 1151.09 610.464 1148.86 610.464C1146.84 610.464 1145.11 609.744 1144.44 608.616C1144.03 607.92 1143.84 607.032 1143.84 605.712V595.992H1141.66V605.568C1141.66 607.632 1141.85 608.664 1142.35 609.552C1143.41 611.4 1145.81 612.456 1148.83 612.456C1151.62 612.456 1153.87 611.568 1155.05 610.008C1155.79 609 1156.03 607.92 1156.03 605.568V595.992H1153.85Z" fill="black"/>
<path d="M1159.3 612H1161.7V609.648H1159.3V612Z" fill="black"/>
<path d="M1165.14 612H1167.3V606.888L1170.4 604.224L1176.95 612H1179.86L1172.06 602.832L1179.86 595.992H1176.62L1167.3 604.488V595.992H1165.14V612Z" fill="black"/>
<path d="M1141.8 569H1143.96V563.888L1147.06 561.224L1153.61 569H1156.51L1148.71 559.832L1156.51 552.992H1153.27L1143.96 561.488V552.992H1141.8V569Z" fill="black"/>
<path d="M1163.62 556.808C1159.59 556.808 1156.78 559.352 1156.78 563.048C1156.78 566.84 1159.54 569.408 1163.6 569.408C1167.61 569.408 1170.39 566.888 1170.39 563.264C1170.39 559.376 1167.7 556.808 1163.62 556.808ZM1163.67 558.56C1166.33 558.56 1168.11 560.384 1168.11 563.144C1168.11 565.88 1166.36 567.656 1163.67 567.656C1162.35 567.656 1161.15 567.224 1160.31 566.432C1159.45 565.64 1159.06 564.608 1159.06 563.12C1159.06 560.408 1160.93 558.56 1163.67 558.56Z" fill="black"/>
<path d="M1173.01 569H1175.1V563.12C1175.1 561.752 1175.34 560.936 1175.94 560.264C1176.73 559.4 1177.79 558.944 1179.01 558.944C1179.47 558.944 1179.81 558.992 1180.41 559.112V557C1179.95 556.904 1179.71 556.88 1179.33 556.88C1178.25 556.88 1177.26 557.216 1176.57 557.864C1176.04 558.32 1175.65 558.872 1175.1 559.976V557.216H1173.01V569Z" fill="black"/>
<path d="M1191.83 565.568C1191.25 566.936 1190 567.656 1188.16 567.656C1185.54 567.656 1184.05 566.36 1183.69 563.768H1194.47C1194.42 562.136 1194.32 561.512 1193.94 560.552C1193 558.2 1190.82 556.808 1188.06 556.808C1184.27 556.808 1181.53 559.544 1181.53 563.312C1181.53 566.96 1184.12 569.408 1188.01 569.408C1190.94 569.408 1193.17 567.992 1194.08 565.568H1191.83ZM1183.69 562.16C1184 561.176 1184.27 560.576 1184.63 560.096C1185.35 559.136 1186.62 558.56 1188.01 558.56C1190.27 558.56 1191.9 559.952 1192.26 562.16H1183.69Z" fill="black"/>
<path d="M1210 567.344C1209.71 567.368 1209.59 567.392 1209.47 567.392C1208.46 567.392 1208.2 567.104 1208.2 566.072V561.296C1208.2 559.232 1207.96 558.512 1207.04 557.816C1206.18 557.144 1204.74 556.808 1202.6 556.808C1198.91 556.808 1197.06 558.08 1196.7 560.864H1198.88C1199.1 559.208 1200.13 558.584 1202.68 558.584C1204.86 558.584 1206.08 559.256 1206.08 560.456C1206.08 561.296 1205.56 561.68 1204.28 561.824C1201.24 562.16 1200.4 562.256 1199.99 562.304C1197.52 562.736 1196.27 563.888 1196.27 565.76C1196.27 567.992 1198.14 569.408 1201.04 569.408C1203.4 569.408 1205.12 568.616 1206.13 567.056C1206.32 568.448 1207.12 569.072 1208.6 569.072C1209.3 569.072 1209.54 569.024 1210 568.832V567.344ZM1206.18 562.784C1206.18 563.744 1206.08 564.752 1205.92 565.208C1205.44 566.552 1203.42 567.656 1201.45 567.656C1199.8 567.656 1198.55 566.84 1198.55 565.76C1198.55 565.328 1198.79 564.848 1199.17 564.56C1199.56 564.248 1200.08 564.08 1201.28 563.888C1204.98 563.264 1204.98 563.264 1206.18 562.784Z" fill="black"/>
<path d="M1150.15 638.536C1144.9 638.536 1141.15 642.04 1141.15 647.008C1141.15 652.096 1144.61 655.456 1149.86 655.456C1155.05 655.456 1158.72 651.904 1158.72 646.888C1158.72 641.92 1155.24 638.536 1150.15 638.536ZM1150.1 640.528C1153.8 640.528 1156.32 643.168 1156.32 647.032C1156.32 650.872 1153.73 653.464 1149.91 653.464C1146.12 653.464 1143.55 650.824 1143.55 646.936C1143.55 643.24 1146.31 640.528 1150.1 640.528Z" fill="black"/>
<path d="M1166.88 653.44C1166.38 653.56 1166.07 653.584 1165.47 653.584C1164.29 653.584 1164.03 653.344 1164.03 652.168V644.824H1166.96V643.216H1164.03V640.024H1161.96V643.216H1159.97V644.824H1161.96V652.216C1161.99 653.728 1161.99 653.872 1162.18 654.232C1162.54 655 1163.43 655.336 1165.06 655.336C1165.76 655.336 1166.19 655.288 1166.88 655.168V653.44Z" fill="black"/>
<path d="M1169.15 655H1171.21V648.88C1171.21 647.896 1171.33 647.224 1171.57 646.696C1172.17 645.472 1173.73 644.632 1175.44 644.632C1177.67 644.632 1178.82 645.832 1178.82 648.208V655H1180.88V648.136C1180.88 646.384 1180.81 645.856 1180.52 645.184C1179.9 643.72 1178.24 642.88 1176.04 642.88C1173.85 642.88 1172.34 643.648 1171.21 645.352V638.848H1169.15V655Z" fill="black"/>
<path d="M1193.84 651.568C1193.27 652.936 1192.02 653.656 1190.17 653.656C1187.56 653.656 1186.07 652.36 1185.71 649.768H1196.48C1196.44 648.136 1196.34 647.512 1195.96 646.552C1195.02 644.2 1192.84 642.808 1190.08 642.808C1186.28 642.808 1183.55 645.544 1183.55 649.312C1183.55 652.96 1186.14 655.408 1190.03 655.408C1192.96 655.408 1195.19 653.992 1196.1 651.568H1193.84ZM1185.71 648.16C1186.02 647.176 1186.28 646.576 1186.64 646.096C1187.36 645.136 1188.64 644.56 1190.03 644.56C1192.28 644.56 1193.92 645.952 1194.28 648.16H1185.71Z" fill="black"/>
<path d="M1199.1 655H1201.19V649.12C1201.19 647.752 1201.43 646.936 1202.03 646.264C1202.82 645.4 1203.88 644.944 1205.1 644.944C1205.56 644.944 1205.89 644.992 1206.49 645.112V643C1206.04 642.904 1205.8 642.88 1205.41 642.88C1204.33 642.88 1203.35 643.216 1202.65 643.864C1202.12 644.32 1201.74 644.872 1201.19 645.976V643.216H1199.1V655Z" fill="black"/>
<path d="M1207.78 651.4C1207.87 653.992 1210.03 655.408 1213.92 655.408C1217.45 655.408 1219.7 653.92 1219.7 651.568C1219.7 650.176 1218.96 649.264 1217.45 648.736C1216.54 648.424 1215.62 648.256 1213.63 647.992C1211.14 647.68 1210.42 647.32 1210.42 646.288C1210.42 645.232 1211.64 644.584 1213.58 644.584C1214.66 644.584 1215.6 644.824 1216.3 645.28C1216.82 645.616 1217.07 646 1217.23 646.792H1219.25C1219.15 645.568 1218.86 644.896 1218.17 644.224C1217.14 643.264 1215.72 642.808 1213.73 642.808C1212.05 642.808 1210.85 643.096 1209.82 643.72C1208.79 644.344 1208.14 645.472 1208.14 646.624C1208.14 647.704 1208.69 648.592 1209.67 649.144C1210.42 649.552 1211.06 649.696 1213.27 650.008C1215.05 650.248 1215.96 650.416 1216.39 650.56C1217.11 650.824 1217.42 651.232 1217.42 651.856C1217.42 652.984 1216.13 653.656 1213.94 653.656C1212.46 653.656 1211.21 653.32 1210.61 652.792C1210.2 652.432 1210.03 652.072 1209.91 651.4H1207.78Z" fill="black"/>
<path d="M582.952 16.7401H590.272L591.622 21.0001H595.732L588.952 0.990096H584.542L577.492 21.0001H581.602L582.952 16.7401ZM583.852 13.8301L586.612 4.8601L589.402 13.8301H583.852Z" fill="black"/>
<path d="M607.6 6.3901V8.1601C606.64 6.7801 604.99 6.0001 603.04 6.0001C599.29 6.0001 596.68 8.8801 596.68 12.9901C596.68 17.0701 599.32 19.8301 603.22 19.8301C604.93 19.8301 606.31 19.2001 607.36 17.9701V19.3201C607.36 20.6401 607.27 21.1801 606.94 21.7801C606.43 22.7101 605.38 23.1901 603.94 23.1901C602.44 23.1901 601.6 22.6801 601.3 21.5401H597.58C597.82 22.7401 598.18 23.4601 598.93 24.1201C600.16 25.2301 601.93 25.8001 604.15 25.8001C606.85 25.8001 608.95 24.9001 610.12 23.2801C610.84 22.3201 610.99 21.5701 610.99 19.3201V6.3901H607.6ZM603.97 8.9101C606.07 8.9101 607.48 10.5901 607.48 13.0201C607.48 15.5401 606.13 17.0701 603.88 17.0701C601.81 17.0701 600.43 15.4501 600.43 13.0201C600.43 10.5301 601.81 8.9101 603.97 8.9101Z" fill="black"/>
<path d="M628.483 14.5501C628.393 9.2101 625.633 6.0001 621.163 6.0001C616.933 6.0001 614.053 9.1201 614.053 13.7101C614.053 18.2101 617.113 21.3901 621.463 21.3901C624.793 21.3901 627.463 19.5601 628.333 16.6201H624.553C623.893 17.8501 622.843 18.4801 621.403 18.4801C619.333 18.4801 618.073 17.1001 617.803 14.5501H628.483ZM617.893 12.1501C618.193 10.0201 619.423 8.8201 621.283 8.8201C623.233 8.8201 624.433 10.0201 624.703 12.1501H617.893Z" fill="black"/>
<path d="M643.201 12.9001H646.321C649.681 12.9001 650.671 14.1301 650.821 18.5101C650.881 19.9501 650.971 20.4001 651.331 21.0001H655.081C654.661 20.1301 654.601 19.7701 654.451 17.8201C654.271 14.9101 654.211 14.5201 653.851 13.6201C653.221 12.3601 652.141 11.7301 650.251 11.5501C651.661 11.1601 652.291 10.8901 653.011 10.4401C654.271 9.6601 655.021 8.1301 655.021 6.4501C655.021 4.1701 653.731 2.2201 651.721 1.4701C650.671 1.0801 649.891 0.990096 647.461 0.990096H639.241V21.0001H643.201V12.9001ZM643.201 9.9601V4.1401H647.311C648.241 4.1401 648.991 4.2301 649.441 4.3801C650.521 4.7701 651.181 5.7601 651.181 7.0201C651.181 8.9101 649.801 9.9601 647.341 9.9601H643.201Z" fill="black"/>
<path d="M661.614 10.7401C661.734 9.3301 662.784 8.5501 664.494 8.5501C666.084 8.5501 667.164 9.3301 667.164 10.4401C667.164 11.3401 666.564 11.7301 664.884 11.9101C662.634 12.1801 661.134 12.5401 660.054 13.0801C658.284 13.9201 657.324 15.3001 657.324 16.9201C657.324 19.3801 659.754 21.3901 662.724 21.3901C664.404 21.3901 665.844 20.8501 667.404 19.6501L667.824 21.0001H671.364C670.944 20.1001 670.884 19.6501 670.884 17.9101V11.7901C670.884 10.3201 670.734 9.3601 670.344 8.6101C669.534 6.9001 667.524 6.0001 664.524 6.0001C662.124 6.0001 660.294 6.6601 659.244 7.8901C658.674 8.5801 658.374 9.3301 658.194 10.7401H661.614ZM667.314 15.3301C667.314 16.5001 667.074 17.1001 666.414 17.6101C665.694 18.1801 664.704 18.4801 663.624 18.4801C662.094 18.4801 661.074 17.7601 661.074 16.7101C661.074 15.5101 662.004 14.9101 665.004 14.1901C666.264 13.8901 666.624 13.7701 667.314 13.3201V15.3301Z" fill="black"/>
<path d="M674.509 6.3901V21.0001H678.169V12.8401C678.169 10.5301 679.279 9.2101 681.229 9.2101C682.219 9.2101 682.999 9.6301 683.479 10.4101C683.779 10.8901 683.869 11.4001 683.869 12.5701V21.0001H687.529V11.6101C687.529 10.3201 687.349 9.3301 686.929 8.5801C686.119 7.0201 684.349 6.0001 682.459 6.0001C680.689 6.0001 679.519 6.6601 678.169 8.4301V6.3901H674.509Z" fill="black"/>
<path d="M701.496 6.3901V8.1601C700.536 6.7801 698.886 6.0001 696.936 6.0001C693.186 6.0001 690.576 8.8801 690.576 12.9901C690.576 17.0701 693.216 19.8301 697.116 19.8301C698.826 19.8301 700.206 19.2001 701.256 17.9701V19.3201C701.256 20.6401 701.166 21.1801 700.836 21.7801C700.326 22.7101 699.276 23.1901 697.836 23.1901C696.336 23.1901 695.496 22.6801 695.196 21.5401H691.476C691.716 22.7401 692.076 23.4601 692.826 24.1201C694.056 25.2301 695.826 25.8001 698.046 25.8001C700.746 25.8001 702.846 24.9001 704.016 23.2801C704.736 22.3201 704.886 21.5701 704.886 19.3201V6.3901H701.496ZM697.866 8.9101C699.966 8.9101 701.376 10.5901 701.376 13.0201C701.376 15.5401 700.026 17.0701 697.776 17.0701C695.706 17.0701 694.326 15.4501 694.326 13.0201C694.326 10.5301 695.706 8.9101 697.866 8.9101Z" fill="black"/>
<path d="M722.379 14.5501C722.289 9.2101 719.529 6.0001 715.059 6.0001C710.829 6.0001 707.949 9.1201 707.949 13.7101C707.949 18.2101 711.009 21.3901 715.359 21.3901C718.689 21.3901 721.359 19.5601 722.229 16.6201H718.449C717.789 17.8501 716.739 18.4801 715.299 18.4801C713.229 18.4801 711.969 17.1001 711.699 14.5501H722.379ZM711.789 12.1501C712.089 10.0201 713.319 8.8201 715.179 8.8201C717.129 8.8201 718.329 10.0201 718.599 12.1501H711.789Z" fill="black"/>
<path d="M126.126 10.1701V13.3201H131.106C130.746 16.1101 128.496 18.0901 125.646 18.0901C122.286 18.0901 119.916 15.1501 119.916 11.0101C119.916 6.9001 122.406 3.9001 125.796 3.9001C128.196 3.9001 129.816 5.1001 130.416 7.3201H134.136C133.386 3.2101 130.086 0.600098 125.586 0.600098C119.916 0.600098 115.956 4.9201 115.956 11.1001C115.956 16.9801 119.826 21.3901 125.046 21.3901C127.626 21.3901 129.726 20.3701 131.376 18.2701L131.766 21.0001H134.406V10.1701H126.126Z" fill="black"/>
<path d="M151.741 14.5501C151.651 9.2101 148.891 6.0001 144.421 6.0001C140.191 6.0001 137.311 9.1201 137.311 13.7101C137.311 18.2101 140.371 21.3901 144.721 21.3901C148.051 21.3901 150.721 19.5601 151.591 16.6201H147.811C147.151 17.8501 146.101 18.4801 144.661 18.4801C142.591 18.4801 141.331 17.1001 141.061 14.5501H151.741ZM141.151 12.1501C141.451 10.0201 142.681 8.8201 144.541 8.8201C146.491 8.8201 147.691 10.0201 147.961 12.1501H141.151Z" fill="black"/>
<path d="M154.759 6.3901V21.0001H158.419V12.8401C158.419 10.5301 159.529 9.2101 161.479 9.2101C162.469 9.2101 163.249 9.6301 163.729 10.4101C164.029 10.8901 164.119 11.4001 164.119 12.5701V21.0001H167.779V11.6101C167.779 10.3201 167.599 9.3301 167.179 8.5801C166.369 7.0201 164.599 6.0001 162.709 6.0001C160.939 6.0001 159.769 6.6601 158.419 8.4301V6.3901H154.759Z" fill="black"/>
<path d="M181.476 0.990096V8.0401C180.126 6.6901 178.626 6.0001 176.976 6.0001C173.496 6.0001 170.796 9.3901 170.796 13.7701C170.796 18.1801 173.496 21.3901 177.246 21.3901C178.896 21.3901 179.916 20.8801 181.476 19.3201V21.0001H185.136V0.990096H181.476ZM178.116 8.9101C180.216 8.9101 181.656 10.8601 181.656 13.6501C181.656 16.5301 180.186 18.4801 178.056 18.4801C175.986 18.4801 174.546 16.5301 174.546 13.7401C174.546 10.7701 175.926 8.9101 178.116 8.9101Z" fill="black"/>
<path d="M202.629 14.5501C202.539 9.2101 199.779 6.0001 195.309 6.0001C191.079 6.0001 188.199 9.1201 188.199 13.7101C188.199 18.2101 191.259 21.3901 195.609 21.3901C198.939 21.3901 201.609 19.5601 202.479 16.6201H198.699C198.039 17.8501 196.989 18.4801 195.549 18.4801C193.479 18.4801 192.219 17.1001 191.949 14.5501H202.629ZM192.039 12.1501C192.339 10.0201 193.569 8.8201 195.429 8.8201C197.379 8.8201 198.579 10.0201 198.849 12.1501H192.039Z" fill="black"/>
<path d="M205.648 6.3901V21.0001H209.308V13.5901C209.308 10.9201 210.808 9.2701 213.268 9.2701C213.388 9.2701 213.658 9.2701 213.898 9.3001V6.1501C213.418 6.0901 213.208 6.0901 212.938 6.0901C211.498 6.0901 210.298 6.8401 209.308 8.4001V6.3901H205.648Z" fill="black"/>
<path d="M1099.08 14.4301C1098.42 16.8901 1096.86 18.0901 1094.34 18.0901C1092.69 18.0901 1091.4 17.5201 1090.35 16.3201C1089.12 14.9101 1088.46 13.0801 1088.46 10.9801C1088.46 6.8701 1090.95 3.9001 1094.37 3.9001C1096.8 3.9001 1098.42 5.1601 1098.96 7.4401H1102.92C1102.02 3.0301 1098.93 0.600098 1094.22 0.600098C1088.46 0.600098 1084.5 4.8601 1084.5 11.0701C1084.5 14.1601 1085.55 16.8901 1087.56 18.8701C1089.33 20.6101 1091.37 21.3901 1094.19 21.3901C1097.43 21.3901 1099.83 20.3101 1101.51 18.0601C1102.35 16.9201 1102.74 15.9301 1102.92 14.4301H1099.08Z" fill="black"/>
<path d="M1112.48 6.0001C1108.07 6.0001 1104.89 9.2401 1104.89 13.6801C1104.89 18.1201 1108.07 21.3901 1112.36 21.3901C1116.86 21.3901 1120.04 18.2101 1120.04 13.6801C1120.04 9.2401 1116.86 6.0001 1112.48 6.0001ZM1112.48 8.9101C1114.76 8.9101 1116.29 10.8301 1116.29 13.6801C1116.29 16.5601 1114.76 18.4801 1112.48 18.4801C1110.14 18.4801 1108.64 16.5601 1108.64 13.6201C1108.64 10.8301 1110.2 8.9101 1112.48 8.9101Z" fill="black"/>
<path d="M1135.97 6.3901H1132.31V14.5501C1132.31 15.8101 1132.13 16.5001 1131.65 17.1001C1131.14 17.7601 1130.24 18.1801 1129.31 18.1801C1128.14 18.1801 1127.27 17.6101 1126.94 16.6201C1126.76 16.0801 1126.73 15.8101 1126.73 14.3401V6.3901H1123.07V14.5501C1123.07 16.4401 1123.13 17.1601 1123.34 17.9101C1123.97 20.0401 1125.74 21.3901 1127.99 21.3901C1129.61 21.3901 1130.87 20.8201 1132.31 19.5001V21.0001H1135.97V6.3901Z" fill="black"/>
<path d="M1139.74 6.3901V21.0001H1143.4V12.8401C1143.4 10.5301 1144.51 9.2101 1146.46 9.2101C1147.45 9.2101 1148.23 9.6301 1148.71 10.4101C1149.01 10.8901 1149.1 11.4001 1149.1 12.5701V21.0001H1152.76V11.6101C1152.76 10.3201 1152.58 9.3301 1152.16 8.5801C1151.35 7.0201 1149.58 6.0001 1147.69 6.0001C1145.92 6.0001 1144.75 6.6601 1143.4 8.4301V6.3901H1139.74Z" fill="black"/>
<path d="M1160.48 6.3901V1.5301H1156.82V6.3901H1154.78V8.7001H1156.82V16.1101C1156.82 17.4301 1156.85 18.0301 1156.97 18.6001C1157.18 19.6801 1157.72 20.3701 1158.71 20.7601C1159.22 20.9701 1159.49 21.0001 1160.84 21.0001H1163.45V18.3001L1163.15 18.3301L1162.13 18.3601C1161.53 18.3601 1161.02 18.1801 1160.78 17.8501C1160.54 17.5501 1160.48 17.2201 1160.48 16.1101V8.7001H1163.24V6.3901H1160.48Z" fill="black"/>
<path d="M1165.96 6.3901V21.0001H1169.62V13.5901C1169.62 10.9201 1171.12 9.2701 1173.58 9.2701C1173.7 9.2701 1173.97 9.2701 1174.21 9.3001V6.1501C1173.73 6.0901 1173.52 6.0901 1173.25 6.0901C1171.81 6.0901 1170.61 6.8401 1169.62 8.4001V6.3901H1165.96Z" fill="black"/>
<path d="M1185.99 6.3901L1182.9 17.1601L1179.54 6.3901H1175.55L1180.08 18.0901C1180.44 19.0801 1180.77 20.4001 1180.77 20.9401C1180.77 21.6601 1180.44 22.3501 1179.93 22.6801C1179.57 22.9501 1179.09 23.0401 1178.25 23.0401H1177.17V25.8901H1179.03C1180.95 25.8901 1181.34 25.8301 1182.18 25.3801C1183.17 24.8401 1183.83 23.8501 1184.43 22.1101L1189.74 6.3901H1185.99Z" fill="black"/>
<path d="M635 477C635 483.628 629.627 489 623 489C616.373 489 611 483.628 611 477C611 470.373 616.373 465 623 465C629.627 465 635 470.373 635 477Z" fill="#CED7FF"/>
<path d="M635 520C635 526.628 629.627 532 623 532C616.373 532 611 526.628 611 520C611 513.373 616.373 508 623 508C629.627 508 635 513.373 635 520Z" fill="#A2B1F5"/>
<path d="M143 474C143 480.628 137.627 486 131 486C124.373 486 119 480.628 119 474C119 467.373 124.373 462 131 462C137.627 462 143 467.373 143 474Z" fill="#CED7FF"/>
<path d="M143 517C143 523.628 137.627 529 131 529C124.373 529 119 523.628 119 517C119 510.373 124.373 505 131 505C137.627 505 143 510.373 143 517Z" fill="#A2B1F5"/>
<path d="M635 563C635 569.628 629.627 575 623 575C616.373 575 611 569.628 611 563C611 556.373 616.373 551 623 551C629.627 551 635 556.373 635 563Z" fill="#7584C8"/>
<path d="M635 606C635 612.628 629.627 618 623 618C616.373 618 611 612.628 611 606C611 599.373 616.373 594 623 594C629.627 594 635 599.373 635 606Z" fill="#475596"/>
<path d="M635 649C635 655.628 629.627 661 623 661C616.373 661 611 655.628 611 649C611 642.373 616.373 637 623 637C629.627 637 635 642.373 635 649Z" fill="#242E5A"/>
<path d="M1128 477C1128 483.628 1122.63 489 1116 489C1109.37 489 1104 483.628 1104 477C1104 470.373 1109.37 465 1116 465C1122.63 465 1128 470.373 1128 477Z" fill="#CED7FF"/>
<path d="M1128 520C1128 526.628 1122.63 532 1116 532C1109.37 532 1104 526.628 1104 520C1104 513.373 1109.37 508 1116 508C1122.63 508 1128 513.373 1128 520Z" fill="#A2B1F5"/>
<path d="M1128 563C1128 569.628 1122.63 575 1116 575C1109.37 575 1104 569.628 1104 563C1104 556.373 1109.37 551 1116 551C1122.63 551 1128 556.373 1128 563Z" fill="#7584C8"/>
<path d="M1128 606C1128 612.628 1122.63 618 1116 618C1109.37 618 1104 612.628 1104 606C1104 599.373 1109.37 594 1116 594C1122.63 594 1128 599.373 1128 606Z" fill="#475596"/>
<path d="M1128 649C1128 655.628 1122.63 661 1116 661C1109.37 661 1104 655.628 1104 649C1104 642.373 1109.37 637 1116 637C1122.63 637 1128 642.373 1128 649Z" fill="#242E5A"/>
</svg>
