<svg width="384" height="512" viewBox="0 0 384 512" fill="none" xmlns="http://www.w3.org/2000/svg">
<rect x="0.120117" y="0.306152" width="383.599" height="510.85" rx="47" fill="#CED7FF"/>
<path d="M39.5751 163.66C37.2351 163.66 35.3751 165.49 35.3751 167.83C35.3751 170.11 37.2351 171.97 39.5451 171.97C41.8251 171.97 43.6851 170.11 43.6851 167.83C43.6851 165.55 41.8251 163.66 39.5751 163.66ZM62.21 178H65.15L67.64 172.3H77.78L80.42 178H83.45L74.24 157.99H70.97L62.21 178ZM68.72 169.84L72.59 160.72L76.76 169.84H68.72ZM85.6311 178H88.2411V170.68C88.2411 168.91 88.3911 168.01 88.7511 167.26C89.5311 165.79 91.0911 165.04 93.4011 165.04C95.5011 165.04 96.7311 165.64 97.2111 166.93C97.4811 167.59 97.5411 168.16 97.5411 169.81V178H100.121V169.51C100.121 167.17 100.031 166.33 99.6711 165.52C98.9211 163.81 97.0011 162.85 94.2711 162.85C91.4811 162.85 89.9211 163.66 88.2411 165.94V163.27H85.6311V178ZM127.787 175.93C127.427 175.96 127.277 175.99 127.127 175.99C125.867 175.99 125.537 175.63 125.537 174.34V168.37C125.537 165.79 125.237 164.89 124.097 164.02C123.017 163.18 121.217 162.76 118.547 162.76C113.927 162.76 111.617 164.35 111.167 167.83H113.897C114.167 165.76 115.457 164.98 118.637 164.98C121.367 164.98 122.897 165.82 122.897 167.32C122.897 168.37 122.237 168.85 120.647 169.03C116.837 169.45 115.787 169.57 115.277 169.63C112.187 170.17 110.627 171.61 110.627 173.95C110.627 176.74 112.967 178.51 116.597 178.51C119.537 178.51 121.697 177.52 122.957 175.57C123.197 177.31 124.187 178.09 126.047 178.09C126.917 178.09 127.217 178.03 127.787 177.79V175.93ZM123.017 170.23C123.017 171.43 122.897 172.69 122.687 173.26C122.087 174.94 119.567 176.32 117.107 176.32C115.037 176.32 113.477 175.3 113.477 173.95C113.477 173.41 113.777 172.81 114.257 172.45C114.737 172.06 115.397 171.85 116.897 171.61C121.517 170.83 121.517 170.83 123.017 170.23ZM129.752 178H132.332V157.99H129.752V178ZM149.694 163.27V165.73C148.014 163.63 146.334 162.85 143.544 162.85C138.774 162.85 135.624 165.91 135.624 170.53C135.624 174.82 138.864 177.7 143.754 177.7C145.284 177.7 146.574 177.4 147.744 176.74C148.674 176.23 149.094 175.78 149.694 174.76C149.634 176.92 149.544 177.7 149.244 178.45C148.554 180.16 146.784 180.97 143.754 180.97C141.054 180.97 139.764 180.34 139.254 178.78H136.434C137.034 181.9 139.224 183.16 143.934 183.16C147.564 183.16 149.844 182.32 151.194 180.46C152.064 179.29 152.304 178.21 152.304 175.39V163.27H149.694ZM144.114 165.04C147.474 165.04 149.724 167.11 149.724 170.2C149.724 173.29 147.354 175.51 144.024 175.51C140.514 175.51 138.474 173.59 138.474 170.23C138.474 167.11 140.724 165.04 144.114 165.04ZM164.154 162.76C159.114 162.76 155.604 165.94 155.604 170.56C155.604 175.3 159.054 178.51 164.124 178.51C169.134 178.51 172.614 175.36 172.614 170.83C172.614 165.97 169.254 162.76 164.154 162.76ZM164.214 164.95C167.544 164.95 169.764 167.23 169.764 170.68C169.764 174.1 167.574 176.32 164.214 176.32C162.564 176.32 161.064 175.78 160.014 174.79C158.934 173.8 158.454 172.51 158.454 170.65C158.454 167.26 160.794 164.95 164.214 164.95ZM175.895 178H178.505V170.65C178.505 168.94 178.805 167.92 179.555 167.08C180.545 166 181.865 165.43 183.395 165.43C183.965 165.43 184.385 165.49 185.135 165.64V163C184.565 162.88 184.265 162.85 183.785 162.85C182.435 162.85 181.205 163.27 180.335 164.08C179.675 164.65 179.195 165.34 178.505 166.72V163.27H175.895V178ZM187.644 178H190.224V163.27H187.644V178ZM187.644 160.81H190.224V157.99H187.644V160.81ZM200.985 176.05C200.355 176.2 199.965 176.23 199.215 176.23C197.745 176.23 197.415 175.93 197.415 174.46V165.28H201.075V163.27H197.415V159.28H194.835V163.27H192.345V165.28H194.835V174.52C194.865 176.41 194.865 176.59 195.105 177.04C195.555 178 196.665 178.42 198.705 178.42C199.575 178.42 200.115 178.36 200.985 178.21V176.05ZM203.815 178H206.395V170.35C206.395 169.12 206.545 168.28 206.845 167.62C207.595 166.09 209.545 165.04 211.675 165.04C214.465 165.04 215.905 166.54 215.905 169.51V178H218.485V169.42C218.485 167.23 218.395 166.57 218.035 165.73C217.255 163.9 215.185 162.85 212.425 162.85C209.695 162.85 207.805 163.81 206.395 165.94V157.81H203.815V178ZM222.535 178H225.145V169.78C225.145 168.1 225.535 167.05 226.465 166.24C227.335 165.46 228.595 165.04 230.035 165.04C231.895 165.04 233.275 165.76 233.695 166.93C233.935 167.56 233.995 168.16 233.995 169.63V178H236.575V169.72C236.575 168.37 236.785 167.44 237.265 166.78C238.045 165.67 239.545 165.04 241.315 165.04C243.445 165.04 244.945 165.88 245.245 167.26C245.395 167.83 245.455 168.73 245.455 169.72V178H248.035V168.85C248.035 167.23 247.915 166.45 247.585 165.73C246.775 163.93 244.675 162.85 242.125 162.85C239.455 162.85 237.835 163.72 236.245 165.97C235.345 163.96 233.485 162.85 230.995 162.85C228.625 162.85 226.645 163.87 225.145 165.88V163.27H222.535V178ZM266.317 176.05C265.687 176.2 265.297 176.23 264.547 176.23C263.077 176.23 262.747 175.93 262.747 174.46V165.28H266.407V163.27H262.747V159.28H260.167V163.27H257.677V165.28H260.167V174.52C260.197 176.41 260.197 176.59 260.437 177.04C260.887 178 261.997 178.42 264.037 178.42C264.907 178.42 265.447 178.36 266.317 178.21V176.05ZM269.147 178H271.727V170.35C271.727 169.12 271.877 168.28 272.177 167.62C272.927 166.09 274.877 165.04 277.007 165.04C279.797 165.04 281.237 166.54 281.237 169.51V178H283.817V169.42C283.817 167.23 283.727 166.57 283.367 165.73C282.587 163.9 280.517 162.85 277.757 162.85C275.027 162.85 273.137 163.81 271.727 165.94V157.81H269.147V178ZM304.007 175.93C303.647 175.96 303.497 175.99 303.347 175.99C302.087 175.99 301.757 175.63 301.757 174.34V168.37C301.757 165.79 301.457 164.89 300.317 164.02C299.237 163.18 297.437 162.76 294.767 162.76C290.147 162.76 287.837 164.35 287.387 167.83H290.117C290.387 165.76 291.677 164.98 294.857 164.98C297.587 164.98 299.117 165.82 299.117 167.32C299.117 168.37 298.457 168.85 296.867 169.03C293.057 169.45 292.007 169.57 291.497 169.63C288.407 170.17 286.847 171.61 286.847 173.95C286.847 176.74 289.187 178.51 292.817 178.51C295.757 178.51 297.917 177.52 299.177 175.57C299.417 177.31 300.407 178.09 302.267 178.09C303.137 178.09 303.437 178.03 304.007 177.79V175.93ZM299.237 170.23C299.237 171.43 299.117 172.69 298.907 173.26C298.307 174.94 295.787 176.32 293.327 176.32C291.257 176.32 289.697 175.3 289.697 173.95C289.697 173.41 289.997 172.81 290.477 172.45C290.957 172.06 291.617 171.85 293.117 171.61C297.737 170.83 297.737 170.83 299.237 170.23ZM312.723 176.05C312.093 176.2 311.703 176.23 310.953 176.23C309.483 176.23 309.153 175.93 309.153 174.46V165.28H312.813V163.27H309.153V159.28H306.573V163.27H304.083V165.28H306.573V174.52C306.603 176.41 306.603 176.59 306.843 177.04C307.293 178 308.403 178.42 310.443 178.42C311.313 178.42 311.853 178.36 312.723 178.21V176.05ZM63.02 213.5C63.14 216.74 65.84 218.51 70.7 218.51C75.11 218.51 77.93 216.65 77.93 213.71C77.93 211.97 77 210.83 75.11 210.17C73.97 209.78 72.83 209.57 70.34 209.24C67.22 208.85 66.32 208.4 66.32 207.11C66.32 205.79 67.85 204.98 70.28 204.98C71.63 204.98 72.8 205.28 73.67 205.85C74.33 206.27 74.63 206.75 74.84 207.74H77.36C77.24 206.21 76.88 205.37 76.01 204.53C74.72 203.33 72.95 202.76 70.46 202.76C68.36 202.76 66.86 203.12 65.57 203.9C64.28 204.68 63.47 206.09 63.47 207.53C63.47 208.88 64.16 209.99 65.39 210.68C66.32 211.19 67.13 211.37 69.89 211.76C72.11 212.06 73.25 212.27 73.79 212.45C74.69 212.78 75.08 213.29 75.08 214.07C75.08 215.48 73.46 216.32 70.73 216.32C68.87 216.32 67.31 215.9 66.56 215.24C66.05 214.79 65.84 214.34 65.69 213.5H63.02ZM87.8987 216.05C87.2687 216.2 86.8787 216.23 86.1287 216.23C84.6587 216.23 84.3287 215.93 84.3287 214.46V205.28H87.9887V203.27H84.3287V199.28H81.7487V203.27H79.2587V205.28H81.7487V214.52C81.7787 216.41 81.7787 216.59 82.0187 217.04C82.4687 218 83.5787 218.42 85.6187 218.42C86.4887 218.42 87.0287 218.36 87.8987 218.21V216.05ZM90.7588 218H93.3388V203.27H90.7588V218ZM90.7588 200.81H93.3388V197.99H90.7588V200.81ZM97.3498 218H99.9298V197.99H97.3498V218ZM103.942 218H106.522V197.99H103.942V218ZM118.033 218H120.643V210.65C120.643 208.94 120.943 207.92 121.693 207.08C122.683 206 124.003 205.43 125.533 205.43C126.103 205.43 126.523 205.49 127.273 205.64V203C126.703 202.88 126.403 202.85 125.923 202.85C124.573 202.85 123.343 203.27 122.473 204.08C121.813 204.65 121.333 205.34 120.643 206.72V203.27H118.033V218ZM141.551 213.71C140.831 215.42 139.271 216.32 136.961 216.32C133.691 216.32 131.831 214.7 131.381 211.46H144.851C144.791 209.42 144.671 208.64 144.191 207.44C143.021 204.5 140.291 202.76 136.841 202.76C132.101 202.76 128.681 206.18 128.681 210.89C128.681 215.45 131.921 218.51 136.781 218.51C140.441 218.51 143.231 216.74 144.371 213.71H141.551ZM131.381 209.45C131.771 208.22 132.101 207.47 132.551 206.87C133.451 205.67 135.041 204.95 136.781 204.95C139.601 204.95 141.641 206.69 142.091 209.45H131.381ZM160.451 212.72C159.671 215.06 157.991 216.32 155.531 216.32C152.351 216.32 150.251 214.07 150.251 210.59C150.251 207.26 152.471 204.98 155.771 204.98C158.171 204.98 159.701 206.09 160.331 208.25H163.211C162.221 204.74 159.551 202.76 155.711 202.76C150.671 202.76 147.401 205.88 147.401 210.71C147.401 215.39 150.611 218.51 155.501 218.51C159.311 218.51 162.131 216.41 163.211 212.72H160.451ZM173.969 202.76C168.929 202.76 165.419 205.94 165.419 210.56C165.419 215.3 168.869 218.51 173.939 218.51C178.949 218.51 182.429 215.36 182.429 210.83C182.429 205.97 179.069 202.76 173.969 202.76ZM174.029 204.95C177.359 204.95 179.579 207.23 179.579 210.68C179.579 214.1 177.389 216.32 174.029 216.32C172.379 216.32 170.879 215.78 169.829 214.79C168.749 213.8 168.269 212.51 168.269 210.65C168.269 207.26 170.609 204.95 174.029 204.95ZM185.709 218H188.319V209.78C188.319 208.1 188.709 207.05 189.639 206.24C190.509 205.46 191.769 205.04 193.209 205.04C195.069 205.04 196.449 205.76 196.869 206.93C197.109 207.56 197.169 208.16 197.169 209.63V218H199.749V209.72C199.749 208.37 199.959 207.44 200.439 206.78C201.219 205.67 202.719 205.04 204.489 205.04C206.619 205.04 208.119 205.88 208.419 207.26C208.569 207.83 208.629 208.73 208.629 209.72V218H211.209V208.85C211.209 207.23 211.089 206.45 210.759 205.73C209.949 203.93 207.849 202.85 205.299 202.85C202.629 202.85 201.009 203.72 199.419 205.97C198.519 203.96 196.659 202.85 194.169 202.85C191.799 202.85 189.819 203.87 188.319 205.88V203.27H185.709V218ZM215.24 218H217.85V209.78C217.85 208.1 218.24 207.05 219.17 206.24C220.04 205.46 221.3 205.04 222.74 205.04C224.6 205.04 225.98 205.76 226.4 206.93C226.64 207.56 226.7 208.16 226.7 209.63V218H229.28V209.72C229.28 208.37 229.49 207.44 229.97 206.78C230.75 205.67 232.25 205.04 234.02 205.04C236.15 205.04 237.65 205.88 237.95 207.26C238.1 207.83 238.16 208.73 238.16 209.72V218H240.74V208.85C240.74 207.23 240.62 206.45 240.29 205.73C239.48 203.93 237.38 202.85 234.83 202.85C232.16 202.85 230.54 203.72 228.95 205.97C228.05 203.96 226.19 202.85 223.7 202.85C221.33 202.85 219.35 203.87 217.85 205.88V203.27H215.24V218ZM256.922 213.71C256.202 215.42 254.642 216.32 252.332 216.32C249.062 216.32 247.202 214.7 246.752 211.46H260.222C260.162 209.42 260.042 208.64 259.562 207.44C258.392 204.5 255.662 202.76 252.212 202.76C247.472 202.76 244.052 206.18 244.052 210.89C244.052 215.45 247.292 218.51 252.152 218.51C255.812 218.51 258.602 216.74 259.742 213.71H256.922ZM246.752 209.45C247.142 208.22 247.472 207.47 247.922 206.87C248.822 205.67 250.412 204.95 252.152 204.95C254.972 204.95 257.012 206.69 257.462 209.45H246.752ZM263.492 218H266.102V210.68C266.102 208.91 266.252 208.01 266.612 207.26C267.392 205.79 268.952 205.04 271.262 205.04C273.362 205.04 274.592 205.64 275.072 206.93C275.342 207.59 275.402 208.16 275.402 209.81V218H277.982V209.51C277.982 207.17 277.892 206.33 277.532 205.52C276.782 203.81 274.862 202.85 272.132 202.85C269.342 202.85 267.782 203.66 266.102 205.94V203.27H263.492V218ZM295.388 197.99V206.06C294.068 203.93 291.998 202.85 289.178 202.85C284.528 202.85 281.258 206.03 281.258 210.62C281.258 215.15 284.558 218.42 289.178 218.42C291.908 218.42 293.948 217.4 295.388 215.36V218H297.968V197.99H295.388ZM289.688 205.04C293.048 205.04 295.508 207.44 295.508 210.71C295.508 213.92 293.108 216.23 289.718 216.23C286.328 216.23 284.108 213.95 284.108 210.44C284.108 207.29 286.418 205.04 289.688 205.04ZM300.999 213.5C301.119 216.74 303.819 218.51 308.679 218.51C313.089 218.51 315.909 216.65 315.909 213.71C315.909 211.97 314.979 210.83 313.089 210.17C311.949 209.78 310.809 209.57 308.319 209.24C305.199 208.85 304.299 208.4 304.299 207.11C304.299 205.79 305.829 204.98 308.259 204.98C309.609 204.98 310.779 205.28 311.649 205.85C312.309 206.27 312.609 206.75 312.819 207.74H315.339C315.219 206.21 314.859 205.37 313.989 204.53C312.699 203.33 310.929 202.76 308.439 202.76C306.339 202.76 304.839 203.12 303.549 203.9C302.259 204.68 301.449 206.09 301.449 207.53C301.449 208.88 302.139 209.99 303.369 210.68C304.299 211.19 305.109 211.37 307.869 211.76C310.089 212.06 311.229 212.27 311.769 212.45C312.669 212.78 313.059 213.29 313.059 214.07C313.059 215.48 311.439 216.32 308.709 216.32C306.849 216.32 305.289 215.9 304.539 215.24C304.029 214.79 303.819 214.34 303.669 213.5H300.999ZM62.09 243.27L69.14 258.09C68.18 260.46 67.58 260.97 65.66 260.97C65.03 260.97 64.64 260.91 63.95 260.64V263.04C64.85 263.13 65.36 263.16 65.96 263.16C68.54 263.16 69.86 262.38 70.82 260.25L78.62 243.27H75.71L70.43 255.27L65.18 243.27H62.09ZM87.9826 242.76C82.9426 242.76 79.4326 245.94 79.4326 250.56C79.4326 255.3 82.8826 258.51 87.9526 258.51C92.9626 258.51 96.4426 255.36 96.4426 250.83C96.4426 245.97 93.0826 242.76 87.9826 242.76ZM88.0426 244.95C91.3726 244.95 93.5926 247.23 93.5926 250.68C93.5926 254.1 91.4026 256.32 88.0426 256.32C86.3926 256.32 84.8926 255.78 83.8426 254.79C82.7626 253.8 82.2826 252.51 82.2826 250.65C82.2826 247.26 84.6226 244.95 88.0426 244.95ZM114.213 243.27H111.603V250.59C111.603 252.39 111.483 253.26 111.063 254.01C110.313 255.48 108.753 256.23 106.443 256.23C104.403 256.23 103.173 255.63 102.663 254.4C102.393 253.77 102.303 253.11 102.303 251.46V243.27H99.7229V251.76C99.7229 254.28 99.7829 254.85 100.173 255.75C100.953 257.49 102.843 258.42 105.573 258.42C108.363 258.42 109.893 257.61 111.603 255.33V258H114.213V243.27ZM124.749 253.5C124.869 256.74 127.569 258.51 132.429 258.51C136.839 258.51 139.659 256.65 139.659 253.71C139.659 251.97 138.729 250.83 136.839 250.17C135.699 249.78 134.559 249.57 132.069 249.24C128.949 248.85 128.049 248.4 128.049 247.11C128.049 245.79 129.579 244.98 132.009 244.98C133.359 244.98 134.529 245.28 135.399 245.85C136.059 246.27 136.359 246.75 136.569 247.74H139.089C138.969 246.21 138.609 245.37 137.739 244.53C136.449 243.33 134.679 242.76 132.189 242.76C130.089 242.76 128.589 243.12 127.299 243.9C126.009 244.68 125.199 246.09 125.199 247.53C125.199 248.88 125.889 249.99 127.119 250.68C128.049 251.19 128.859 251.37 131.619 251.76C133.839 252.06 134.979 252.27 135.519 252.45C136.419 252.78 136.809 253.29 136.809 254.07C136.809 255.48 135.189 256.32 132.459 256.32C130.599 256.32 129.039 255.9 128.289 255.24C127.779 254.79 127.569 254.34 127.419 253.5H124.749ZM150.473 242.76C145.433 242.76 141.923 245.94 141.923 250.56C141.923 255.3 145.373 258.51 150.443 258.51C155.453 258.51 158.933 255.36 158.933 250.83C158.933 245.97 155.573 242.76 150.473 242.76ZM150.533 244.95C153.863 244.95 156.083 247.23 156.083 250.68C156.083 254.1 153.893 256.32 150.533 256.32C148.883 256.32 147.383 255.78 146.333 254.79C145.253 253.8 144.773 252.51 144.773 250.65C144.773 247.26 147.113 244.95 150.533 244.95ZM162.213 258H164.823V250.68C164.823 248.91 164.973 248.01 165.333 247.26C166.113 245.79 167.673 245.04 169.983 245.04C172.083 245.04 173.313 245.64 173.793 246.93C174.063 247.59 174.123 248.16 174.123 249.81V258H176.703V249.51C176.703 247.17 176.613 246.33 176.253 245.52C175.503 243.81 173.583 242.85 170.853 242.85C168.063 242.85 166.503 243.66 164.823 245.94V243.27H162.213V258ZM194.079 243.27V245.73C192.399 243.63 190.719 242.85 187.929 242.85C183.159 242.85 180.009 245.91 180.009 250.53C180.009 254.82 183.249 257.7 188.139 257.7C189.669 257.7 190.959 257.4 192.129 256.74C193.059 256.23 193.479 255.78 194.079 254.76C194.019 256.92 193.929 257.7 193.629 258.45C192.939 260.16 191.169 260.97 188.139 260.97C185.439 260.97 184.149 260.34 183.639 258.78H180.819C181.419 261.9 183.609 263.16 188.319 263.16C191.949 263.16 194.229 262.32 195.579 260.46C196.449 259.29 196.689 258.21 196.689 255.39V243.27H194.079ZM188.499 245.04C191.859 245.04 194.109 247.11 194.109 250.2C194.109 253.29 191.739 255.51 188.409 255.51C184.899 255.51 182.859 253.59 182.859 250.23C182.859 247.11 185.109 245.04 188.499 245.04ZM199.719 253.5C199.839 256.74 202.539 258.51 207.399 258.51C211.809 258.51 214.629 256.65 214.629 253.71C214.629 251.97 213.699 250.83 211.809 250.17C210.669 249.78 209.529 249.57 207.039 249.24C203.919 248.85 203.019 248.4 203.019 247.11C203.019 245.79 204.549 244.98 206.979 244.98C208.329 244.98 209.499 245.28 210.369 245.85C211.029 246.27 211.329 246.75 211.539 247.74H214.059C213.939 246.21 213.579 245.37 212.709 244.53C211.419 243.33 209.649 242.76 207.159 242.76C205.059 242.76 203.559 243.12 202.269 243.9C200.979 244.68 200.169 246.09 200.169 247.53C200.169 248.88 200.859 249.99 202.089 250.68C203.019 251.19 203.829 251.37 206.589 251.76C208.809 252.06 209.949 252.27 210.489 252.45C211.389 252.78 211.779 253.29 211.779 254.07C211.779 255.48 210.159 256.32 207.429 256.32C205.569 256.32 204.009 255.9 203.259 255.24C202.749 254.79 202.539 254.34 202.389 253.5H199.719ZM223.194 243.27L230.244 258.09C229.284 260.46 228.684 260.97 226.764 260.97C226.134 260.97 225.744 260.91 225.054 260.64V263.04C225.954 263.13 226.464 263.16 227.064 263.16C229.644 263.16 230.964 262.38 231.924 260.25L239.724 243.27H236.814L231.534 255.27L226.284 243.27H223.194ZM249.086 242.76C244.046 242.76 240.536 245.94 240.536 250.56C240.536 255.3 243.986 258.51 249.056 258.51C254.066 258.51 257.546 255.36 257.546 250.83C257.546 245.97 254.186 242.76 249.086 242.76ZM249.146 244.95C252.476 244.95 254.696 247.23 254.696 250.68C254.696 254.1 252.506 256.32 249.146 256.32C247.496 256.32 245.996 255.78 244.946 254.79C243.866 253.8 243.386 252.51 243.386 250.65C243.386 247.26 245.726 244.95 249.146 244.95ZM275.316 243.27H272.706V250.59C272.706 252.39 272.586 253.26 272.166 254.01C271.416 255.48 269.856 256.23 267.546 256.23C265.506 256.23 264.276 255.63 263.766 254.4C263.496 253.77 263.406 253.11 263.406 251.46V243.27H260.826V251.76C260.826 254.28 260.886 254.85 261.276 255.75C262.056 257.49 263.946 258.42 266.676 258.42C269.466 258.42 270.996 257.61 272.706 255.33V258H275.316V243.27ZM286.842 258H289.422V237.99H286.842V258ZM293.464 258H296.044V243.27H293.464V258ZM293.464 240.81H296.044V237.99H293.464V240.81ZM300.055 258H302.635V252.75L305.425 250.62L311.665 258H315.295L307.585 248.91L314.755 243.27H310.675L302.635 249.78V237.99H300.055V258ZM328.699 253.71C327.979 255.42 326.419 256.32 324.109 256.32C320.839 256.32 318.979 254.7 318.529 251.46H331.999C331.939 249.42 331.819 248.64 331.339 247.44C330.169 244.5 327.439 242.76 323.989 242.76C319.249 242.76 315.829 246.18 315.829 250.89C315.829 255.45 319.069 258.51 323.929 258.51C327.589 258.51 330.379 256.74 331.519 253.71H328.699ZM318.529 249.45C318.919 248.22 319.249 247.47 319.699 246.87C320.599 245.67 322.189 244.95 323.929 244.95C326.749 244.95 328.789 246.69 329.239 249.45H318.529ZM39.5751 283.66C37.2351 283.66 35.3751 285.49 35.3751 287.83C35.3751 290.11 37.2351 291.97 39.5451 291.97C41.8251 291.97 43.6851 290.11 43.6851 287.83C43.6851 285.55 41.8251 283.66 39.5751 283.66ZM62.21 298H65.15L67.64 292.3H77.78L80.42 298H83.45L74.24 277.99H70.97L62.21 298ZM68.72 289.84L72.59 280.72L76.76 289.84H68.72ZM85.6311 298H88.2111V277.99H85.6311V298ZM98.9729 296.05C98.3429 296.2 97.9529 296.23 97.2029 296.23C95.7329 296.23 95.4029 295.93 95.4029 294.46V285.28H99.0629V283.27H95.4029V279.28H92.8229V283.27H90.3329V285.28H92.8229V294.52C92.8529 296.41 92.8529 296.59 93.0929 297.04C93.5429 298 94.6529 298.42 96.6929 298.42C97.5629 298.42 98.1029 298.36 98.9729 298.21V296.05ZM113.484 293.71C112.764 295.42 111.204 296.32 108.894 296.32C105.624 296.32 103.764 294.7 103.314 291.46H116.784C116.724 289.42 116.604 288.64 116.124 287.44C114.954 284.5 112.224 282.76 108.774 282.76C104.034 282.76 100.614 286.18 100.614 290.89C100.614 295.45 103.854 298.51 108.714 298.51C112.374 298.51 115.164 296.74 116.304 293.71H113.484ZM103.314 289.45C103.704 288.22 104.034 287.47 104.484 286.87C105.384 285.67 106.974 284.95 108.714 284.95C111.534 284.95 113.574 286.69 114.024 289.45H103.314ZM120.055 298H122.665V290.65C122.665 288.94 122.965 287.92 123.715 287.08C124.705 286 126.025 285.43 127.555 285.43C128.125 285.43 128.545 285.49 129.295 285.64V283C128.725 282.88 128.425 282.85 127.945 282.85C126.595 282.85 125.365 283.27 124.495 284.08C123.835 284.65 123.355 285.34 122.665 286.72V283.27H120.055V298ZM131.774 298H134.384V290.68C134.384 288.91 134.534 288.01 134.894 287.26C135.674 285.79 137.234 285.04 139.544 285.04C141.644 285.04 142.874 285.64 143.354 286.93C143.624 287.59 143.684 288.16 143.684 289.81V298H146.264V289.51C146.264 287.17 146.174 286.33 145.814 285.52C145.064 283.81 143.144 282.85 140.414 282.85C137.624 282.85 136.064 283.66 134.384 285.94V283.27H131.774V298ZM166.429 295.93C166.069 295.96 165.919 295.99 165.769 295.99C164.509 295.99 164.179 295.63 164.179 294.34V288.37C164.179 285.79 163.879 284.89 162.739 284.02C161.659 283.18 159.859 282.76 157.189 282.76C152.569 282.76 150.259 284.35 149.809 287.83H152.539C152.809 285.76 154.099 284.98 157.279 284.98C160.009 284.98 161.539 285.82 161.539 287.32C161.539 288.37 160.879 288.85 159.289 289.03C155.479 289.45 154.429 289.57 153.919 289.63C150.829 290.17 149.269 291.61 149.269 293.95C149.269 296.74 151.609 298.51 155.239 298.51C158.179 298.51 160.339 297.52 161.599 295.57C161.839 297.31 162.829 298.09 164.689 298.09C165.559 298.09 165.859 298.03 166.429 297.79V295.93ZM161.659 290.23C161.659 291.43 161.539 292.69 161.329 293.26C160.729 294.94 158.209 296.32 155.749 296.32C153.679 296.32 152.119 295.3 152.119 293.95C152.119 293.41 152.419 292.81 152.899 292.45C153.379 292.06 154.039 291.85 155.539 291.61C160.159 290.83 160.159 290.83 161.659 290.23ZM175.145 296.05C174.515 296.2 174.125 296.23 173.375 296.23C171.905 296.23 171.575 295.93 171.575 294.46V285.28H175.235V283.27H171.575V279.28H168.995V283.27H166.505V285.28H168.995V294.52C169.025 296.41 169.025 296.59 169.265 297.04C169.715 298 170.825 298.42 172.865 298.42C173.735 298.42 174.275 298.36 175.145 298.21V296.05ZM178.005 298H180.585V283.27H178.005V298ZM178.005 280.81H180.585V277.99H178.005V280.81ZM182.676 283.27L189.366 298H192.036L198.996 283.27H196.116L190.776 294.97L185.646 283.27H182.676ZM212.596 293.71C211.876 295.42 210.316 296.32 208.006 296.32C204.736 296.32 202.876 294.7 202.426 291.46H215.896C215.836 289.42 215.716 288.64 215.236 287.44C214.066 284.5 211.336 282.76 207.886 282.76C203.146 282.76 199.726 286.18 199.726 290.89C199.726 295.45 202.966 298.51 207.826 298.51C211.486 298.51 214.276 296.74 215.416 293.71H212.596ZM202.426 289.45C202.816 288.22 203.146 287.47 203.596 286.87C204.496 285.67 206.086 284.95 207.826 284.95C210.646 284.95 212.686 286.69 213.136 289.45H202.426ZM242.806 295.93C242.446 295.96 242.296 295.99 242.146 295.99C240.886 295.99 240.556 295.63 240.556 294.34V288.37C240.556 285.79 240.256 284.89 239.116 284.02C238.036 283.18 236.236 282.76 233.566 282.76C228.946 282.76 226.636 284.35 226.186 287.83H228.916C229.186 285.76 230.476 284.98 233.656 284.98C236.386 284.98 237.916 285.82 237.916 287.32C237.916 288.37 237.256 288.85 235.666 289.03C231.856 289.45 230.806 289.57 230.296 289.63C227.206 290.17 225.646 291.61 225.646 293.95C225.646 296.74 227.986 298.51 231.616 298.51C234.556 298.51 236.716 297.52 237.976 295.57C238.216 297.31 239.206 298.09 241.066 298.09C241.936 298.09 242.236 298.03 242.806 297.79V295.93ZM238.036 290.23C238.036 291.43 237.916 292.69 237.706 293.26C237.106 294.94 234.586 296.32 232.126 296.32C230.056 296.32 228.496 295.3 228.496 293.95C228.496 293.41 228.796 292.81 229.276 292.45C229.756 292.06 230.416 291.85 231.916 291.61C236.536 290.83 236.536 290.83 238.036 290.23ZM244.772 298H247.352V277.99H244.772V298ZM264.714 283.27V285.73C263.034 283.63 261.354 282.85 258.564 282.85C253.794 282.85 250.644 285.91 250.644 290.53C250.644 294.82 253.884 297.7 258.774 297.7C260.304 297.7 261.594 297.4 262.764 296.74C263.694 296.23 264.114 295.78 264.714 294.76C264.654 296.92 264.564 297.7 264.264 298.45C263.574 300.16 261.804 300.97 258.774 300.97C256.074 300.97 254.784 300.34 254.274 298.78H251.454C252.054 301.9 254.244 303.16 258.954 303.16C262.584 303.16 264.864 302.32 266.214 300.46C267.084 299.29 267.324 298.21 267.324 295.39V283.27H264.714ZM259.134 285.04C262.494 285.04 264.744 287.11 264.744 290.2C264.744 293.29 262.374 295.51 259.044 295.51C255.534 295.51 253.494 293.59 253.494 290.23C253.494 287.11 255.744 285.04 259.134 285.04ZM279.174 282.76C274.134 282.76 270.624 285.94 270.624 290.56C270.624 295.3 274.074 298.51 279.144 298.51C284.154 298.51 287.634 295.36 287.634 290.83C287.634 285.97 284.274 282.76 279.174 282.76ZM279.234 284.95C282.564 284.95 284.784 287.23 284.784 290.68C284.784 294.1 282.594 296.32 279.234 296.32C277.584 296.32 276.084 295.78 275.034 294.79C273.954 293.8 273.474 292.51 273.474 290.65C273.474 287.26 275.814 284.95 279.234 284.95ZM290.914 298H293.524V290.65C293.524 288.94 293.824 287.92 294.574 287.08C295.564 286 296.884 285.43 298.414 285.43C298.984 285.43 299.404 285.49 300.154 285.64V283C299.584 282.88 299.284 282.85 298.804 282.85C297.454 282.85 296.224 283.27 295.354 284.08C294.694 284.65 294.214 285.34 293.524 286.72V283.27H290.914V298ZM302.663 298H305.243V283.27H302.663V298ZM302.663 280.81H305.243V277.99H302.663V280.81ZM316.004 296.05C315.374 296.2 314.984 296.23 314.234 296.23C312.764 296.23 312.434 295.93 312.434 294.46V285.28H316.094V283.27H312.434V279.28H309.854V283.27H307.364V285.28H309.854V294.52C309.884 296.41 309.884 296.59 310.124 297.04C310.574 298 311.684 298.42 313.724 298.42C314.594 298.42 315.134 298.36 316.004 298.21V296.05ZM318.834 298H321.414V290.35C321.414 289.12 321.564 288.28 321.864 287.62C322.614 286.09 324.564 285.04 326.694 285.04C329.484 285.04 330.924 286.54 330.924 289.51V298H333.504V289.42C333.504 287.23 333.414 286.57 333.054 285.73C332.274 283.9 330.204 282.85 327.444 282.85C324.714 282.85 322.824 283.81 321.414 285.94V277.81H318.834V298ZM337.555 298H340.165V289.78C340.165 288.1 340.555 287.05 341.485 286.24C342.355 285.46 343.615 285.04 345.055 285.04C346.915 285.04 348.295 285.76 348.715 286.93C348.955 287.56 349.015 288.16 349.015 289.63V298H351.595V289.72C351.595 288.37 351.805 287.44 352.285 286.78C353.065 285.67 354.565 285.04 356.335 285.04C358.465 285.04 359.965 285.88 360.265 287.26C360.415 287.83 360.475 288.73 360.475 289.72V298H363.055V288.85C363.055 287.23 362.935 286.45 362.605 285.73C361.795 283.93 359.695 282.85 357.145 282.85C354.475 282.85 352.855 283.72 351.265 285.97C350.365 283.96 348.505 282.85 346.015 282.85C343.645 282.85 341.665 283.87 340.165 285.88V283.27H337.555V298ZM63.02 333.5C63.14 336.74 65.84 338.51 70.7 338.51C75.11 338.51 77.93 336.65 77.93 333.71C77.93 331.97 77 330.83 75.11 330.17C73.97 329.78 72.83 329.57 70.34 329.24C67.22 328.85 66.32 328.4 66.32 327.11C66.32 325.79 67.85 324.98 70.28 324.98C71.63 324.98 72.8 325.28 73.67 325.85C74.33 326.27 74.63 326.75 74.84 327.74H77.36C77.24 326.21 76.88 325.37 76.01 324.53C74.72 323.33 72.95 322.76 70.46 322.76C68.36 322.76 66.86 323.12 65.57 323.9C64.28 324.68 63.47 326.09 63.47 327.53C63.47 328.88 64.16 329.99 65.39 330.68C66.32 331.19 67.13 331.37 69.89 331.76C72.11 332.06 73.25 332.27 73.79 332.45C74.69 332.78 75.08 333.29 75.08 334.07C75.08 335.48 73.46 336.32 70.73 336.32C68.87 336.32 67.31 335.9 66.56 335.24C66.05 334.79 65.84 334.34 65.69 333.5H63.02ZM88.7443 322.76C83.7043 322.76 80.1943 325.94 80.1943 330.56C80.1943 335.3 83.6443 338.51 88.7143 338.51C93.7243 338.51 97.2043 335.36 97.2043 330.83C97.2043 325.97 93.8443 322.76 88.7443 322.76ZM88.8043 324.95C92.1343 324.95 94.3543 327.23 94.3543 330.68C94.3543 334.1 92.1643 336.32 88.8043 336.32C87.1543 336.32 85.6543 335.78 84.6043 334.79C83.5243 333.8 83.0443 332.51 83.0443 330.65C83.0443 327.26 85.3843 324.95 88.8043 324.95ZM100.485 338H103.095V330.68C103.095 328.91 103.245 328.01 103.605 327.26C104.385 325.79 105.945 325.04 108.255 325.04C110.355 325.04 111.585 325.64 112.065 326.93C112.335 327.59 112.395 328.16 112.395 329.81V338H114.975V329.51C114.975 327.17 114.885 326.33 114.525 325.52C113.775 323.81 111.855 322.85 109.125 322.85C106.335 322.85 104.775 323.66 103.095 325.94V323.27H100.485V338ZM132.35 323.27V325.73C130.67 323.63 128.99 322.85 126.2 322.85C121.43 322.85 118.28 325.91 118.28 330.53C118.28 334.82 121.52 337.7 126.41 337.7C127.94 337.7 129.23 337.4 130.4 336.74C131.33 336.23 131.75 335.78 132.35 334.76C132.29 336.92 132.2 337.7 131.9 338.45C131.21 340.16 129.44 340.97 126.41 340.97C123.71 340.97 122.42 340.34 121.91 338.78H119.09C119.69 341.9 121.88 343.16 126.59 343.16C130.22 343.16 132.5 342.32 133.85 340.46C134.72 339.29 134.96 338.21 134.96 335.39V323.27H132.35ZM126.77 325.04C130.13 325.04 132.38 327.11 132.38 330.2C132.38 333.29 130.01 335.51 126.68 335.51C123.17 335.51 121.13 333.59 121.13 330.23C121.13 327.11 123.38 325.04 126.77 325.04ZM137.991 333.5C138.111 336.74 140.811 338.51 145.671 338.51C150.081 338.51 152.901 336.65 152.901 333.71C152.901 331.97 151.971 330.83 150.081 330.17C148.941 329.78 147.801 329.57 145.311 329.24C142.191 328.85 141.291 328.4 141.291 327.11C141.291 325.79 142.821 324.98 145.251 324.98C146.601 324.98 147.771 325.28 148.641 325.85C149.301 326.27 149.601 326.75 149.811 327.74H152.331C152.211 326.21 151.851 325.37 150.981 324.53C149.691 323.33 147.921 322.76 145.431 322.76C143.331 322.76 141.831 323.12 140.541 323.9C139.251 324.68 138.441 326.09 138.441 327.53C138.441 328.88 139.131 329.99 140.361 330.68C141.291 331.19 142.101 331.37 144.861 331.76C147.081 332.06 148.221 332.27 148.761 332.45C149.661 332.78 150.051 333.29 150.051 334.07C150.051 335.48 148.431 336.32 145.701 336.32C143.841 336.32 142.281 335.9 141.531 335.24C141.021 334.79 140.811 334.34 140.661 333.5H137.991ZM161.465 323.27L168.515 338.09C167.555 340.46 166.955 340.97 165.035 340.97C164.405 340.97 164.015 340.91 163.325 340.64V343.04C164.225 343.13 164.735 343.16 165.335 343.16C167.915 343.16 169.235 342.38 170.195 340.25L177.995 323.27H175.085L169.805 335.27L164.555 323.27H161.465ZM187.358 322.76C182.318 322.76 178.808 325.94 178.808 330.56C178.808 335.3 182.258 338.51 187.328 338.51C192.338 338.51 195.818 335.36 195.818 330.83C195.818 325.97 192.458 322.76 187.358 322.76ZM187.418 324.95C190.748 324.95 192.968 327.23 192.968 330.68C192.968 334.1 190.778 336.32 187.418 336.32C185.768 336.32 184.268 335.78 183.218 334.79C182.138 333.8 181.658 332.51 181.658 330.65C181.658 327.26 183.998 324.95 187.418 324.95ZM213.588 323.27H210.978V330.59C210.978 332.39 210.858 333.26 210.438 334.01C209.688 335.48 208.128 336.23 205.818 336.23C203.778 336.23 202.548 335.63 202.038 334.4C201.768 333.77 201.678 333.11 201.678 331.46V323.27H199.098V331.76C199.098 334.28 199.158 334.85 199.548 335.75C200.328 337.49 202.218 338.42 204.948 338.42C207.738 338.42 209.268 337.61 210.978 335.33V338H213.588V323.27ZM225.114 338H227.724V329.78C227.724 328.1 228.114 327.05 229.044 326.24C229.914 325.46 231.174 325.04 232.614 325.04C234.474 325.04 235.854 325.76 236.274 326.93C236.514 327.56 236.574 328.16 236.574 329.63V338H239.154V329.72C239.154 328.37 239.364 327.44 239.844 326.78C240.624 325.67 242.124 325.04 243.894 325.04C246.024 325.04 247.524 325.88 247.824 327.26C247.974 327.83 248.034 328.73 248.034 329.72V338H250.614V328.85C250.614 327.23 250.494 326.45 250.164 325.73C249.354 323.93 247.254 322.85 244.704 322.85C242.034 322.85 240.414 323.72 238.824 325.97C237.924 323.96 236.064 322.85 233.574 322.85C231.204 322.85 229.224 323.87 227.724 325.88V323.27H225.114V338ZM270.785 335.93C270.425 335.96 270.275 335.99 270.125 335.99C268.865 335.99 268.535 335.63 268.535 334.34V328.37C268.535 325.79 268.235 324.89 267.095 324.02C266.015 323.18 264.215 322.76 261.545 322.76C256.925 322.76 254.615 324.35 254.165 327.83H256.895C257.165 325.76 258.455 324.98 261.635 324.98C264.365 324.98 265.895 325.82 265.895 327.32C265.895 328.37 265.235 328.85 263.645 329.03C259.835 329.45 258.785 329.57 258.275 329.63C255.185 330.17 253.625 331.61 253.625 333.95C253.625 336.74 255.965 338.51 259.595 338.51C262.535 338.51 264.695 337.52 265.955 335.57C266.195 337.31 267.185 338.09 269.045 338.09C269.915 338.09 270.215 338.03 270.785 337.79V335.93ZM266.015 330.23C266.015 331.43 265.895 332.69 265.685 333.26C265.085 334.94 262.565 336.32 260.105 336.32C258.035 336.32 256.475 335.3 256.475 333.95C256.475 333.41 256.775 332.81 257.255 332.45C257.735 332.06 258.395 331.85 259.895 331.61C264.515 330.83 264.515 330.83 266.015 330.23ZM270.391 323.27L277.441 338.09C276.481 340.46 275.881 340.97 273.961 340.97C273.331 340.97 272.941 340.91 272.251 340.64V343.04C273.151 343.13 273.661 343.16 274.261 343.16C276.841 343.16 278.161 342.38 279.121 340.25L286.921 323.27H284.011L278.731 335.27L273.481 323.27H270.391ZM296.539 338H299.149V330.68C299.149 328.91 299.299 328.01 299.659 327.26C300.439 325.79 301.999 325.04 304.309 325.04C306.409 325.04 307.639 325.64 308.119 326.93C308.389 327.59 308.449 328.16 308.449 329.81V338H311.029V329.51C311.029 327.17 310.939 326.33 310.579 325.52C309.829 323.81 307.909 322.85 305.179 322.85C302.389 322.85 300.829 323.66 299.149 325.94V323.27H296.539V338ZM322.885 322.76C317.845 322.76 314.335 325.94 314.335 330.56C314.335 335.3 317.785 338.51 322.855 338.51C327.865 338.51 331.345 335.36 331.345 330.83C331.345 325.97 327.985 322.76 322.885 322.76ZM322.945 324.95C326.275 324.95 328.495 327.23 328.495 330.68C328.495 334.1 326.305 336.32 322.945 336.32C321.295 336.32 319.795 335.78 318.745 334.79C317.665 333.8 317.185 332.51 317.185 330.65C317.185 327.26 319.525 324.95 322.945 324.95ZM341.287 336.05C340.657 336.2 340.267 336.23 339.517 336.23C338.047 336.23 337.717 335.93 337.717 334.46V325.28H341.377V323.27H337.717V319.28H335.137V323.27H332.647V325.28H335.137V334.52C335.167 336.41 335.167 336.59 335.407 337.04C335.857 338 336.967 338.42 339.007 338.42C339.877 338.42 340.417 338.36 341.287 338.21V336.05ZM64.01 378H66.59V372.75L69.38 370.62L75.62 378H79.25L71.54 368.91L78.71 363.27H74.63L66.59 369.78V357.99H64.01V378ZM81.5002 378H84.1102V370.68C84.1102 368.91 84.2602 368.01 84.6202 367.26C85.4002 365.79 86.9602 365.04 89.2702 365.04C91.3702 365.04 92.6002 365.64 93.0802 366.93C93.3502 367.59 93.4102 368.16 93.4102 369.81V378H95.9902V369.51C95.9902 367.17 95.9002 366.33 95.5402 365.52C94.7902 363.81 92.8702 362.85 90.1402 362.85C87.3502 362.85 85.7902 363.66 84.1102 365.94V363.27H81.5002V378ZM107.846 362.76C102.806 362.76 99.2959 365.94 99.2959 370.56C99.2959 375.3 102.746 378.51 107.816 378.51C112.826 378.51 116.306 375.36 116.306 370.83C116.306 365.97 112.946 362.76 107.846 362.76ZM107.906 364.95C111.236 364.95 113.456 367.23 113.456 370.68C113.456 374.1 111.266 376.32 107.906 376.32C106.256 376.32 104.756 375.78 103.706 374.79C102.626 373.8 102.146 372.51 102.146 370.65C102.146 367.26 104.486 364.95 107.906 364.95ZM117.373 363.27L122.833 378H125.953L129.733 366.36L133.543 378H136.663L142.363 363.27H139.273L135.103 374.94L131.323 363.27H128.263L124.423 374.94L120.373 363.27H117.373ZM39.5751 403.66C37.2351 403.66 35.3751 405.49 35.3751 407.83C35.3751 410.11 37.2351 411.97 39.5451 411.97C41.8251 411.97 43.6851 410.11 43.6851 407.83C43.6851 405.55 41.8251 403.66 39.5751 403.66ZM63.29 411.61C63.47 416.29 66.53 418.57 72.56 418.57C77.93 418.57 81.35 416.05 81.35 412.09C81.35 410.11 80.45 408.61 78.86 407.86C77.9 407.44 76.16 407.02 73.43 406.63C70.22 406.15 69.59 406 68.69 405.7C67.25 405.19 66.59 404.44 66.59 403.27C66.59 401.2 68.6 399.91 71.84 399.91C75.35 399.91 77.3 401.08 77.81 403.54H80.6C80.09 399.43 77.24 397.42 71.99 397.42C66.92 397.42 63.59 399.82 63.59 403.48C63.59 405.37 64.58 406.93 66.32 407.8C67.52 408.4 68.48 408.64 72.08 409.18C75.02 409.63 75.74 409.78 76.43 410.02C77.72 410.5 78.35 411.31 78.35 412.51C78.35 414.85 76.34 416.08 72.53 416.08C68.39 416.08 66.47 414.76 66.05 411.61H63.29ZM84.6936 418H87.2736V410.35C87.2736 409.12 87.4236 408.28 87.7236 407.62C88.4736 406.09 90.4236 405.04 92.5536 405.04C95.3436 405.04 96.7836 406.54 96.7836 409.51V418H99.3636V409.42C99.3636 407.23 99.2736 406.57 98.9136 405.73C98.1336 403.9 96.0636 402.85 93.3036 402.85C90.5736 402.85 88.6836 403.81 87.2736 405.94V397.81H84.6936V418ZM119.554 415.93C119.194 415.96 119.044 415.99 118.894 415.99C117.634 415.99 117.304 415.63 117.304 414.34V408.37C117.304 405.79 117.004 404.89 115.864 404.02C114.784 403.18 112.984 402.76 110.314 402.76C105.694 402.76 103.384 404.35 102.934 407.83H105.664C105.934 405.76 107.224 404.98 110.404 404.98C113.134 404.98 114.664 405.82 114.664 407.32C114.664 408.37 114.004 408.85 112.414 409.03C108.604 409.45 107.554 409.57 107.044 409.63C103.954 410.17 102.394 411.61 102.394 413.95C102.394 416.74 104.734 418.51 108.364 418.51C111.304 418.51 113.464 417.52 114.724 415.57C114.964 417.31 115.954 418.09 117.814 418.09C118.684 418.09 118.984 418.03 119.554 417.79V415.93ZM114.784 410.23C114.784 411.43 114.664 412.69 114.454 413.26C113.854 414.94 111.334 416.32 108.874 416.32C106.804 416.32 105.244 415.3 105.244 413.95C105.244 413.41 105.544 412.81 106.024 412.45C106.504 412.06 107.164 411.85 108.664 411.61C113.284 410.83 113.284 410.83 114.784 410.23ZM121.52 418H124.13V410.65C124.13 408.94 124.43 407.92 125.18 407.08C126.17 406 127.49 405.43 129.02 405.43C129.59 405.43 130.01 405.49 130.76 405.64V403C130.19 402.88 129.89 402.85 129.41 402.85C128.06 402.85 126.83 403.27 125.96 404.08C125.3 404.65 124.82 405.34 124.13 406.72V403.27H121.52V418ZM145.037 413.71C144.317 415.42 142.757 416.32 140.447 416.32C137.177 416.32 135.317 414.7 134.867 411.46H148.337C148.277 409.42 148.157 408.64 147.677 407.44C146.507 404.5 143.777 402.76 140.327 402.76C135.587 402.76 132.167 406.18 132.167 410.89C132.167 415.45 135.407 418.51 140.267 418.51C143.927 418.51 146.717 416.74 147.857 413.71H145.037ZM134.867 409.45C135.257 408.22 135.587 407.47 136.037 406.87C136.937 405.67 138.527 404.95 140.267 404.95C143.087 404.95 145.127 406.69 145.577 409.45H134.867ZM159.108 418H161.718V409.78C161.718 408.1 162.108 407.05 163.038 406.24C163.908 405.46 165.168 405.04 166.608 405.04C168.468 405.04 169.848 405.76 170.268 406.93C170.508 407.56 170.568 408.16 170.568 409.63V418H173.148V409.72C173.148 408.37 173.358 407.44 173.838 406.78C174.618 405.67 176.118 405.04 177.888 405.04C180.018 405.04 181.518 405.88 181.818 407.26C181.968 407.83 182.028 408.73 182.028 409.72V418H184.608V408.85C184.608 407.23 184.488 406.45 184.158 405.73C183.348 403.93 181.248 402.85 178.698 402.85C176.028 402.85 174.408 403.72 172.818 405.97C171.918 403.96 170.058 402.85 167.568 402.85C165.198 402.85 163.218 403.87 161.718 405.88V403.27H159.108V418ZM203.129 403.27H200.519V410.59C200.519 412.39 200.399 413.26 199.979 414.01C199.229 415.48 197.669 416.23 195.359 416.23C193.319 416.23 192.089 415.63 191.579 414.4C191.309 413.77 191.219 413.11 191.219 411.46V403.27H188.639V411.76C188.639 414.28 188.699 414.85 189.089 415.75C189.869 417.49 191.759 418.42 194.489 418.42C197.279 418.42 198.809 417.61 200.519 415.33V418H203.129V403.27ZM206.165 413.5C206.285 416.74 208.985 418.51 213.845 418.51C218.255 418.51 221.075 416.65 221.075 413.71C221.075 411.97 220.145 410.83 218.255 410.17C217.115 409.78 215.975 409.57 213.485 409.24C210.365 408.85 209.465 408.4 209.465 407.11C209.465 405.79 210.995 404.98 213.425 404.98C214.775 404.98 215.945 405.28 216.815 405.85C217.475 406.27 217.775 406.75 217.985 407.74H220.505C220.385 406.21 220.025 405.37 219.155 404.53C217.865 403.33 216.095 402.76 213.605 402.76C211.505 402.76 210.005 403.12 208.715 403.9C207.425 404.68 206.615 406.09 206.615 407.53C206.615 408.88 207.305 409.99 208.535 410.68C209.465 411.19 210.275 411.37 213.035 411.76C215.255 412.06 216.395 412.27 216.935 412.45C217.835 412.78 218.225 413.29 218.225 414.07C218.225 415.48 216.605 416.32 213.875 416.32C212.015 416.32 210.455 415.9 209.705 415.24C209.195 414.79 208.985 414.34 208.835 413.5H206.165ZM224.089 418H226.669V403.27H224.089V418ZM224.089 400.81H226.669V397.99H224.089V400.81ZM243.01 412.72C242.23 415.06 240.55 416.32 238.09 416.32C234.91 416.32 232.81 414.07 232.81 410.59C232.81 407.26 235.03 404.98 238.33 404.98C240.73 404.98 242.26 406.09 242.89 408.25H245.77C244.78 404.74 242.11 402.76 238.27 402.76C233.23 402.76 229.96 405.88 229.96 410.71C229.96 415.39 233.17 418.51 238.06 418.51C241.87 418.51 244.69 416.41 245.77 412.72H243.01Z" fill="black"/>
<path d="M92.5111 72.2964H109.941V68.6214H97.1311V61.8314H108.121V58.1564H97.1311V52.6264H109.696V48.9514H92.5111V72.2964ZM123.009 55.2514L119.964 60.2914L117.024 55.2514H112.124L117.444 63.3364L111.284 72.2964H115.939L119.719 66.5914L123.324 72.2964H128.224L122.239 63.1614L127.699 55.2514H123.009ZM130.376 55.2514V78.0014H134.646V69.9514C136.221 72.0164 137.516 72.7514 139.616 72.7514C143.921 72.7514 146.931 69.0764 146.931 63.8614C146.931 58.6114 143.816 54.7964 139.511 54.7964C137.341 54.7964 135.941 55.5664 134.646 57.4914V55.2514H130.376ZM138.671 58.1914C140.981 58.1914 142.556 60.5014 142.556 63.8614C142.556 67.1514 140.946 69.3564 138.566 69.3564C136.116 69.3564 134.436 67.1164 134.436 63.8264C134.436 60.3614 136.081 58.1914 138.671 58.1914ZM154.638 60.3264C154.778 58.6814 156.003 57.7714 157.998 57.7714C159.853 57.7714 161.113 58.6814 161.113 59.9764C161.113 61.0264 160.413 61.4814 158.453 61.6914C155.828 62.0064 154.078 62.4264 152.818 63.0564C150.753 64.0364 149.633 65.6464 149.633 67.5364C149.633 70.4064 152.468 72.7514 155.933 72.7514C157.893 72.7514 159.573 72.1214 161.393 70.7214L161.883 72.2964H166.013C165.523 71.2464 165.453 70.7214 165.453 68.6914V61.5514C165.453 59.8364 165.278 58.7164 164.823 57.8414C163.878 55.8464 161.533 54.7964 158.033 54.7964C155.233 54.7964 153.098 55.5664 151.873 57.0014C151.208 57.8064 150.858 58.6814 150.648 60.3264H154.638ZM161.288 65.6814C161.288 67.0464 161.008 67.7464 160.238 68.3414C159.398 69.0064 158.243 69.3564 156.983 69.3564C155.198 69.3564 154.008 68.5164 154.008 67.2914C154.008 65.8914 155.093 65.1914 158.593 64.3514C160.063 64.0014 160.483 63.8614 161.288 63.3364V65.6814ZM169.682 55.2514V72.2964H173.952V62.7764C173.952 60.0814 175.247 58.5414 177.522 58.5414C178.677 58.5414 179.587 59.0314 180.147 59.9414C180.497 60.5014 180.602 61.0964 180.602 62.4614V72.2964H184.872V61.3414C184.872 59.8364 184.662 58.6814 184.172 57.8064C183.227 55.9864 181.162 54.7964 178.957 54.7964C176.892 54.7964 175.527 55.5664 173.952 57.6314V55.2514H169.682ZM200.852 48.9514V57.1764C199.277 55.6014 197.527 54.7964 195.602 54.7964C191.542 54.7964 188.392 58.7514 188.392 63.8614C188.392 69.0064 191.542 72.7514 195.917 72.7514C197.842 72.7514 199.032 72.1564 200.852 70.3364V72.2964H205.122V48.9514H200.852ZM196.932 58.1914C199.382 58.1914 201.062 60.4664 201.062 63.7214C201.062 67.0814 199.347 69.3564 196.862 69.3564C194.447 69.3564 192.767 67.0814 192.767 63.8264C192.767 60.3614 194.377 58.1914 196.932 58.1914ZM232.601 72.2964L237.781 54.5514V72.2964H241.981V48.9514H235.296L230.256 66.2764L225.251 48.9514H218.566V72.2964H222.766V54.5514L227.981 72.2964H232.601ZM261.671 55.2514H257.401V64.7714C257.401 66.2414 257.191 67.0464 256.631 67.7464C256.036 68.5164 254.986 69.0064 253.901 69.0064C252.536 69.0064 251.521 68.3414 251.136 67.1864C250.926 66.5564 250.891 66.2414 250.891 64.5264V55.2514H246.621V64.7714C246.621 66.9764 246.691 67.8164 246.936 68.6914C247.671 71.1764 249.736 72.7514 252.361 72.7514C254.251 72.7514 255.721 72.0864 257.401 70.5464V72.2964H261.671V55.2514ZM279.334 60.3264C278.984 56.8964 276.219 54.7964 272.054 54.7964C268.064 54.7964 265.229 57.0714 265.229 60.2914C265.229 61.7614 265.929 63.0214 267.294 63.8964C268.379 64.5964 270.234 65.1564 272.929 65.6464C275.204 66.0314 275.834 66.4164 275.834 67.4664C275.834 68.7614 274.539 69.6014 272.579 69.6014C270.339 69.6014 269.114 68.7264 268.764 66.8364H264.844C265.229 70.6164 268.029 72.7514 272.614 72.7514C276.954 72.7514 279.859 70.5114 279.859 67.1864C279.859 65.6464 279.264 64.3514 278.249 63.5114C277.304 62.7764 276.254 62.4264 273.804 62.0064C271.424 61.5864 270.654 61.4114 270.024 61.1314C269.464 60.8864 269.114 60.4314 269.114 59.9064C269.114 58.7514 270.374 57.9464 272.194 57.9464C274.084 57.9464 275.169 58.7164 275.589 60.3264H279.334ZM283.056 48.8464V52.7314H287.326V48.8464H283.056ZM283.056 55.2514V72.2964H287.326V55.2514H283.056ZM302.939 66.2764C302.519 68.2714 301.259 69.3564 299.334 69.3564C296.814 69.3564 295.239 67.2564 295.239 63.8614C295.239 60.4664 296.849 58.1914 299.299 58.1914C301.014 58.1914 302.134 59.1364 302.694 61.0264H306.859C305.914 57.0364 303.184 54.7964 299.194 54.7964C294.364 54.7964 290.864 58.6114 290.864 63.8264C290.864 69.0414 294.364 72.7514 299.264 72.7514C303.499 72.7514 306.439 70.3014 307.034 66.2764H302.939Z" fill="black"/>
</svg>
