<svg width="1331" height="256" viewBox="0 0 1331 256" fill="none" xmlns="http://www.w3.org/2000/svg">
<path d="M576.15 16.1C575.85 14.525 575.475 13.625 574.75 12.85C573.65 11.65 571.85 11 569.6 11C565.75 11 563.225 13 563.225 16C563.225 17.45 563.825 18.7 564.9 19.45C565.675 19.975 566.575 20.3 569.025 20.925C571.275 21.5 572.125 21.775 572.65 22.15C573.05 22.425 573.3 22.925 573.3 23.475C573.3 24.85 571.925 25.7 569.7 25.7C568.375 25.7 567.25 25.325 566.65 24.675C566.225 24.225 566.05 23.725 566 22.85H562.825C563.025 26.275 565.65 28.325 569.775 28.325C573.8 28.325 576.575 26.2 576.575 23.15C576.575 21.9 576.05 20.7 575.175 19.925C574.35 19.2 573.325 18.775 571.025 18.25C568.3 17.6 568.125 17.55 567.575 17.3C566.9 17 566.5 16.375 566.5 15.65C566.5 14.425 567.7 13.625 569.6 13.625C571.7 13.625 572.775 14.375 573.075 16.1H576.15Z" fill="black"/>
<path d="M579.078 15.825V32.075H582.128V26.325C583.253 27.8 584.178 28.325 585.678 28.325C588.753 28.325 590.903 25.7 590.903 21.975C590.903 18.225 588.678 15.5 585.603 15.5C584.053 15.5 583.053 16.05 582.128 17.425V15.825H579.078ZM585.003 17.925C586.653 17.925 587.778 19.575 587.778 21.975C587.778 24.325 586.628 25.9 584.928 25.9C583.178 25.9 581.978 24.3 581.978 21.95C581.978 19.475 583.153 17.925 585.003 17.925Z" fill="black"/>
<path d="M599.158 15.5C595.483 15.5 592.833 18.2 592.833 21.9C592.833 25.6 595.483 28.325 599.058 28.325C602.808 28.325 605.458 25.675 605.458 21.9C605.458 18.2 602.808 15.5 599.158 15.5ZM599.158 17.925C601.058 17.925 602.333 19.525 602.333 21.9C602.333 24.3 601.058 25.9 599.158 25.9C597.208 25.9 595.958 24.3 595.958 21.85C595.958 19.525 597.258 17.925 599.158 17.925Z" fill="black"/>
<path d="M611.284 15.825V11.775H608.234V15.825H606.534V17.75H608.234V23.925C608.234 25.025 608.259 25.525 608.359 26C608.534 26.9 608.984 27.475 609.809 27.8C610.234 27.975 610.459 28 611.584 28H613.759V25.75L613.509 25.775L612.659 25.8C612.159 25.8 611.734 25.65 611.534 25.375C611.334 25.125 611.284 24.85 611.284 23.925V17.75H613.584V15.825H611.284Z" fill="black"/>
<path d="M615.846 11.25V14.025H618.896V11.25H615.846ZM615.846 15.825V28H618.896V15.825H615.846Z" fill="black"/>
<path d="M625.347 15.825V15.25C625.347 14.05 625.847 13.7 627.572 13.7V11.325H627.222C625.547 11.35 624.797 11.45 624.072 11.8C622.972 12.3 622.297 13.55 622.297 15.1V15.825H620.747V17.75H622.297V28H625.347V17.75H627.572V15.825H625.347Z" fill="black"/>
<path d="M636.669 15.825L634.094 24.8L631.294 15.825H627.969L631.744 25.575C632.044 26.4 632.319 27.5 632.319 27.95C632.319 28.55 632.044 29.125 631.619 29.4C631.319 29.625 630.919 29.7 630.219 29.7H629.319V32.075H630.869C632.469 32.075 632.794 32.025 633.494 31.65C634.319 31.2 634.869 30.375 635.369 28.925L639.794 15.825H636.669Z" fill="black"/>
<path d="M568.55 95.45H574.65L575.775 99H579.2L573.55 82.325H569.875L564 99H567.425L568.55 95.45ZM569.3 93.025L571.6 85.55L573.925 93.025H569.3Z" fill="black"/>
<path d="M580.785 86.825V103.075H583.835V97.325C584.96 98.8 585.885 99.325 587.385 99.325C590.46 99.325 592.61 96.7 592.61 92.975C592.61 89.225 590.385 86.5 587.31 86.5C585.76 86.5 584.76 87.05 583.835 88.425V86.825H580.785ZM586.71 88.925C588.36 88.925 589.485 90.575 589.485 92.975C589.485 95.325 588.335 96.9 586.635 96.9C584.885 96.9 583.685 95.3 583.685 92.95C583.685 90.475 584.86 88.925 586.71 88.925Z" fill="black"/>
<path d="M595.14 86.825V103.075H598.19V97.325C599.315 98.8 600.24 99.325 601.74 99.325C604.815 99.325 606.965 96.7 606.965 92.975C606.965 89.225 604.74 86.5 601.665 86.5C600.115 86.5 599.115 87.05 598.19 88.425V86.825H595.14ZM601.065 88.925C602.715 88.925 603.84 90.575 603.84 92.975C603.84 95.325 602.69 96.9 600.99 96.9C599.24 96.9 598.04 95.3 598.04 92.95C598.04 90.475 599.215 88.925 601.065 88.925Z" fill="black"/>
<path d="M609.496 82.325V99H612.546V82.325H609.496Z" fill="black"/>
<path d="M627.098 93.625C627.023 89.175 624.723 86.5 620.998 86.5C617.473 86.5 615.073 89.1 615.073 92.925C615.073 96.675 617.623 99.325 621.248 99.325C624.023 99.325 626.248 97.8 626.973 95.35H623.823C623.273 96.375 622.398 96.9 621.198 96.9C619.473 96.9 618.423 95.75 618.198 93.625H627.098ZM618.273 91.625C618.523 89.85 619.548 88.85 621.098 88.85C622.723 88.85 623.723 89.85 623.948 91.625H618.273Z" fill="black"/>
<path d="M646.088 99L649.788 86.325V99H652.788V82.325H648.013L644.413 94.7L640.838 82.325H636.063V99H639.063V86.325L642.788 99H646.088Z" fill="black"/>
<path d="M666.852 86.825H663.802V93.625C663.802 94.675 663.652 95.25 663.252 95.75C662.827 96.3 662.077 96.65 661.302 96.65C660.327 96.65 659.602 96.175 659.327 95.35C659.177 94.9 659.152 94.675 659.152 93.45V86.825H656.102V93.625C656.102 95.2 656.152 95.8 656.327 96.425C656.852 98.2 658.327 99.325 660.202 99.325C661.552 99.325 662.602 98.85 663.802 97.75V99H666.852V86.825Z" fill="black"/>
<path d="M679.469 90.45C679.219 88 677.244 86.5 674.269 86.5C671.419 86.5 669.394 88.125 669.394 90.425C669.394 91.475 669.894 92.375 670.869 93C671.644 93.5 672.969 93.9 674.894 94.25C676.519 94.525 676.969 94.8 676.969 95.55C676.969 96.475 676.044 97.075 674.644 97.075C673.044 97.075 672.169 96.45 671.919 95.1H669.119C669.394 97.8 671.394 99.325 674.669 99.325C677.769 99.325 679.844 97.725 679.844 95.35C679.844 94.25 679.419 93.325 678.694 92.725C678.019 92.2 677.269 91.95 675.519 91.65C673.819 91.35 673.269 91.225 672.819 91.025C672.419 90.85 672.169 90.525 672.169 90.15C672.169 89.325 673.069 88.75 674.369 88.75C675.719 88.75 676.494 89.3 676.794 90.45H679.469Z" fill="black"/>
<path d="M682.128 82.25V85.025H685.178V82.25H682.128ZM682.128 86.825V99H685.178V86.825H682.128Z" fill="black"/>
<path d="M696.329 94.7C696.029 96.125 695.13 96.9 693.755 96.9C691.955 96.9 690.829 95.4 690.829 92.975C690.829 90.55 691.979 88.925 693.729 88.925C694.954 88.925 695.754 89.6 696.154 90.95H699.13C698.455 88.1 696.504 86.5 693.654 86.5C690.204 86.5 687.704 89.225 687.704 92.95C687.704 96.675 690.204 99.325 693.704 99.325C696.729 99.325 698.83 97.575 699.255 94.7H696.329Z" fill="black"/>
<path d="M580.925 167.2L579.1 165.525C580.425 163.75 581 161.975 581 159.65C581 154.6 577.675 151 573.05 151C568.375 151 565.075 154.6 565.075 159.65C565.075 164.725 568.375 168.325 573.025 168.325C574.65 168.325 575.9 167.975 577.325 167.125L579.275 168.975L580.925 167.2ZM575.35 162.025L573.725 163.775L575.125 165.075C574.425 165.425 573.8 165.575 573.05 165.575C570.25 165.575 568.375 163.2 568.375 159.65C568.375 156.125 570.25 153.75 573.05 153.75C575.825 153.75 577.7 156.125 577.7 159.65C577.7 161.15 577.425 162.25 576.825 163.375L575.35 162.025Z" fill="black"/>
<path d="M599.016 167.2L597.191 165.525C598.516 163.75 599.091 161.975 599.091 159.65C599.091 154.6 595.766 151 591.141 151C586.466 151 583.166 154.6 583.166 159.65C583.166 164.725 586.466 168.325 591.116 168.325C592.741 168.325 593.991 167.975 595.416 167.125L597.366 168.975L599.016 167.2ZM593.441 162.025L591.816 163.775L593.216 165.075C592.516 165.425 591.891 165.575 591.141 165.575C588.341 165.575 586.466 163.2 586.466 159.65C586.466 156.125 588.341 153.75 591.141 153.75C593.916 153.75 595.791 156.125 595.791 159.65C595.791 161.15 595.516 162.25 594.916 163.375L593.441 162.025Z" fill="black"/>
<path d="M618.232 168L621.932 155.325V168H624.932V151.325H620.157L616.557 163.7L612.982 151.325H608.207V168H611.207V155.325L614.932 168H618.232Z" fill="black"/>
<path d="M638.996 155.825H635.946V162.625C635.946 163.675 635.796 164.25 635.396 164.75C634.971 165.3 634.221 165.65 633.446 165.65C632.471 165.65 631.746 165.175 631.471 164.35C631.321 163.9 631.296 163.675 631.296 162.45V155.825H628.246V162.625C628.246 164.2 628.296 164.8 628.471 165.425C628.996 167.2 630.471 168.325 632.346 168.325C633.696 168.325 634.746 167.85 635.946 166.75V168H638.996V155.825Z" fill="black"/>
<path d="M651.612 159.45C651.362 157 649.387 155.5 646.412 155.5C643.562 155.5 641.537 157.125 641.537 159.425C641.537 160.475 642.038 161.375 643.013 162C643.788 162.5 645.112 162.9 647.037 163.25C648.662 163.525 649.112 163.8 649.112 164.55C649.112 165.475 648.187 166.075 646.787 166.075C645.187 166.075 644.313 165.45 644.062 164.1H641.263C641.538 166.8 643.538 168.325 646.812 168.325C649.913 168.325 651.987 166.725 651.987 164.35C651.987 163.25 651.563 162.325 650.838 161.725C650.163 161.2 649.412 160.95 647.662 160.65C645.962 160.35 645.413 160.225 644.963 160.025C644.563 159.85 644.312 159.525 644.312 159.15C644.312 158.325 645.213 157.75 646.513 157.75C647.863 157.75 648.638 158.3 648.938 159.45H651.612Z" fill="black"/>
<path d="M654.271 151.25V154.025H657.321V151.25H654.271ZM654.271 155.825V168H657.321V155.825H654.271Z" fill="black"/>
<path d="M668.473 163.7C668.173 165.125 667.273 165.9 665.898 165.9C664.098 165.9 662.973 164.4 662.973 161.975C662.973 159.55 664.123 157.925 665.873 157.925C667.098 157.925 667.898 158.6 668.298 159.95H671.273C670.598 157.1 668.648 155.5 665.798 155.5C662.348 155.5 659.848 158.225 659.848 161.95C659.848 165.675 662.348 168.325 665.848 168.325C668.873 168.325 670.973 166.575 671.398 163.7H668.473Z" fill="black"/>
<path d="M575.8 240L579.5 227.325V240H582.5V223.325H577.725L574.125 235.7L570.55 223.325H565.775V240H568.775V227.325L572.5 240H575.8Z" fill="black"/>
<path d="M597.239 234.625C597.164 230.175 594.864 227.5 591.139 227.5C587.614 227.5 585.214 230.1 585.214 233.925C585.214 237.675 587.764 240.325 591.389 240.325C594.164 240.325 596.389 238.8 597.114 236.35H593.964C593.414 237.375 592.539 237.9 591.339 237.9C589.614 237.9 588.564 236.75 588.339 234.625H597.239ZM588.414 232.625C588.664 230.85 589.689 229.85 591.239 229.85C592.864 229.85 593.864 230.85 594.089 232.625H588.414Z" fill="black"/>
<path d="M599.755 223.325V240H602.805V223.325H599.755Z" fill="black"/>
<path d="M611.656 227.5C607.981 227.5 605.331 230.2 605.331 233.9C605.331 237.6 607.981 240.325 611.556 240.325C615.306 240.325 617.956 237.675 617.956 233.9C617.956 230.2 615.306 227.5 611.656 227.5ZM611.656 229.925C613.556 229.925 614.831 231.525 614.831 233.9C614.831 236.3 613.556 237.9 611.656 237.9C609.706 237.9 608.456 236.3 608.456 233.85C608.456 231.525 609.756 229.925 611.656 229.925Z" fill="black"/>
<path d="M620.482 227.825V240H623.532V233.2C623.532 231.275 624.457 230.175 626.082 230.175C626.907 230.175 627.557 230.525 627.957 231.175C628.207 231.575 628.282 232 628.282 232.975V240H631.332V232.175C631.332 231.1 631.182 230.275 630.832 229.65C630.157 228.35 628.682 227.5 627.107 227.5C625.632 227.5 624.657 228.05 623.532 229.525V227.825H620.482Z" fill="black"/>
<path d="M0 70.5642H536.615V114.872H0V70.5642Z" fill="#C4C4C4"/>
<path d="M0 0H536.615V44.3077H0V0Z" fill="#C4C4C4"/>
<path d="M0 210.872H536.615V255.18H0V210.872Z" fill="#C4C4C4"/>
<path d="M0 0H495V44H0V0Z" fill="#A2B1F5"/>
<path d="M0 140.308H536.615V184.615H0V140.308Z" fill="#C4C4C4"/>
<path d="M0 71H274V115H0V71Z" fill="#A2B1F5"/>
<path d="M0 141H194V185H0V141Z" fill="#A2B1F5"/>
<path d="M0 212H106V256H0V212Z" fill="#A2B1F5"/>
<path d="M1143.67 211.888V205.768C1144.73 207.472 1146.38 208.336 1148.64 208.336C1152.36 208.336 1154.98 205.792 1154.98 202.12C1154.98 198.472 1152.34 195.88 1148.62 195.88C1146.46 195.88 1144.82 196.672 1143.67 198.28V196.216H1141.61V211.888H1143.67ZM1148.21 197.632C1150.92 197.632 1152.7 199.456 1152.7 202.264C1152.7 204.784 1150.85 206.584 1148.23 206.584C1145.54 206.584 1143.58 204.664 1143.58 202.048C1143.58 199.48 1145.5 197.632 1148.21 197.632Z" fill="black"/>
<path d="M1157.59 208H1159.68V202.12C1159.68 200.752 1159.92 199.936 1160.52 199.264C1161.31 198.4 1162.37 197.944 1163.59 197.944C1164.05 197.944 1164.38 197.992 1164.98 198.112V196C1164.53 195.904 1164.29 195.88 1163.9 195.88C1162.82 195.88 1161.84 196.216 1161.14 196.864C1160.62 197.32 1160.23 197.872 1159.68 198.976V196.216H1157.59V208Z" fill="black"/>
<path d="M1176.41 204.568C1175.83 205.936 1174.58 206.656 1172.73 206.656C1170.12 206.656 1168.63 205.36 1168.27 202.768H1179.05C1179 201.136 1178.9 200.512 1178.52 199.552C1177.58 197.2 1175.4 195.808 1172.64 195.808C1168.85 195.808 1166.11 198.544 1166.11 202.312C1166.11 205.96 1168.7 208.408 1172.59 208.408C1175.52 208.408 1177.75 206.992 1178.66 204.568H1176.41ZM1168.27 201.16C1168.58 200.176 1168.85 199.576 1169.21 199.096C1169.93 198.136 1171.2 197.56 1172.59 197.56C1174.85 197.56 1176.48 198.952 1176.84 201.16H1168.27Z" fill="black"/>
<path d="M1182.41 208H1184.47V197.824H1187.4V196.216H1184.47V195.52C1184.47 194.056 1184.81 193.72 1186.32 193.72C1186.61 193.72 1186.89 193.744 1187.4 193.768V191.848C1186.85 191.824 1186.51 191.8 1186.1 191.8C1184.35 191.8 1183.56 192.04 1182.93 192.808C1182.53 193.312 1182.41 193.912 1182.41 195.592V196.216H1180.37V197.824H1182.41V208Z" fill="black"/>
<path d="M1198.77 204.568C1198.19 205.936 1196.94 206.656 1195.09 206.656C1192.48 206.656 1190.99 205.36 1190.63 202.768H1201.41C1201.36 201.136 1201.26 200.512 1200.88 199.552C1199.94 197.2 1197.76 195.808 1195 195.808C1191.21 195.808 1188.47 198.544 1188.47 202.312C1188.47 205.96 1191.06 208.408 1194.95 208.408C1197.88 208.408 1200.11 206.992 1201.02 204.568H1198.77ZM1190.63 201.16C1190.94 200.176 1191.21 199.576 1191.57 199.096C1192.29 198.136 1193.56 197.56 1194.95 197.56C1197.21 197.56 1198.84 198.952 1199.2 201.16H1190.63Z" fill="black"/>
<path d="M1204.02 208H1206.11V202.12C1206.11 200.752 1206.35 199.936 1206.95 199.264C1207.74 198.4 1208.8 197.944 1210.02 197.944C1210.48 197.944 1210.81 197.992 1211.41 198.112V196C1210.96 195.904 1210.72 195.88 1210.33 195.88C1209.25 195.88 1208.27 196.216 1207.57 196.864C1207.05 197.32 1206.66 197.872 1206.11 198.976V196.216H1204.02V208Z" fill="black"/>
<path d="M1222.84 204.568C1222.26 205.936 1221.01 206.656 1219.16 206.656C1216.55 206.656 1215.06 205.36 1214.7 202.768H1225.48C1225.43 201.136 1225.33 200.512 1224.95 199.552C1224.01 197.2 1221.83 195.808 1219.07 195.808C1215.28 195.808 1212.54 198.544 1212.54 202.312C1212.54 205.96 1215.13 208.408 1219.02 208.408C1221.95 208.408 1224.18 206.992 1225.09 204.568H1222.84ZM1214.7 201.16C1215.01 200.176 1215.28 199.576 1215.64 199.096C1216.36 198.136 1217.63 197.56 1219.02 197.56C1221.28 197.56 1222.91 198.952 1223.27 201.16H1214.7Z" fill="black"/>
<path d="M1238.8 191.992V198.448C1237.74 196.744 1236.08 195.88 1233.83 195.88C1230.11 195.88 1227.49 198.424 1227.49 202.096C1227.49 205.72 1230.13 208.336 1233.83 208.336C1236.01 208.336 1237.64 207.52 1238.8 205.888V208H1240.86V191.992H1238.8ZM1234.24 197.632C1236.92 197.632 1238.89 199.552 1238.89 202.168C1238.89 204.736 1236.97 206.584 1234.26 206.584C1231.55 206.584 1229.77 204.76 1229.77 201.952C1229.77 199.432 1231.62 197.632 1234.24 197.632Z" fill="black"/>
<path d="M1249.5 202.888C1249.64 206.632 1252.09 208.456 1256.92 208.456C1261.21 208.456 1263.95 206.44 1263.95 203.272C1263.95 201.688 1263.23 200.488 1261.96 199.888C1261.19 199.552 1259.8 199.216 1257.61 198.904C1255.04 198.52 1254.54 198.4 1253.82 198.16C1252.67 197.752 1252.14 197.152 1252.14 196.216C1252.14 194.56 1253.75 193.528 1256.34 193.528C1259.15 193.528 1260.71 194.464 1261.12 196.432H1263.35C1262.94 193.144 1260.66 191.536 1256.46 191.536C1252.4 191.536 1249.74 193.456 1249.74 196.384C1249.74 197.896 1250.53 199.144 1251.92 199.84C1252.88 200.32 1253.65 200.512 1256.53 200.944C1258.88 201.304 1259.46 201.424 1260.01 201.616C1261.04 202 1261.55 202.648 1261.55 203.608C1261.55 205.48 1259.94 206.464 1256.89 206.464C1253.58 206.464 1252.04 205.408 1251.71 202.888H1249.5Z" fill="black"/>
<path d="M1268.69 211.888V205.768C1269.74 207.472 1271.4 208.336 1273.66 208.336C1277.38 208.336 1279.99 205.792 1279.99 202.12C1279.99 198.472 1277.35 195.88 1273.63 195.88C1271.47 195.88 1269.84 196.672 1268.69 198.28V196.216H1266.62V211.888H1268.69ZM1273.22 197.632C1275.94 197.632 1277.71 199.456 1277.71 202.264C1277.71 204.784 1275.86 206.584 1273.25 206.584C1270.56 206.584 1268.59 204.664 1268.59 202.048C1268.59 199.48 1270.51 197.632 1273.22 197.632Z" fill="black"/>
<path d="M1288.87 195.808C1284.84 195.808 1282.03 198.352 1282.03 202.048C1282.03 205.84 1284.79 208.408 1288.85 208.408C1292.86 208.408 1295.64 205.888 1295.64 202.264C1295.64 198.376 1292.95 195.808 1288.87 195.808ZM1288.92 197.56C1291.58 197.56 1293.36 199.384 1293.36 202.144C1293.36 204.88 1291.61 206.656 1288.92 206.656C1287.6 206.656 1286.4 206.224 1285.56 205.432C1284.7 204.64 1284.31 203.608 1284.31 202.12C1284.31 199.408 1286.18 197.56 1288.92 197.56Z" fill="black"/>
<path d="M1303.59 206.44C1303.09 206.56 1302.78 206.584 1302.18 206.584C1301 206.584 1300.74 206.344 1300.74 205.168V197.824H1303.67V196.216H1300.74V193.024H1298.67V196.216H1296.68V197.824H1298.67V205.216C1298.7 206.728 1298.7 206.872 1298.89 207.232C1299.25 208 1300.14 208.336 1301.77 208.336C1302.47 208.336 1302.9 208.288 1303.59 208.168V206.44Z" fill="black"/>
<path d="M1305.88 208H1307.95V196.216H1305.88V208ZM1305.88 194.248H1307.95V191.992H1305.88V194.248Z" fill="black"/>
<path d="M1311.9 208H1313.96V197.824H1316.89V196.216H1313.96V195.52C1313.96 194.056 1314.3 193.72 1315.81 193.72C1316.1 193.72 1316.39 193.744 1316.89 193.768V191.848C1316.34 191.824 1316 191.8 1315.59 191.8C1313.84 191.8 1313.05 192.04 1312.43 192.808C1312.02 193.312 1311.9 193.912 1311.9 195.592V196.216H1309.86V197.824H1311.9V208Z" fill="black"/>
<path d="M1317.42 196.216L1323.06 208.072C1322.3 209.968 1321.82 210.376 1320.28 210.376C1319.78 210.376 1319.46 210.328 1318.91 210.112V212.032C1319.63 212.104 1320.04 212.128 1320.52 212.128C1322.58 212.128 1323.64 211.504 1324.41 209.8L1330.65 196.216H1328.32L1324.1 205.816L1319.9 196.216H1317.42Z" fill="black"/>
<path d="M1010.91 113.312C1019.26 109.28 1023.43 103.088 1023.43 94.736C1023.43 78.896 1008.17 68.672 984.553 68.672C961.081 68.672 945.673 78.896 945.673 94.736C945.673 103.088 949.849 109.28 958.345 113.312C947.401 118.784 942.361 125.984 942.361 135.776C942.361 153.632 959.641 166.16 984.697 166.16C1009.61 166.16 1026.89 153.632 1026.89 135.776C1026.89 125.984 1021.85 118.784 1010.91 113.312ZM984.553 86.672C993.481 86.672 998.953 90.704 998.953 97.184C998.953 103.376 993.337 107.408 984.553 107.408C975.769 107.408 970.153 103.376 970.153 97.04C970.153 90.704 975.769 86.672 984.553 86.672ZM984.553 123.68C995.641 123.68 1002.41 128.288 1002.41 135.92C1002.41 143.12 995.497 147.728 984.553 147.728C973.609 147.728 966.841 143.12 966.841 135.776C966.841 128.288 973.609 123.68 984.553 123.68Z" fill="black"/>
<path d="M1084.39 144.272V164H1107V144.272H1121.83V126.704H1107V70.832H1082.09L1036.87 123.968V144.272H1084.39ZM1084.39 126.704H1058.18L1084.39 96.176V126.704Z" fill="black"/>
<path d="M1157.73 69.824C1141.32 69.824 1130.52 82.352 1130.52 101.216C1130.52 120.224 1141.32 132.608 1157.88 132.608C1174.15 132.608 1185.09 120.224 1185.09 101.648C1185.09 82.208 1174.44 69.824 1157.73 69.824ZM1157.73 81.776C1165.22 81.776 1169.25 88.688 1169.25 101.504C1169.25 113.744 1165.08 120.656 1157.88 120.656C1150.39 120.656 1146.36 113.744 1146.36 101.216C1146.36 88.688 1150.39 81.776 1157.73 81.776ZM1210.15 71.84L1166.52 164H1181.78L1225.56 71.84H1210.15ZM1234.34 102.224C1217.93 102.224 1207.13 114.752 1207.13 133.616C1207.13 152.624 1217.93 165.008 1234.34 165.008C1250.61 165.008 1261.56 152.624 1261.56 134.048C1261.56 114.608 1251.05 102.224 1234.34 102.224ZM1234.34 114.176C1241.69 114.176 1245.72 121.088 1245.72 133.904C1245.72 146.144 1241.54 153.056 1234.34 153.056C1227 153.056 1222.97 146.144 1222.97 133.616C1222.97 121.088 1227 114.176 1234.34 114.176Z" fill="black"/>
<path d="M846.168 51H848.52L850.512 46.44H858.624L860.736 51H863.16L855.792 34.992H853.176L846.168 51ZM851.376 44.472L854.472 37.176L857.808 44.472H851.376Z" fill="black"/>
<path d="M864.905 51H866.993V45.144C866.993 43.728 867.113 43.008 867.401 42.408C868.025 41.232 869.273 40.632 871.121 40.632C872.801 40.632 873.785 41.112 874.169 42.144C874.385 42.672 874.433 43.128 874.433 44.448V51H876.497V44.208C876.497 42.336 876.425 41.664 876.137 41.016C875.537 39.648 874.001 38.88 871.817 38.88C869.585 38.88 868.337 39.528 866.993 41.352V39.216H864.905V51Z" fill="black"/>
<path d="M891.981 38.808C887.949 38.808 885.141 41.352 885.141 45.048C885.141 48.84 887.901 51.408 891.957 51.408C895.965 51.408 898.749 48.888 898.749 45.264C898.749 41.376 896.061 38.808 891.981 38.808ZM892.029 40.56C894.693 40.56 896.469 42.384 896.469 45.144C896.469 47.88 894.717 49.656 892.029 49.656C890.709 49.656 889.509 49.224 888.669 48.432C887.805 47.64 887.421 46.608 887.421 45.12C887.421 42.408 889.293 40.56 892.029 40.56Z" fill="black"/>
<path d="M899.392 39.216L904.744 51H906.88L912.448 39.216H910.144L905.872 48.576L901.768 39.216H899.392Z" fill="black"/>
<path d="M923.328 47.568C922.752 48.936 921.504 49.656 919.656 49.656C917.04 49.656 915.552 48.36 915.192 45.768H925.968C925.92 44.136 925.824 43.512 925.44 42.552C924.504 40.2 922.32 38.808 919.56 38.808C915.768 38.808 913.032 41.544 913.032 45.312C913.032 48.96 915.624 51.408 919.512 51.408C922.44 51.408 924.672 49.992 925.584 47.568H923.328ZM915.192 44.16C915.504 43.176 915.768 42.576 916.128 42.096C916.848 41.136 918.12 40.56 919.512 40.56C921.768 40.56 923.4 41.952 923.76 44.16H915.192Z" fill="black"/>
<path d="M928.585 51H930.673V45.12C930.673 43.752 930.913 42.936 931.513 42.264C932.305 41.4 933.361 40.944 934.585 40.944C935.041 40.944 935.377 40.992 935.977 41.112V39C935.521 38.904 935.281 38.88 934.897 38.88C933.817 38.88 932.833 39.216 932.137 39.864C931.609 40.32 931.225 40.872 930.673 41.976V39.216H928.585V51Z" fill="black"/>
<path d="M937.174 39.216L941.542 51H944.038L947.062 41.688L950.11 51H952.606L957.166 39.216H954.694L951.358 48.552L948.334 39.216H945.886L942.814 48.552L939.574 39.216H937.174Z" fill="black"/>
<path d="M958.866 51H960.93V44.88C960.93 43.896 961.05 43.224 961.29 42.696C961.89 41.472 963.45 40.632 965.154 40.632C967.386 40.632 968.538 41.832 968.538 44.208V51H970.602V44.136C970.602 42.384 970.53 41.856 970.242 41.184C969.618 39.72 967.962 38.88 965.754 38.88C963.57 38.88 962.058 39.648 960.93 41.352V34.848H958.866V51Z" fill="black"/>
<path d="M983.562 47.568C982.986 48.936 981.738 49.656 979.89 49.656C977.274 49.656 975.786 48.36 975.426 45.768H986.202C986.154 44.136 986.058 43.512 985.674 42.552C984.738 40.2 982.554 38.808 979.794 38.808C976.002 38.808 973.266 41.544 973.266 45.312C973.266 48.96 975.858 51.408 979.746 51.408C982.674 51.408 984.906 49.992 985.818 47.568H983.562ZM975.426 44.16C975.738 43.176 976.002 42.576 976.362 42.096C977.082 41.136 978.354 40.56 979.746 40.56C982.002 40.56 983.634 41.952 983.994 44.16H975.426Z" fill="black"/>
<path d="M988.819 51H990.883V34.992H988.819V51Z" fill="black"/>
<path d="M994.092 51H996.18V44.424C996.18 43.08 996.492 42.24 997.236 41.592C997.932 40.968 998.94 40.632 1000.09 40.632C1001.58 40.632 1002.68 41.208 1003.02 42.144C1003.21 42.648 1003.26 43.128 1003.26 44.304V51H1005.32V44.376C1005.32 43.296 1005.49 42.552 1005.88 42.024C1006.5 41.136 1007.7 40.632 1009.12 40.632C1010.82 40.632 1012.02 41.304 1012.26 42.408C1012.38 42.864 1012.43 43.584 1012.43 44.376V51H1014.49V43.68C1014.49 42.384 1014.4 41.76 1014.13 41.184C1013.48 39.744 1011.8 38.88 1009.76 38.88C1007.63 38.88 1006.33 39.576 1005.06 41.376C1004.34 39.768 1002.85 38.88 1000.86 38.88C998.964 38.88 997.38 39.696 996.18 41.304V39.216H994.092V51Z" fill="black"/>
<path d="M1017.74 51H1019.81V39.216H1017.74V51ZM1017.74 37.248H1019.81V34.992H1017.74V37.248Z" fill="black"/>
<path d="M1023.01 51H1025.1V45.144C1025.1 43.728 1025.22 43.008 1025.51 42.408C1026.13 41.232 1027.38 40.632 1029.23 40.632C1030.91 40.632 1031.89 41.112 1032.28 42.144C1032.49 42.672 1032.54 43.128 1032.54 44.448V51H1034.61V44.208C1034.61 42.336 1034.53 41.664 1034.25 41.016C1033.65 39.648 1032.11 38.88 1029.93 38.88C1027.69 38.88 1026.45 39.528 1025.1 41.352V39.216H1023.01V51Z" fill="black"/>
<path d="M1048.51 39.216V41.184C1047.16 39.504 1045.82 38.88 1043.59 38.88C1039.77 38.88 1037.25 41.328 1037.25 45.024C1037.25 48.456 1039.84 50.76 1043.75 50.76C1044.98 50.76 1046.01 50.52 1046.95 49.992C1047.69 49.584 1048.03 49.224 1048.51 48.408C1048.46 50.136 1048.39 50.76 1048.15 51.36C1047.59 52.728 1046.18 53.376 1043.75 53.376C1041.59 53.376 1040.56 52.872 1040.15 51.624H1037.9C1038.38 54.12 1040.13 55.128 1043.9 55.128C1046.8 55.128 1048.63 54.456 1049.71 52.968C1050.4 52.032 1050.59 51.168 1050.59 48.912V39.216H1048.51ZM1044.04 40.632C1046.73 40.632 1048.53 42.288 1048.53 44.76C1048.53 47.232 1046.63 49.008 1043.97 49.008C1041.16 49.008 1039.53 47.472 1039.53 44.784C1039.53 42.288 1041.33 40.632 1044.04 40.632Z" fill="black"/>
</svg>
